
<svg width="124px" height="21px" viewBox="0 0 124 21" version="1.1" xmlns="http://www.w3.org/2000/svg" xmlns:xlink="http://www.w3.org/1999/xlink">
    <g id="Page-1" stroke="none" stroke-width="1" fill="none" fill-rule="evenodd">
        <g id="MySmolUrl" transform="translate(0.618527, 0.140610)">
            <path d="M19.6783659,14.3750137 C19.7408659,13.9687633 19.7721159,13.4375128 19.7721159,12.7812622 L19.7721159,11.1250106 C19.7721159,8.23438285 20.0846162,3.40625325 19.9127411,1.1562511 C19.850241,0.453125432 19.6158658,0.109375104 19.2096154,0.0625000596 C18.81899,0.0312500298 18.3033645,0 17.6783639,0 C16.5377379,0 15.4283618,0.0625000596 14.3189857,0.0781250745 C13.3502348,0.0781250745 12.8033593,0.140625134 12.6627342,0.234375224 C12.522109,0.312500298 12.3033588,0.593750566 11.9752335,1.06250101 C11.8502334,1.23437618 11.6002331,1.56250149 11.2408578,2.04687695 C10.8814825,2.5156274 10.6471072,2.78125265 10.5064821,2.84375271 L10.3189819,2.46875235 C10.1314817,1.92187683 9.99085661,1.42187636 9.91273154,0.953125909 C9.83460647,0.468750447 9.5533562,0.187500179 9.06898074,0.125000119 C7.64710438,-0.0781250745 6.4127282,0.0625000596 5.02210188,0.0781250745 C4.39710128,0.0937500894 3.86585077,0.109375104 3.41272534,0.0937500894 C2.97522492,0.0781250745 2.64709961,0.234375224 2.4283494,0.578125551 L0.162722242,3.2500031 C0.115847197,4.31250411 0.131472212,5.54688029 0.209597287,6.93750662 C0.272097346,8.32813294 0.225222302,9.5 0.0689721527,10.453135 C0.0533471378,10.53126 0.0533471378,10.8906354 0.0377221229,11.562511 C0.022097108,12.2343867 0.00647209308,12.9531374 0.00647209308,13.7500131 C-0.00915292182,14.5468889 0.00647209308,15.2812646 0.022097108,15.9218902 C0.0377221229,16.6093908 0.0689721527,17.0156412 0.131472212,17.1406413 C0.5377226,17.859392 3.70960062,17.3906416 4.58460146,17.3125165 C4.66272653,17.1562664 4.91272677,16.8593911 5.31897716,16.4062656 C5.74085256,15.9531402 6.00647782,15.73439 6.14710295,15.6406399 C6.36585316,15.8750151 6.47522826,16.1718904 6.49085328,16.4843907 C6.50647829,16.812516 6.67835346,17.0625163 7.02210378,17.2500165 C7.31897907,17.3593916 7.92835465,17.4375166 8.85023053,17.4531416 C9.77210641,17.4843917 10.365857,17.4062666 10.6314822,17.2187664 L11.6314832,16.2031405 C11.9908585,15.8593901 12.1002336,15.5312648 12.6158591,15.2187645 C12.6158591,17.796892 12.522109,17.3281415 15.662737,17.3281415 L16.7564881,17.3281415 C17.0221133,17.3281415 17.3033636,17.1875164 17.5689888,16.8906411 L18.6783649,15.70314 C19.0064902,15.2031395 19.2408654,14.8281391 19.6783659,14.3750137 Z" id="Path" fill="#FDE047" fill-rule="nonzero"></path>
            <path d="M21.6408492,13.8281382 C21.3283489,14.3437637 20.9064735,14.8125141 20.5470982,15.2968896 C19.281472,16.8750161 19.343972,16.5781408 19.3908471,19.0312681 C19.4064721,19.4843936 19.5314722,19.7656438 19.7658474,19.875019 C20.0002226,19.9843941 20.328348,20.0781441 20.7658484,20.1562692 C22.0783496,20.4062695 23.7502262,20.5000196 25.1096025,20.0625191 C25.8596032,19.8281439 26.3752287,19.5156436 26.703354,19.1250182 C27.0158543,18.7500179 27.3596047,18.2968924 27.7814801,17.812517 L28.9221062,16.5000157 C29.2971065,16.1562654 29.6564819,15.6562649 30.0002322,14.9218892 C30.3439825,14.1875135 30.6564828,13.3750128 30.9533581,12.5156369 C31.5627337,10.7812603 32.0471091,8.93750852 32.4221095,7.75000739 C32.5627346,7.31250697 32.7658598,6.65625635 33.0471101,5.78125551 C33.3439854,4.90625468 33.4377355,4.23437904 33.3283604,3.78125361 C32.7814848,3.48437832 29.765857,3.37500322 29.1096063,3.78125361 L27.4689798,5.71875545 C27.2033545,6.03125575 27.2346045,6.10938083 26.9846043,6.28125599 C26.8439792,6.04688077 26.703354,5.71875545 26.5627289,5.28125504 C26.4377288,4.84375462 26.3283537,4.48437928 26.2033536,4.20312901 C26.0471034,3.82812865 25.6877281,3.65625349 25.1721026,3.68750352 C24.6564771,3.70312853 24.2189767,3.68750352 23.8439763,3.6718785 C22.6564752,3.60937844 21.9845995,3.6718785 21.8127244,3.84375367 C21.6408492,4.01562883 21.2970989,4.37500417 20.8127234,4.98437975 C20.2658479,5.68750542 19.8908475,6.1875059 19.6564723,6.43750614 C19.4220971,6.68750638 19.359597,7.06250674 19.4689721,7.56250721 C19.4689721,7.57813223 19.5783472,7.89063253 19.8127225,8.50000811 C20.0314727,9.09375867 20.2814729,9.76563431 20.5470982,10.50001 C20.7970984,11.2343857 21.0158486,11.9375114 21.2502238,12.609387 C21.4845991,13.2812627 21.6252242,13.6875131 21.6408492,13.8281382 Z" id="Path" fill="#FDE047"></path>
            <path d="M47.1346109,6.46875617 C47.3846112,6.03125575 47.9627367,5.5625053 48.1502369,5.12500489 C48.4314872,4.50000429 48.259612,3.8750037 47.9939867,3.28125313 C46.3846102,-0.328125313 41.1033552,-0.375000358 37.9939772,0.546875522 C37.2908515,0.750000715 36.743976,1.01562597 36.3533506,1.31250125 C35.9627253,1.59375152 35.5408499,1.90625182 35.1814745,2.34375224 L33.2439727,4.79687957 C32.493972,5.73438047 32.1345966,6.96875665 32.1502216,8.390633 C32.1658466,9.81250936 32.6814721,10.7968853 33.7127231,11.3437608 C33.6658481,11.484386 33.4939729,11.7500112 33.2283477,12.1406366 C32.9470974,12.531262 32.7595972,12.7500122 32.6502221,12.8281372 C32.509597,12.9531374 32.3845969,13.0312624 32.3064718,13.0625125 C32.2127217,13.0937625 32.1502216,13.2500126 32.1033466,13.5312629 C32.0877216,13.8281382 32.1345966,14.1406385 32.2595967,14.4843888 C33.7752232,18.5781427 38.790853,18.4843926 42.4627315,17.6250168 C43.7596077,17.3281415 44.6189835,16.9218911 45.0096089,16.4531407 C45.4002343,16.0000153 45.9158598,15.4062647 46.5408604,14.5781389 C46.9002357,14.1250135 47.3377361,13.8906382 47.6971115,13.3906378 C48.259612,12.609387 48.5564873,11.7031362 48.6502374,10.6562602 C48.7439875,9.60938416 48.5877373,8.65625826 48.1658619,7.79688244 C48.0408618,7.56250721 47.9002367,7.29688196 47.6814864,7.06250674 L47.1346109,6.46875617 Z" id="Path" fill="#FDE047"></path>
            <path d="M54.6752284,10.9062604 C54.9721037,11.1718857 55.0346038,11.484386 55.0971038,11.9843864 C55.1596039,12.3750118 55.1908539,12.8281372 55.1908539,13.1875126 C55.2221039,14.3125136 55.1908539,15.2031395 55.1283538,15.8593901 C55.0658538,16.4687657 55.0971038,16.9531412 55.2221039,17.2812665 C55.3471041,17.6093918 55.6439793,17.812517 56.0971048,17.859392 C56.5502302,17.9218921 57.3158559,17.9218921 58.3783569,17.828142 C58.9877325,17.781267 59.3627329,17.7031419 59.472108,17.6250168 C59.5971081,17.5468917 59.8158583,17.3125165 60.1439836,16.9062661 C60.518984,16.4218907 60.9721094,15.9218902 61.3158597,15.4687648 C61.4564849,15.2812646 61.4564849,15.1875145 61.56586,15.0468893 C61.8002352,14.7343891 61.9096103,14.5312639 61.9252353,14.4531388 C61.9408603,14.3593887 61.9564854,14.0156384 62.0033604,13.4218878 C62.0502354,12.609387 62.0346104,11.6875111 62.0502354,10.8125103 C62.1283605,10.9218854 62.1127355,10.8750104 62.2377356,11.0156355 C62.2533606,11.0468855 62.2846107,11.0937606 62.3158607,11.1562606 C62.4564858,11.484386 62.5189859,12.0312615 62.5189859,12.7812622 L62.5189859,14.4218888 C62.5189859,15.5000148 62.4721108,16.1093904 62.4096108,16.3750156 C62.3471107,16.6406409 62.5189859,17.0781413 62.9096113,17.7187669 C63.3471117,17.7187669 63.9877373,17.7500169 64.8314881,17.812517 C65.6752389,17.8906421 66.2689895,17.875017 66.6283648,17.781267 C66.86274,17.7187669 67.0502402,17.5937668 67.1752403,17.3906416 C67.3002405,17.1875164 67.4408656,17.0156412 67.6127407,16.8750161 C67.831491,16.6562659 68.1439913,16.2812655 68.5346166,15.7968901 C68.940867,15.2500145 69.1752422,14.9062642 69.2377423,14.7500141 C69.3002424,14.5937639 69.3314924,14.3125136 69.3158674,13.9062633 C69.3002424,13.5000129 69.3002424,13.1875126 69.3002424,12.9687624 C69.3002424,11.3281358 69.4252425,9.34375891 69.2064923,7.6562573 C68.9877421,5.96875569 68.4252415,4.54687934 67.0033652,4.00000381 C66.0189892,3.62500346 64.706488,3.46875331 63.5814869,3.71875355 C62.9721113,3.84375367 62.5033609,4.03125384 62.1596105,4.23437904 C61.8158602,4.43750423 61.4096098,4.64062943 60.9564844,4.81250459 C59.7533583,4.17187898 58.7377323,3.78125361 57.8783565,3.64062847 C57.0346057,3.50000334 55.9252296,3.71875355 54.5658533,4.31250411 C54.1596029,4.03125384 53.8627276,3.90625373 53.6908525,3.92187874 C53.5189773,3.93750376 53.143977,3.93750376 52.5502264,3.93750376 C51.7377256,3.93750376 50.9564749,3.92187874 50.1908491,3.90625373 L48.5033475,6.28125599 C48.0658471,6.89063157 47.8783469,7.43750709 47.925222,7.89063253 C47.972097,8.34375796 47.972097,8.98438357 47.925222,9.82813437 C47.8627219,11.1406356 47.8783469,12.6562621 47.8783469,13.9687633 C47.8783469,15.2031395 47.8783469,15.5937649 47.8939719,15.9062652 C47.909597,16.2812655 47.972097,16.6250159 48.1127222,17.7500169 C48.6752227,17.7500169 49.2064732,17.781267 49.6752236,17.843767 C50.1908491,17.9062671 50.7689747,17.8906421 51.4096003,17.781267 C51.7377256,17.7187669 51.9564758,17.6406418 52.0346009,17.5625167 C52.128351,17.4843917 52.2533511,17.3125165 52.4252263,17.0312662 L53.9564777,15.1406394 C54.206478,14.9687643 54.3627281,14.8593892 54.4408532,14.8281391 C54.5189783,14.7812641 54.5658533,14.5468889 54.6127284,14.1093885 C54.6439784,13.6875131 54.6596034,13.1718876 54.6596034,12.562512 C54.6596034,11.9531364 54.6596034,11.3906359 54.6752284,10.9062604 Z" id="Path" fill="#FDE047"></path>
            <path d="M83.9971115,10.6406351 C84.2158617,9.53125909 84.2002367,8.25000787 83.8096113,7.20313187 C83.6377362,6.75000644 83.450236,6.25000596 83.2471108,5.85938059 C82.6689852,4.76562954 81.7002343,4.01562883 80.356483,3.62500346 C79.0283568,3.23437808 77.7471055,3.09375295 76.5283544,3.20312805 C75.4033533,3.31250316 74.3721023,3.51562835 73.4971015,4.00000381 C72.8877259,4.32812913 72.2627253,4.90625468 71.5908497,5.73438047 C70.918974,6.56250626 70.3564735,7.31250697 69.872098,7.90625754 C68.1377214,10.0156346 68.3877216,14.5625139 70.2627234,16.3437656 C70.9502241,17.0000162 71.7939749,17.4375166 72.8096008,17.6250168 C73.8408518,17.828142 74.9814779,17.9218921 76.2314791,17.9218921 C77.6689805,17.9218921 78.7002315,17.6718919 79.309607,17.1562664 C79.9189826,16.6562659 80.5908583,16.0937653 81.2627339,15.4531397 C81.9033595,14.8437642 82.418985,14.0468884 82.9189855,13.2968877 C83.434611,12.546887 83.8096113,11.6562611 83.9971115,10.6406351 Z" id="Path" fill="#FDE047"></path>
            <path d="M89.4283529,15.4843898 C89.584603,15.2812646 89.8346033,14.9687643 89.9596034,14.7812641 C90.1939786,14.3906387 90.3033537,13.640638 90.2721037,12.546887 C90.2408536,11.4375109 90.2252286,10.6093851 90.2252286,10.0468846 C90.2252286,9.48438405 90.2252286,8.75000834 90.2408536,7.82813247 C90.2564787,6.90625659 90.2721037,5.96875569 90.2721037,5.01562978 C90.2721037,4.04687886 90.2564787,3.140628 90.2096036,2.28125218 C90.1627286,1.42187636 90.0846035,0.76562573 89.9596034,0.312500298 C88.9596024,0.312500298 88.2252267,0.281250268 87.7408513,0.218750209 C87.2564758,0.156250149 86.8814754,0.156250149 86.5846002,0.203125194 C86.3033499,0.250000238 86.0377246,0.406250387 85.8033494,0.671875641 C85.5689742,0.921875879 85.2095989,1.3593763 84.7252234,2.00000191 C84.1158478,2.78125265 83.7564725,3.21875307 83.6783474,3.29687814 C83.6002223,3.37500322 83.5220972,3.71875355 83.5064722,4.34375414 C83.4752222,5.51563026 83.4439722,6.73438142 83.4439722,7.81250745 L83.4439722,14.9843893 C83.4439722,15.5625148 83.4439722,16.0937653 83.4283472,16.6406409 C83.4127221,17.1875164 83.7095974,17.5000167 84.303348,17.5625167 C84.7408484,17.6093918 85.318974,17.6406418 86.0220996,17.6562668 C86.7252253,17.6875169 87.3189759,17.6718919 87.8189763,17.6093918 L89.4283529,15.4843898 Z" id="Path" fill="#FDE047"></path>
            <path d="M90.109598,16.5156408 C90.8752238,16.0781403 90.3595983,17.1250163 92.9377257,17.7343919 C94.3596021,18.0781422 95.8596035,18.1562673 97.4220969,18.0156422 C99.0002315,17.875017 100.281483,17.2187664 101.328359,16.0937653 C101.687734,15.70314 101.843984,15.4062647 102.26586,14.9687643 C102.48461,14.7500141 102.812735,14.3437637 103.265861,13.7656381 C103.718986,13.1875126 104.015861,12.7500122 104.140861,12.4843869 C104.453362,11.8437613 104.609612,11.2500107 104.609612,10.7343852 C104.625237,10.2187597 104.687737,9.60938416 104.828362,8.92188351 C104.875237,8.64063324 104.890862,8.09375772 104.906487,7.29688196 C104.922112,6.5000062 104.922112,5.64063038 104.906487,4.73437952 C104.890862,3.82812865 104.843987,2.96875283 104.797112,2.17187707 C104.750237,1.37500131 104.703362,0.82812579 104.640862,0.531250507 C103.953361,0.515625492 103.203361,0.468750447 102.375235,0.406250387 C101.547109,0.328125313 100.828358,0.390625373 100.203358,0.593750566 C99.9689824,0.85937582 99.7346072,1.25000119 99.484607,1.56250149 C98.0002306,3.42187826 97.6877303,3.03125289 97.6877303,4.68750447 C97.6877303,6.8125065 97.6096052,8.92188351 97.6096052,11.0625106 C96.6721043,10.8750104 96.2033539,10.2500098 96.2189789,9.18750876 C96.2346039,8.10938273 96.2346039,7.09375677 96.2346039,6.14063086 C96.2346039,4.45312925 96.2502289,3.20312805 96.2658539,2.40625229 C96.2971039,1.59375152 96.2189789,1.046876 96.0314787,0.750000715 C95.8596035,0.453125432 95.5158532,0.312500298 95.0002277,0.359375343 C94.4846022,0.390625373 93.7033515,0.406250387 92.6408505,0.390625373 C91.8752247,0.390625373 91.3439742,0.640625611 91.0158489,1.14062609 C90.7033486,1.64062656 90.2033481,2.32812722 89.4220969,3.18750304 C89.2189722,3.40625325 89.1095971,3.5625034 89.0783471,3.6718785 C89.047097,3.76562859 89.031472,3.9843788 89.031472,4.34375414 C89.047097,5.4531302 89.015847,6.76563145 88.968972,8.2812579 C88.9064719,9.79688434 88.9064719,10.9843855 88.968972,11.8437613 C89.062722,12.9218873 89.1877222,13.7343881 89.3595973,14.2656386 C89.5158475,14.7812641 89.6720976,15.1718895 89.8127228,15.4375147 C89.9533479,15.70314 90.062723,15.8593901 90.1408481,15.9531402 C90.2189732,16.0625153 90.2033481,16.2500155 90.109598,16.5156408 Z" id="Path" fill="#FDE047"></path>
            <path d="M111.025229,12.3750118 C111.259597,12.3281368 111.681479,12.3125117 112.27523,12.3125117 C112.884605,12.3125117 113.337731,12.2968867 113.650231,12.2812617 C114.290857,12.2656367 114.790857,11.9218864 115.165858,11.2812608 C115.556483,10.6406351 115.947108,10.0937596 116.353359,9.64063419 C116.509609,9.46875903 116.618984,9.37500894 116.681484,9.3281339 C116.743984,9.28125885 116.790859,9.09375867 116.822109,8.75000834 C116.900234,7.90625754 116.822109,6.98438166 116.603359,5.96875569 C116.384609,4.95312972 115.900233,4.25000405 115.165858,3.8750037 C114.353357,3.46875331 113.603356,3.3593782 112.93148,3.5625034 C112.259597,3.76562859 111.572104,3.96875378 110.853353,4.20312901 L110.431478,3.84375367 L106.931475,3.84375367 C106.353349,4.03125384 106.181474,4.35937916 105.931474,4.7187545 C104.556472,6.67188136 104.259597,6.10938083 104.259597,8.29688291 L104.259597,15.5625148 C104.259597,16.2187655 104.290847,16.765641 104.353347,17.1406413 C104.415847,17.5156417 104.837723,17.7031419 105.587723,17.7031419 C108.306476,17.7031419 108.072101,18.0625172 109.134602,16.6875159 C109.728352,15.9218902 110.134603,15.4531397 110.384603,15.2187645 C110.634603,14.9843893 110.790853,14.7968891 110.868978,14.656264 C110.947104,14.5156388 110.962729,14.2968886 110.947104,14.0312634 C110.931479,13.7656381 110.962729,13.2031376 111.025229,12.3750118 Z" id="Path" fill="#FDE047"></path>
            <path d="M122.081478,15.4843898 C122.237728,15.2812646 122.487728,14.9687643 122.612728,14.7812641 C122.847104,14.3906387 122.956479,13.640638 122.925229,12.546887 C122.893979,11.4375109 122.878354,10.6093851 122.878354,10.0468846 C122.878354,9.48438405 122.878354,8.75000834 122.893979,7.82813247 C122.909604,6.90625659 122.925229,5.96875569 122.925229,5.01562978 C122.925229,4.04687886 122.909604,3.140628 122.862729,2.28125218 C122.815854,1.42187636 122.737729,0.76562573 122.612728,0.312500298 C121.612727,0.312500298 120.878352,0.281250268 120.393976,0.218750209 C119.909601,0.156250149 119.5346,0.156250149 119.237725,0.203125194 C118.956475,0.250000238 118.69085,0.406250387 118.456474,0.671875641 C118.222099,0.921875879 117.862724,1.3593763 117.378348,2.00000191 C116.768973,2.78125265 116.409597,3.21875307 116.331472,3.29687814 C116.253347,3.37500322 116.175222,3.71875355 116.159597,4.34375414 C116.128347,5.51563026 116.097097,6.73438142 116.097097,7.81250745 L116.097097,14.9843893 C116.097097,15.5625148 116.097097,16.0937653 116.081472,16.6406409 C116.065847,17.1875164 116.362722,17.5000167 116.956473,17.5625167 C117.393973,17.6093918 117.972099,17.6406418 118.675225,17.6562668 C119.37835,17.6875169 119.972101,17.6718919 120.472101,17.6093918 L122.081478,15.4843898 Z" id="Path" fill="#FDE047"></path>
            <path d="M0.397097466,16.781266 C0.397097466,16.3906406 0.381472451,15.718765 0.350222421,14.703139 C0.318972391,13.6875131 0.365847436,13.0468874 0.490847555,12.7968872 C0.631472689,12.531262 1.13147317,12.0000114 1.3814734,11.6718861 C1.63147364,11.2968858 1.85022385,10.9531354 2.16272415,10.6250101 C2.20959919,11.0937606 2.20959919,11.7812612 2.16272415,12.6718871 C2.1158491,13.5625129 2.16272415,14.1718885 2.30334928,14.4843888 C2.10022409,14.8593892 1.61584863,15.3437646 1.3814734,15.718765 L0.397097466,16.781266 Z M12.9908595,15.0312643 C13.0846096,14.718764 14.568986,12.562512 14.8033612,12.3593868 L14.9439863,14.3593868 L13.3189848,16.3281406 C13.1314846,16.5156408 13.2252347,16.4375157 13.0377345,16.5625158 L12.9908595,15.0312643 Z M6.49085328,15.1250144 C6.95960372,14.8125141 7.30335405,14.4687638 7.53772928,14.0781384 C7.7721045,13.6875131 8.06897978,13.3437627 8.42835512,13.0156374 L8.85023053,14.4062637 C8.69398038,14.5156374 8.52210521,14.687514 8.33460504,14.9531393 C8.14710486,15.2187645 7.99085328,15.4062647 7.8814796,15.5468898 L6.97522874,16.5937658 C6.7252285,16.2343905 6.53772832,15.6250149 6.49085328,15.1250144 Z M7.06897883,13.4531378 C7.50647925,13.0156374 7.75647948,12.6406371 8.1939799,12.2187617 L8.33460504,12.593762 C8.10022981,13.1718876 7.52210426,13.7656381 7.08460384,14.1875135 L7.06897883,13.4531378 Z M13.0846096,14.3593887 C13.1783597,13.9218883 13.3971099,13.4218878 13.7408602,12.8437622 C14.0846096,12.2656367 14.4283608,11.8437613 14.7721112,11.578136 C14.7877362,11.8750113 14.7408611,12.1093865 14.600236,12.2500117 C14.4752359,12.3906368 14.2877357,12.6562621 14.0221105,13.0625125 C13.7096102,13.5156379 13.4439849,14.0312634 13.0846096,14.3593887 Z M7.11585387,12.7031371 C7.11585387,12.2031366 7.36585411,11.9218864 7.69397942,11.562511 L7.94397966,11.3593858 C8.14710486,11.8437613 7.70960444,12.2187617 7.27210402,12.578137 L7.11585387,12.7031371 Z M13.7564852,12.1562616 C13.7877352,11.8906363 13.9127354,11.6093861 14.1471106,11.2812608 C14.3814858,10.9531354 14.584611,10.7031352 14.7721112,10.53126 C14.7721112,10.8437603 14.6471111,11.1562606 14.4127358,11.4687609 C14.1783606,11.7656362 13.9596104,12.0000114 13.7564852,12.1562616 Z M7.16272892,11.578136 C7.17835393,11.3593858 7.24085399,11.1718857 7.36585411,11.0000105 L7.70960444,10.6562602 C7.75647948,10.7500103 7.78772951,10.8437603 7.80335453,10.9375104 C7.81897954,11.0156355 7.61585435,11.2343857 7.16272892,11.578136 Z M2.19397418,8.54688315 C2.19397418,8.75000834 2.19397418,9.0156336 2.20959919,9.35938393 C2.22522421,9.68750924 2.20959919,9.93750948 2.19397418,10.0937596 C2.16272415,10.2812598 1.88147388,10.7031352 1.3814734,11.3437608 C0.897097942,11.9843864 0.56897263,12.3750118 0.428347495,12.531262 C0.365847436,12.1406366 0.365847436,11.546886 0.397097466,11.1093856 C0.428347495,10.6250101 0.615847674,10.53126 0.881472928,10.1718847 C1.00647305,10.0000095 1.22522326,9.71875927 1.49084851,9.3281339 C1.77209878,8.93750852 1.97522397,8.64063324 2.03772403,8.45313306 L2.19397418,8.54688315 Z M2.03772403,8.45313306 C1.77209878,8.5937582 1.52209854,8.89063348 1.2720983,9.3281339 C1.00647305,9.7500093 0.740847793,10.0781346 0.522097585,10.2968848 C0.397097466,9.59375915 0.428347495,9.10938369 0.631472689,8.84375653 C0.818972868,8.57813318 1.1627232,8.12500775 1.61584863,7.48438214 L2.25647424,6.84375653 C2.27209925,7.28125694 2.24084922,7.59375724 2.19397418,7.76563241 C2.14709913,7.93750757 2.08459907,8.15625778 2.03772403,8.45313306 Z M0.50647257,7.50000715 C0.818972868,7.28125694 1.11584815,6.93750662 1.3814734,6.46875522 C1.66272367,5.98438071 1.95959753,5.65625539 2.27209925,5.46875522 L2.24084922,6.53125623 C2.08459907,6.67188136 1.99084899,6.75000644 1.95959753,6.79688148 C1.94397394,6.82813151 1.88147388,6.93750662 1.75647376,7.07813175 L0.959597525,8.09375772 C0.897097942,8.20313282 0.834597883,8.31250793 0.772097823,8.37500799 C0.678347734,8.50000811 0.631472689,8.54688315 0.631472689,8.53125814 C0.631472689,8.51563312 0.56897263,8.53125814 0.459597525,8.5937582 L0.50647257,7.50000715 Z M2.78772475,0.718750685 C2.97522492,0.578125551 3.35022528,0.500000477 3.92835083,0.453125432 C4.50647638,0.406250387 5.13147698,0.390625373 5.80335262,0.406250387 C6.47522826,0.421875402 7.1471039,0.437500417 7.78772951,0.484375462 C8.42835512,0.515625492 8.9283556,0.546875522 9.28773094,0.578125551 C9.52210617,1.31250125 9.78773142,2.28125218 10.0533567,3.48437832 C10.3346069,4.68750447 10.6314822,5.59375533 10.9439825,6.17188089 C11.1002327,6.06250578 11.2564828,5.75000548 11.428358,5.25000501 C11.6002331,4.75000453 11.7721083,4.20312901 11.9283585,3.59375343 C12.2564838,2.39062728 12.5689841,1.10937606 12.8346093,0.593750566 C13.0377345,0.562500536 13.4596099,0.531250507 14.0846105,0.500000477 C14.7096111,0.468750447 15.3658617,0.453125432 16.0689874,0.437500417 C16.7721131,0.421875402 17.4283637,0.406250387 18.0377393,0.421875402 C18.6471149,0.437500417 19.0533653,0.453125432 19.2408654,0.500000477 C19.4439906,0.921875879 19.5064907,2.12500203 19.5064907,3.39062823 C19.5064907,4.64062943 19.5064907,6.00000572 19.4752407,6.64063133 L19.3189905,10.8906354 C19.2877405,11.5937611 19.3033655,12.2812617 19.2877405,12.9062623 C19.2877405,13.4062628 19.2721155,13.7656381 19.2877405,14.0000134 C19.3033655,14.2343886 19.0689903,14.3437637 18.5689898,14.3437637 C14.8189862,14.3437637 15.2096116,14.7812641 15.1939866,12.6875121 L15.1627365,6.14063086 C14.9752364,6.35938106 14.7721112,6.82813151 14.553361,7.56250721 C14.3346108,8.29688291 14.1002355,9.09375867 13.8658603,9.96875951 C13.6314851,10.8437603 13.3971099,11.6875111 13.1627346,12.5156369 C12.9283594,13.3437627 12.7096092,13.9531383 12.506484,14.3593887 L9.39710605,14.2812636 C9.27210593,14.1875135 9.20960587,14.1406385 9.20960587,14.1562635 C9.20960587,14.1718885 9.17835584,14.0781384 9.10023077,13.8750132 C8.97523065,13.5781379 8.80335548,13.0312624 8.58460527,12.2343867 C8.36585507,11.4218859 8.14710486,10.5937601 7.91272963,9.73438428 C7.67835441,8.87500846 7.47522922,8.09375772 7.27210402,7.40625706 C7.06897883,6.70313139 6.92835369,6.31250602 6.85022862,6.21875593 C6.55335334,8.21875784 6.78772856,12.625012 6.6158534,13.9218883 C6.60022838,14.0312634 6.60022838,14.0625134 6.60022838,14.0312634 C6.60022838,14.0000134 6.58460337,14.0312634 6.56897835,14.1250135 L6.50647829,14.3281387 C6.02210283,14.3750137 5.35022719,14.4218888 4.47522635,14.4843888 C3.60022552,14.5468889 2.97522492,14.4687638 2.58459955,14.2343886 C2.56897454,13.8281382 2.53772451,12.9218873 2.53772451,11.515636 C2.52209949,10.0937596 2.53772451,8.60938321 2.55334952,7.06250674 C2.56897454,5.51563026 2.60022457,4.10937892 2.6314746,2.84375271 C2.67834964,1.57812651 2.72522469,0.85937582 2.78772475,0.718750685 Z M0.47522254,6.15625587 C0.834597883,5.90625563 1.14709818,5.54688029 1.41272343,5.09375486 C1.6939737,4.64062943 1.99084899,4.31250411 2.27209925,4.12500393 C2.27209925,4.89062966 2.25647424,5.25000501 2.20959919,5.20312996 C2.17834916,5.15625492 2.03772403,5.31250507 1.77209878,5.64063038 C1.61584863,5.82813056 1.42834845,6.10938083 1.17834821,6.48438118 C0.928347972,6.84375653 0.662722719,7.09375677 0.47522254,7.21875688 L0.47522254,6.15625587 Z M11.0689826,4.93750471 C10.8658574,4.64062943 10.7096073,4.10937892 10.8971075,3.79687862 C10.9439825,3.73437856 11.0533576,3.59375343 11.2408578,3.39062823 C11.443983,3.17187802 11.5689831,3.03125289 11.6314832,2.96875283 C11.6002331,3.23437808 11.5221081,3.59375343 11.412733,4.01562883 C11.3033579,4.43750423 11.1939828,4.75000453 11.0689826,4.93750471 Z M2.006474,2.95312782 C2.1158491,2.87500274 2.22522421,2.81250268 2.30334928,2.76562764 C2.24084922,3.43750328 2.22522421,3.76562764 2.24084922,3.73437856 C2.25647424,3.68750352 2.13147412,3.85937868 1.85022385,4.25000405 C1.72522373,4.37500417 1.72522373,4.43750423 1.61584863,4.57812937 C1.3814734,4.89062966 1.3814734,4.95312972 1.11584815,5.23437999 C0.928347972,5.42188017 0.959598002,5.43750519 0.818972868,5.60938035 C0.693972749,5.75000548 0.647097704,5.82813056 0.662722719,5.81250554 C0.678347734,5.79688053 0.615847674,5.81250554 0.47522254,5.8750056 L0.47522254,5.18750495 C0.662722719,4.87500465 0.959598002,4.51562931 1.31897334,4.0937539 C1.66272367,3.6718785 1.8970989,3.29687814 2.006474,2.95312782 Z M2.006474,2.95312782 C1.88147388,3.01562788 1.83459884,3.03125289 1.86584887,3.00000286 C1.91272391,2.96875283 1.86584887,3.01562788 1.74084875,3.140628 L1.28772331,3.84375367 C1.05334809,4.18750399 0.850222898,4.48437928 0.47522254,4.73437952 L0.50647257,4.15625396 C0.693972749,3.9843788 0.990848032,3.65625349 1.3814734,3.17187802 C1.78772379,2.68750256 2.03772403,2.31250221 2.13147412,2.06250197 C2.24084922,2.2031271 2.36584934,2.23437713 2.25647424,2.53125241 C2.17834916,2.71875259 2.1158491,2.75000262 2.006474,2.95312782 Z M10.6627323,3.70312853 C10.6158572,3.46875331 10.6002322,3.3593782 10.6158572,3.37500322 C10.6314822,3.37500322 10.6939823,3.29687814 10.8033574,3.140628 C11.1783577,2.65625253 11.3658579,2.42187731 11.3502329,2.46875235 C11.3502329,2.5156274 11.5377331,2.34375224 11.9283585,1.98437689 C11.8971084,2.18750209 11.7096083,2.50000238 11.3814829,2.95312782 C11.0533576,3.39062823 10.8189824,3.64062847 10.6627323,3.70312853 Z M2.13147412,2.06250197 C1.85022385,2.18750209 1.60022361,2.48437737 1.36584839,2.95312782 C1.11584815,3.40625325 0.803347853,3.71875355 0.50647257,3.89062871 C0.5377226,3.62500346 0.803347853,3.20312805 1.25647329,2.64062752 C1.6939737,2.07812698 2.03772403,1.71875164 2.28772427,1.54687648 C2.27209925,1.7812517 2.17834916,1.92187683 2.13147412,2.06250197 Z M19.6783659,14.3750137 C19.7408659,13.9687633 19.7721159,13.4375128 19.7721159,12.7812622 L19.7721159,11.1250106 C19.7721159,8.23438285 20.0846162,3.40625325 19.9127411,1.1562511 C19.850241,0.453125432 19.6158658,0.109375104 19.2096154,0.0625000596 C18.81899,0.0312500298 18.3033645,0 17.6783639,0 C16.5377379,0 15.4283618,0.0625000596 14.3189857,0.0781250745 C13.3502348,0.0781250745 12.8033593,0.140625134 12.6627342,0.234375224 C12.522109,0.312500298 12.3033588,0.593750566 11.9752335,1.06250101 C11.8502334,1.23437618 11.6002331,1.56250149 11.2408578,2.04687695 C10.8814825,2.5156274 10.6471072,2.78125265 10.5064821,2.84375271 L10.3189819,2.46875235 C10.1314817,1.92187683 9.99085661,1.42187636 9.91273154,0.953125909 C9.83460647,0.468750447 9.5533562,0.187500179 9.06898074,0.125000119 C7.64710438,-0.0781250745 6.4127282,0.0625000596 5.02210188,0.0781250745 C4.39710128,0.0937500894 3.86585077,0.109375104 3.41272534,0.0937500894 C2.97522492,0.0781250745 2.64709961,0.234375224 2.4283494,0.578125551 L0.162722242,3.2500031 C0.115847197,4.31250411 0.131472212,5.54688029 0.209597287,6.93750662 C0.272097346,8.32813294 0.225222302,9.5 0.0689721527,10.453135 C0.0533471378,10.53126 0.0533471378,10.8906354 0.0377221229,11.562511 C0.022097108,12.2343867 0.00647209308,12.9531374 0.00647209308,13.7500131 C-0.00915292182,14.5468889 0.00647209308,15.2812646 0.022097108,15.9218902 C0.0377221229,16.6093908 0.0689721527,17.0156412 0.131472212,17.1406413 C0.5377226,17.859392 3.70960062,17.3906416 4.58460146,17.3125165 C4.66272653,17.1562664 4.91272677,16.8593911 5.31897716,16.4062656 C5.74085256,15.9531402 6.00647782,15.73439 6.14710295,15.6406399 C6.36585316,15.8750151 6.47522826,16.1718904 6.49085328,16.4843907 C6.50647829,16.812516 6.67835346,17.0625163 7.02210378,17.2500165 C7.31897907,17.3593916 7.92835465,17.4375166 8.85023053,17.4531416 C9.77210641,17.4843917 10.365857,17.4062666 10.6314822,17.2187664 L11.6314832,16.2031405 C11.9908585,15.8593901 12.1002336,15.5312648 12.6158591,15.2187645 C12.6158591,17.796892 12.522109,17.3281415 15.662737,17.3281415 L16.7564881,17.3281415 C17.0221133,17.3281415 17.3033636,17.1875164 17.5689888,16.8906411 L18.6783649,15.70314 C19.0064902,15.2031395 19.2408654,14.8281391 19.6783659,14.3750137 Z" id="Shape" fill="#000000" fill-rule="nonzero"></path>
            <path d="M19.8283475,18.859393 C19.7970975,18.3281425 19.7814724,17.828142 19.7970975,17.3437665 C19.8127225,17.0156412 20.1095977,16.5156408 20.6564733,15.8593901 C21.1564737,15.2656396 21.468974,14.9218892 21.5470991,14.8906392 C21.5470991,15.3906392 21.5783491,15.8593901 21.5627241,16.3437656 C21.5627241,16.6250159 21.5314741,16.796891 21.5158491,16.8593911 C21.5002241,16.9218911 21.390849,17.0625163 21.2033488,17.2812665 C20.8127234,17.7031419 20.406473,18.4062676 19.8283475,18.859393 Z M22.6252251,8.03125766 C22.7189752,8.12500775 22.9064754,8.53125766 23.1877257,9.26563384 C23.484601,10.0000095 23.6564761,10.46876 23.7189762,10.7031352 C23.6096011,10.8750104 23.3127258,11.2031357 22.8283503,11.6562611 C22.3439749,12.1093865 22.0314746,12.5000119 21.8908485,12.8437622 C22.0627246,12.7656372 22.1408497,12.7500122 22.0939746,12.7812622 C22.0627246,12.8125122 22.1252247,12.7500122 22.2658498,12.578137 L23.6721011,10.9218854 C23.7971013,11.0156355 23.8439763,11.0312577 23.8127263,10.9843855 C23.7971013,10.9218854 23.8439763,11.0156355 23.9689764,11.2500107 L24.7658522,13.671888 L22.0783496,13.656263 L21.3283489,11.5937611 C21.5470991,11.3437608 21.8283494,11.0468855 22.1877247,10.6875102 C22.5471001,10.3281348 22.8127253,9.98438452 22.9689755,9.67188422 C22.6877252,9.81250936 22.4064749,10.0781346 22.1095997,10.43751 C21.8283494,10.7968853 21.5470991,11.0781356 21.2658489,11.2812608 C21.2033488,11.2187607 21.1408487,11.2656357 20.9845986,10.7656353 C20.8908485,10.453135 20.8908485,10.453135 20.8908485,10.1406347 C20.9064735,10.0781346 21.1564737,9.78125933 21.6564742,9.23438381 C22.1720997,8.68750829 22.4846,8.2812579 22.6252251,8.03125766 Z M22.6252251,8.03125766 C22.437725,8.14063276 22.1877247,8.35938297 21.8908494,8.68750829 C21.5939742,9.00000858 21.375224,9.25000882 21.2345988,9.42188399 C21.1252237,9.57813413 21.0627237,9.67188422 21.0470982,9.70313425 C21.0470982,9.71875927 20.9845986,9.78125933 20.8439734,9.89063443 C20.7033483,9.65625921 20.6720983,9.48438405 20.5470982,9.1250087 C20.6408483,8.93750852 20.8752235,8.54688315 21.3595989,7.95313258 C21.8439744,7.35938202 22.2033497,6.98438166 22.437725,6.84375653 C22.5470982,7.34375653 22.6877252,7.59375724 22.6252251,8.03125766 Z M22.0783496,5.98438071 C22.2033497,6.37500608 22.2345979,6.6093813 22.1720997,6.70313139 C22.1095997,6.79688148 21.9220995,7.07813175 21.5470991,7.50000715 L20.406473,8.79688339 L20.2345979,8.34375796 L22.0783496,5.98438071 Z M27.1721045,6.89063157 C27.2814796,6.71875641 27.4689798,6.45313115 27.734605,6.10938083 C28.0158553,5.7656305 28.2502305,5.53125528 28.4377307,5.40625516 C28.3908556,5.68750542 28.3439806,5.8750056 28.3127306,5.95313068 C28.2971056,6.03125575 28.1877305,6.15625587 28.0002303,6.34375605 C28.1096054,6.67188136 28.1096054,6.87500656 28.0158553,6.95313163 C27.9377302,7.01563169 27.8752302,7.12500679 27.8283551,7.28125694 C27.7658551,7.42188208 27.7814801,7.82813247 27.703355,8.15625778 C27.6721045,8.12500775 27.6096049,8.10938273 27.5314798,8.10938273 C27.4533548,8.10938273 27.5002298,7.90625516 27.68773,7.50000715 C27.4377297,7.53125718 27.3127296,7.51563217 27.2971046,7.45313211 C27.2814796,7.39063205 27.2502296,7.20313187 27.1721045,6.89063157 Z M20.0939727,7.87500751 C19.8439725,7.51563217 20.0470977,7.37500703 20.2814729,7.07813175 C20.4377231,6.89063157 20.6877233,6.54688124 21.0314736,6.06250578 C21.406474,5.57813032 21.6720992,5.29688005 21.7970994,5.25000501 C21.8127244,5.48438023 21.7502243,5.68750542 21.5783491,5.84375557 C21.422099,6.00000572 21.2189738,6.25000501 20.9689736,6.59375629 L20.0939727,7.87500751 Z M27.7658551,9.34375891 C28.1877305,8.17188279 28.4533557,6.85938154 28.8283561,5.62500536 C29.0314813,4.95312972 29.1408564,4.54687934 29.1564814,4.37500417 C29.1721064,4.20312901 29.3596066,4.0937539 29.7033569,4.03125384 C29.9377321,4.00000381 30.3127325,3.9843788 30.828358,3.9843788 C31.3439835,3.96875378 31.7502339,3.96875378 32.0158591,3.96875378 C32.6564847,3.9843788 32.98461,4.03125384 33.000235,4.14062895 C33.0314851,4.25000405 32.968985,4.59375438 32.7814848,5.20312996 L31.0783582,10.6562602 C30.7502329,11.7187612 30.3752325,12.9062623 29.9064821,14.2031385 C29.4533567,15.5000148 28.7033559,16.3593906 27.672105,16.828141 C26.4221038,17.4062666 24.7814772,17.3281415 23.3908509,17.1406413 C22.6252251,17.0312662 22.2033497,16.9218911 22.1095997,16.812516 C22.0158496,16.7031409 21.9689745,16.4687657 21.9845995,16.1250154 C21.9845995,15.8437651 21.9689745,15.4843898 21.9220995,15.0625144 C21.8752244,14.640639 21.9845995,14.3281387 22.2345998,14.1093885 C22.7189752,13.9843883 23.2033507,13.9843883 23.7189762,14.0937634 C24.2346017,14.2031385 24.7189771,14.1093885 25.1721026,13.8281382 C25.1721026,13.671888 25.0471025,13.2187626 24.7971022,12.4531369 C24.547102,11.6875111 24.2502267,10.8437603 23.9221014,9.92188446 C23.5939761,9.00000858 23.2658508,8.09375772 22.9377254,7.21875688 C22.6096001,6.34375605 22.3908499,5.71875545 22.2502248,5.3437551 C22.1408497,5.07812984 22.0783496,4.87500465 22.0470996,4.76562954 C22.0470996,4.75000453 21.9845995,4.50000429 21.9845995,4.43750423 C22.0002246,4.18750399 22.2189748,4.06250387 22.6408502,4.06250387 C23.0783506,4.06250387 23.484601,4.06250387 23.8439763,4.07812889 C24.3752268,4.10937892 24.8127272,4.10937892 25.1408525,4.0937539 C25.4846029,4.06250387 25.7346031,4.20312901 25.8908533,4.51562931 C25.9064783,4.56250435 25.9377283,4.67187946 26.0002284,4.84375462 C26.0783534,5.09375486 26.1721035,5.31250507 26.2346036,5.50000525 C26.4221038,6.06250578 26.656479,6.78125647 26.9221042,7.64063229 C27.1877295,8.50000811 27.4689798,9.06250864 27.7658551,9.34375891 Z M21.6408492,13.8281382 C21.3283489,14.3437637 20.9064735,14.8125141 20.5470982,15.2968896 C19.281472,16.8750161 19.343972,16.5781408 19.3908471,19.0312681 C19.4064721,19.4843936 19.5314722,19.7656438 19.7658474,19.875019 C20.0002226,19.9843941 20.328348,20.0781441 20.7658484,20.1562692 C22.0783496,20.4062695 23.7502262,20.5000196 25.1096025,20.0625191 C25.8596032,19.8281439 26.3752287,19.5156436 26.703354,19.1250182 C27.0158543,18.7500179 27.3596047,18.2968924 27.7814801,17.812517 L28.9221062,16.5000157 C29.2971065,16.1562654 29.6564819,15.6562649 30.0002322,14.9218892 C30.3439825,14.1875135 30.6564828,13.3750128 30.9533581,12.5156369 C31.5627337,10.7812603 32.0471091,8.93750852 32.4221095,7.75000739 C32.5627346,7.31250697 32.7658598,6.65625635 33.0471101,5.78125551 C33.3439854,4.90625468 33.4377355,4.23437904 33.3283604,3.78125361 C32.7814848,3.48437832 29.765857,3.37500322 29.1096063,3.78125361 L27.4689798,5.71875545 C27.2033545,6.03125575 27.2346045,6.10938083 26.9846043,6.28125599 C26.8439792,6.04688077 26.703354,5.71875545 26.5627289,5.28125504 C26.4377288,4.84375462 26.3283537,4.48437928 26.2033536,4.20312901 C26.0471034,3.82812865 25.6877281,3.65625349 25.1721026,3.68750352 C24.6564771,3.70312853 24.2189767,3.68750352 23.8439763,3.6718785 C22.6564752,3.60937844 21.9845995,3.6718785 21.8127244,3.84375367 C21.6408492,4.01562883 21.2970989,4.37500417 20.8127234,4.98437975 C20.2658479,5.68750542 19.8908475,6.1875059 19.6564723,6.43750614 C19.4220971,6.68750638 19.359597,7.06250674 19.4689721,7.56250721 C19.4689721,7.57813223 19.5783472,7.89063253 19.8127225,8.50000811 C20.0314727,9.09375867 20.2814729,9.76563431 20.5470982,10.50001 C20.7970984,11.2343857 21.0158486,11.9375114 21.2502238,12.609387 C21.4845991,13.2812627 21.6252242,13.6875131 21.6408492,13.8281382 Z" id="Shape" fill="#000000" fill-rule="nonzero"></path>
            <path d="M35.4470998,17.2187664 L36.9314762,15.4843898 C37.1033514,15.2812646 37.1814764,15.1562645 37.2127265,15.0937644 C37.2439765,15.0156393 37.3846016,14.9843893 37.6189768,15.0000143 C37.6033518,15.1875145 37.4783517,15.4218897 37.2283515,15.687515 C36.9939763,15.9062652 36.8221011,16.0937653 36.697101,16.2031405 C36.1814755,16.6562659 35.9158502,16.9531412 35.8846002,17.0781413 C35.8533502,17.2187664 35.712725,17.2656415 35.4470998,17.2187664 Z M34.9470993,17.0312662 L34.650224,16.8906411 C34.6970991,16.7187659 34.8845992,16.4218907 35.2908496,15.9687652 C35.681475,15.5625148 35.9939753,15.2187645 36.1971005,14.9843893 C36.3377256,14.8125141 36.4314757,14.703139 36.4939758,14.656264 C36.5564758,14.5937639 36.712726,14.6250139 36.9627262,14.7343891 C36.8689761,14.9375142 36.5408508,15.3437646 35.9939753,15.9375152 C35.4470998,16.5781408 35.1033494,16.9375162 34.9470993,17.0312662 Z M44.1346081,16.6093908 C44.2596082,16.2500155 44.6971086,15.8593901 44.9471088,15.5625148 C45.118984,15.3593896 45.2439841,15.1562645 45.3533592,14.9843893 C45.4627343,14.7968891 45.6971096,14.671889 46.0564849,14.6250139 C45.6658595,15.4218897 44.8846088,16.2343905 44.1346081,16.6093908 Z M35.8689752,14.1093885 L36.2127255,14.2656386 C36.1346004,14.4687638 35.9002252,14.7968891 35.5095998,15.2187645 C35.1189745,15.6406399 34.8533492,15.9062652 34.681474,16.0937653 C34.4158488,16.3906406 34.4783489,16.4843907 34.1033485,16.5312658 C34.0720985,16.2343905 34.3377237,15.8593901 34.8845992,15.3906397 C35.4470998,14.8906392 35.7596001,14.4531388 35.8689752,14.1093885 Z M35.8689752,14.1093885 C35.5877249,14.2500136 35.2439746,14.6093889 34.8220992,15.2187645 C34.4158488,15.8281401 34.0564734,16.1250154 33.7908482,16.2343905 C33.618973,15.8437651 34.0095984,15.4843898 34.4470988,14.9218892 C34.587724,14.7500141 34.7752241,14.5156388 35.0095994,14.2500136 C35.2439746,13.9843883 35.4627248,13.7968882 35.66585,13.7031381 C35.72835,13.7968882 35.7908501,13.9375133 35.8689752,14.1093885 Z M34.8533492,12.9531374 L35.0877244,12.9531374 C35.1502245,13.2812627 35.2127246,13.3281377 35.3845997,13.5156379 C35.2752246,13.7031381 33.7283481,15.750015 33.4158478,15.8593901 C33.2908477,15.6250149 33.1658476,15.4687648 33.0408475,15.2031395 C33.2908477,14.8281391 33.634598,14.4218888 34.0408475,14.0000134 C34.4939739,13.5625129 34.7752241,13.2187626 34.8533492,12.9531374 Z M34.8533492,12.9531374 C34.665849,13.0312624 34.3533487,13.3593877 33.9314733,13.9062633 C33.4783479,14.4531388 33.1189726,14.7968891 32.9002223,14.9375142 C32.4002219,14.1250135 32.3064718,13.7031381 32.8845973,13.0781375 C33.0564725,12.9062623 33.3220977,12.625012 33.6502231,12.2500117 C33.9783484,11.8750113 34.1658486,11.6562611 34.3220987,11.5937611 C34.5095989,12.0468865 34.8064742,12.4375119 34.8533492,12.9531374 Z M34.9314743,10.1718847 C35.1033494,9.81250936 35.1345995,9.78125837 35.3689747,9.45313402 L35.8533502,8.78125837 L36.3064756,9.0156336 L35.7596001,9.73438428 C35.6033499,9.93750948 35.5095998,10.0625096 35.4627248,10.1093846 C35.4158497,10.1562597 35.2439746,10.1718847 34.9314743,10.1718847 Z M33.6502231,10.8593854 C33.572098,10.6093851 33.634598,10.6093851 33.9158483,10.1718847 C34.0720985,9.92188446 34.1345985,9.82813437 34.3220987,9.53125909 C34.4158488,9.40625897 34.5720989,9.18750876 34.7752241,8.87500846 C34.9783493,8.56250817 35.1502245,8.35938297 35.2908496,8.2812579 L35.5252248,8.48438309 C35.4627248,8.64063324 35.3220997,8.85938345 35.1033494,9.15625873 C34.8845992,9.45313402 34.7283491,9.67188422 34.618974,9.82813437 C34.1189735,10.5468851 33.9158483,10.9218854 33.9002233,10.9375104 C33.8845983,10.9531354 33.8064732,10.9375104 33.6502231,10.8593854 Z M33.2283477,10.4062599 C32.9783474,10.0312596 33.3064727,9.73438428 33.8845983,9.03125861 C34.1345985,8.71875831 34.4783489,7.98438261 34.9627243,7.78125742 C34.9470993,8.00000763 34.7283491,8.390633 34.3533487,8.93750852 C33.9939734,9.48438405 33.7283481,9.89063443 33.5252229,10.1250097 L33.2283477,10.4062599 Z M32.8533473,9.93750948 C32.7752222,9.70313425 32.7595972,9.57813413 32.7752222,9.53125909 C32.7908472,9.48438405 32.8845973,9.37500894 33.0564725,9.20313378 C33.3064727,8.96875855 33.3533478,8.82813342 33.556473,8.5937582 L34.618974,7.35938202 C34.7283491,7.57813223 34.618974,7.85938202 34.3064737,8.18750781 C34.0095984,8.51563312 33.7595982,8.89063348 33.4627229,9.28125885 C33.2283477,9.59375915 33.1814726,9.73438428 32.8533473,9.93750948 Z M32.540847,8.7031333 C32.6970972,8.53125814 33.0095975,8.12500775 33.4627229,7.46875712 C33.9158483,6.8125065 34.1658486,6.43750614 34.3220987,6.32813103 L34.4939739,7.14063181 C34.2439736,7.37500703 33.9783484,7.76563241 33.618973,8.29688291 C33.2439727,8.82813103 32.9002223,9.17188375 32.6033471,9.31250888 L32.540847,8.7031333 Z M34.1814736,4.35937916 C34.0095984,4.79687957 33.7908482,5.07812984 33.540848,5.43750519 C33.3220977,5.78125551 32.9627224,6.1875059 32.8377223,6.42188112 C32.8845973,6.03125575 33.0877225,5.62500536 33.4158478,5.21875498 C33.7439732,4.79687957 34.0095984,4.51562931 34.1814736,4.35937916 Z M34.1814736,4.35937916 C34.2439736,4.20312901 34.2752237,4.12500393 34.2595986,4.14062895 L34.4470988,3.95312877 C34.4470988,4.25000405 34.3533487,4.76562954 34.3377237,5.15625492 C34.3220987,5.60938035 34.2908487,5.8750056 34.3064737,5.95312877 C34.3220987,6.03125575 34.2127236,6.1875059 34.0095984,6.46875617 L32.587722,8.31250793 C32.4783469,7.81250745 32.509597,7.40625706 32.7127222,7.10938178 C32.9158474,6.79688148 33.0877225,6.5000062 33.2908477,6.20313092 C33.6970981,5.59375533 34.0095984,4.93750471 34.4470988,4.50000429 C34.3533487,4.39062919 34.3533487,4.32812913 34.4314738,4.2968791 C34.5095989,4.26562907 34.4314738,4.28125408 34.1814736,4.35937916 Z M40.3221044,10.6406351 C40.5096046,10.8125103 40.6658548,10.9687605 40.7908549,11.1406356 C40.93148,11.2968858 41.1814802,11.3750108 41.5564806,11.4218859 C42.009606,11.4687609 42.3377313,11.484386 42.5252315,11.4375109 C42.7127317,11.3750108 42.9471069,11.2187607 43.2283572,10.9843855 C43.2908573,10.4218849 43.1346071,10.0937596 42.7752318,10.0156346 C42.4158564,9.93750948 42.009606,9.87500942 41.5564806,9.82813437 C38.5721028,9.5468841 34.5252239,9.17188375 34.6970991,5.46875522 C34.7283491,4.59375438 34.8533492,3.82812865 35.2127246,3.140628 C35.681475,2.26562716 36.4471007,1.60937653 37.5564768,1.1562511 C38.6658528,0.703125671 39.853354,0.468750447 41.1033552,0.453125432 C42.3533564,0.421875402 43.5564825,0.593750566 44.6971086,0.984375939 C45.8377347,1.3593763 46.6814855,1.93750185 47.212736,2.71875259 C48.0564868,3.96875378 48.228362,4.65625444 47.7283615,4.76562954 C47.228361,4.87500465 46.4158602,4.90625468 45.2908592,4.84375462 C45.0564839,4.8281296 44.5877335,4.8281296 43.8846078,4.81250459 C43.1814822,4.79687957 42.7752318,4.76562954 42.6502316,4.70312949 C42.3064813,4.57812937 42.0408561,4.4062542 41.8689809,4.17187898 C41.6971057,3.93750376 41.2908553,3.84375367 40.6502297,3.89062871 C40.1502293,3.93750376 39.837729,4.12500393 39.6971038,4.45312925 C39.5721037,4.78125456 39.7127288,5.0312548 40.1189792,5.21875498 C40.3064794,5.31250507 40.6658548,5.40625516 41.2127303,5.50000525 C41.7596058,5.57813032 42.1814812,5.62500536 42.4471065,5.67188041 C43.1971072,5.78125551 43.9939829,5.92188065 44.8377337,6.06250578 C45.6814845,6.1875059 46.3533602,6.43750614 46.8689857,6.85938154 C47.9471117,7.73438238 48.4627372,9.29688387 48.290862,10.7812603 C48.2127369,11.515636 47.9783617,12.2187617 47.5721113,12.8593873 C47.181486,13.5000129 46.6189854,13.9687633 45.8846097,14.2656386 C44.7439836,14.7500141 42.8689819,15.0781394 41.0564801,15.0937644 C40.1502293,15.1093894 39.2908534,15.0312643 38.4627277,14.8750142 C37.6346019,14.718764 36.9939763,14.4375138 36.5252258,14.0625134 C35.9627253,13.609388 35.4470998,13.0000124 34.9783493,12.1718866 C34.5095989,11.3437608 34.4783489,10.8437603 34.8845992,10.6562602 C34.9158493,10.6406351 35.1814745,10.6406351 35.6971,10.6406351 C36.2127255,10.6250101 36.775226,10.6250101 37.4158517,10.6250101 C38.0564773,10.6250101 38.6502278,10.6406351 39.2283534,10.6406351 L40.3221044,10.6406351 Z M47.1346109,6.46875617 C47.3846112,6.03125575 47.9627367,5.5625053 48.1502369,5.12500489 C48.4314872,4.50000429 48.259612,3.8750037 47.9939867,3.28125313 C46.3846102,-0.328125313 41.1033552,-0.375000358 37.9939772,0.546875522 C37.2908515,0.750000715 36.743976,1.01562597 36.3533506,1.31250125 C35.9627253,1.59375152 35.5408499,1.90625182 35.1814745,2.34375224 L33.2439727,4.79687957 C32.493972,5.73438047 32.1345966,6.96875665 32.1502216,8.390633 C32.1658466,9.81250936 32.6814721,10.7968853 33.7127231,11.3437608 C33.6658481,11.484386 33.4939729,11.7500112 33.2283477,12.1406366 C32.9470974,12.531262 32.7595972,12.7500122 32.6502221,12.8281372 C32.509597,12.9531374 32.3845969,13.0312624 32.3064718,13.0625125 C32.2127217,13.0937625 32.1502216,13.2500126 32.1033466,13.5312629 C32.0877216,13.8281382 32.1345966,14.1406385 32.2595967,14.4843888 C33.7752232,18.5781427 38.790853,18.4843926 42.4627315,17.6250168 C43.7596077,17.3281415 44.6189835,16.9218911 45.0096089,16.4531407 C45.4002343,16.0000153 45.9158598,15.4062647 46.5408604,14.5781389 C46.9002357,14.1250135 47.3377361,13.8906382 47.6971115,13.3906378 C48.259612,12.609387 48.5564873,11.7031362 48.6502374,10.6562602 C48.7439875,9.60938416 48.5877373,8.65625826 48.1658619,7.79688244 C48.0408618,7.56250721 47.9002367,7.29688196 47.6814864,7.06250674 L47.1346109,6.46875617 Z" id="Shape" fill="#000000" fill-rule="nonzero"></path>
            <path d="M55.5346042,16.9843912 C55.5189792,16.5625158 55.5189792,16.2187655 55.5033542,15.9843902 C55.5033542,15.7968901 55.5971043,15.5625148 55.8002295,15.3125146 C56.0346047,15.0312643 56.30023,14.6250139 56.6283553,14.1093885 C56.9564806,13.593763 57.1908558,13.2656377 57.347106,13.1562625 L57.3158559,13.8593882 C57.2689809,14.8125141 57.9096065,14.4062637 56.0971048,16.4375157 C55.9564796,16.6093908 55.8471045,16.6875159 55.8314795,16.734391 C55.8158545,16.781266 55.7221044,16.8750161 55.5346042,16.9843912 Z M62.8939862,16.8906411 C62.7846111,15.76564 62.8158612,15.0468893 63.0189864,14.7968891 C63.2221116,14.5312639 63.5658619,14.0312634 64.0658624,13.2812627 C64.2064875,13.0625125 64.3002376,12.9062623 64.3471126,12.8281372 C64.3939877,12.7343871 64.5189878,12.609387 64.706488,12.4531369 C64.5814879,14.7656391 64.8939882,14.3281387 64.0189873,15.5781399 C63.643987,16.0781403 63.3783617,16.5000157 62.8939862,16.8906411 Z M57.2533559,11.2968858 C57.362731,11.3906359 57.409606,11.5937611 57.409606,11.9062614 C57.409606,12.2187617 57.393981,12.4531369 57.362731,12.609387 C57.3314809,12.7031371 57.0814807,13.1250125 56.6127303,13.8593882 C56.1439798,14.5937639 55.8002295,15.0625144 55.5658543,15.2500145 C55.5189792,12.8750123 56.5033552,13.1250125 57.2533559,11.2968858 Z M64.6439879,11.0468855 C64.8627381,11.4375109 64.8158631,11.8593863 64.5033628,12.3281368 C64.2064875,12.7968872 63.8939872,13.2500126 63.5814869,13.6875131 C63.4564868,13.8750132 63.4252368,13.9531383 63.3002366,14.0781384 L62.9408613,14.4687638 C62.9252363,13.4687628 63.1283615,12.8281372 63.5658619,12.5468855 C64.0033623,12.2500117 64.3627376,11.7500112 64.6439879,11.0468855 Z M49.7689737,12.5156369 L49.9095989,12.4062618 L50.003349,12.3593868 C50.003349,13.2500126 49.9252239,13.9843883 50.1752241,14.7500141 C50.1439741,14.7812641 50.1283491,14.7968891 50.1283491,14.8125141 C50.1283491,14.7968891 50.1127241,14.8125141 50.065849,14.8593892 L48.3783474,16.8437661 C48.3783474,16.8437661 48.3470974,16.828141 48.3314724,16.828141 C48.2220973,16.3437656 48.2689723,15.6562649 48.2845973,15.0937644 C48.3002223,14.5781389 48.7377227,14.1718847 48.9252229,13.7500131 C48.8783479,13.7968882 48.8470979,13.8125132 48.8627229,13.7968882 L48.6595977,14.0468884 C48.5502226,14.1562635 48.4252225,14.2343886 48.2845973,14.3125136 C48.2845973,13.640638 48.2845973,13.2031376 48.3002223,12.9843874 C48.3002223,12.7656372 48.4564725,12.4218868 48.8002228,11.9531364 C48.9252229,11.7812612 49.1595982,11.500011 49.4252234,11.0937606 C49.6752236,10.6718847 49.8314738,10.3750099 49.8783488,10.1718847 L50.065849,10.2343848 C50.050224,10.6718847 50.050224,11.0781356 50.034599,11.4531359 C50.018974,11.8593863 49.9720989,12.0781365 49.9252239,12.0937615 C49.8939739,12.1093865 49.8470988,12.2500117 49.7689737,12.5156369 Z M57.2533559,11.2968858 C57.0033556,11.4375109 56.7221054,11.7812612 56.4252301,12.3125117 C56.1283548,12.8437622 55.8627295,13.2500126 55.6127293,13.5156379 C55.5971043,13.1093875 55.6596043,12.7968872 55.8314795,12.562512 C56.0033547,12.3281368 56.1908549,12.0468865 56.378355,11.7500112 C56.6908553,11.2500107 56.9877306,10.6406351 57.362731,10.1562597 C57.378356,10.7187602 57.440856,10.8593854 57.2533559,11.2968858 Z M64.6439879,11.0468855 C64.2846126,11.1718857 64.1596125,11.484386 63.7846121,12.0000114 C63.6127369,12.2343867 63.5346119,12.3281368 63.4096117,12.5156369 C63.2377366,12.7500122 63.1596115,12.8750123 63.1752365,12.8593873 C63.1908615,12.8437622 63.1127365,12.9062623 62.9252363,13.0156374 C62.9252363,12.593762 62.9408613,12.3750118 62.9721113,12.3281368 C63.0033614,12.2812617 63.2533616,11.9531364 63.706487,11.3593858 C63.8939872,11.1093856 63.9877373,11.0156355 64.1908625,10.7187602 C64.4408627,10.3437599 64.5346128,10.1718847 64.4877378,10.1875097 C64.4408627,10.2031347 64.5346128,10.1406347 64.753363,10.0312596 L64.6439879,11.0468855 Z M55.6283543,12.578137 C55.5033542,12.1250116 55.5033542,11.8125113 55.6283543,11.6093861 C55.7533544,11.4062609 55.9252296,11.1406356 56.1439798,10.8437603 C56.5033552,10.3437599 56.8471055,9.62500918 57.3002309,9.25000882 C57.378356,9.62500918 57.362731,9.8593844 57.2689809,9.95313449 C57.1908558,10.0468846 56.9721056,10.3906349 56.6283553,10.9843855 C56.315855,11.546886 56.0033547,12.0937615 55.6283543,12.578137 Z M62.8939862,11.9531364 C62.8939862,11.3750108 63.3627367,10.9843855 63.675237,10.5468851 C63.8783622,10.2500098 63.9096122,10.1562597 64.1283624,9.87500942 L64.6439879,9.23438381 C64.7846131,9.60938416 64.690863,9.95313449 64.3783627,10.2500098 C64.0814874,10.5468851 63.7533621,10.9375104 63.4252368,11.4062609 C63.3002366,11.5937611 63.3314867,11.578136 63.1908615,11.7500112 C63.0502364,11.9062614 63.0033614,11.9687614 63.0346114,11.9375114 C63.0814864,11.8906363 63.0346114,11.9062614 62.8939862,11.9531364 Z M49.8783488,10.1718847 C49.5970986,10.3281348 49.3783484,10.6406351 49.1439731,11.1093856 C48.8939729,11.578136 48.6283476,11.9218864 48.3470974,12.1562616 C48.2689723,11.3593858 48.3470974,10.7812603 48.5502226,10.43751 C48.7533478,10.0781346 49.1595982,9.48438405 49.7064737,8.65625826 L50.081474,8.23438285 C50.081474,8.98438357 50.050224,9.62500918 49.8783488,10.1718847 Z M55.2064789,10.6718852 C55.6439793,10.4218849 55.9877297,10.0156346 56.2377299,9.437509 C56.4877301,8.85938345 56.7533554,8.48438309 57.0189806,8.2812579 C57.1439808,8.54688315 57.1752308,8.7031333 57.1283558,8.75000834 C57.0814807,8.79688339 57.0033556,8.92188351 56.8627305,9.10938369 L55.3783541,11.2343857 L55.2064789,10.6718852 Z M64.3002376,8.18750781 C64.4096127,8.2812579 64.4721128,8.32813294 64.4721128,8.34375796 C64.4721128,8.35938297 64.4877378,8.43750805 64.5346128,8.5937582 C64.5033628,8.65625826 63.1283615,10.8437603 62.7221111,11.0937606 L62.5658609,10.6250101 L64.3002376,8.18750781 Z M48.3627224,10.2500098 C48.3002223,9.71875927 48.3314724,9.34375891 48.4720975,9.10938369 C48.5970976,8.87500846 48.7689728,8.5937582 48.972098,8.31250793 L49.9095989,6.98438166 C49.9564739,6.93750662 49.9720989,6.93750662 49.9720989,6.96875665 L50.097099,6.96875665 L50.081474,7.9687576 C49.7533487,8.26563288 49.4720984,8.64063324 49.2533482,9.09375867 C49.003348,9.5468841 48.6908477,9.93750948 48.3627224,10.2500098 Z M54.0814778,14.5937639 C53.6752275,14.7812641 53.1127269,14.8750142 52.3939762,14.8906392 C51.6908506,14.8906392 51.112725,14.8281391 50.6752246,14.718764 C50.4408494,14.2656386 50.3470993,13.4687628 50.3783493,12.3281368 C50.4252244,11.1875107 50.4564744,10.3125098 50.4877244,9.70313425 C50.5345995,8.54688315 50.3470993,5.15625492 50.6752246,4.37500417 L54.0033528,4.34375414 L54.237728,4.89062966 C54.6596034,4.84375462 55.0658538,4.68750447 55.4408541,4.39062919 C55.8158545,4.0937539 56.5658552,3.96875378 57.7064813,4.04687886 C58.5346071,4.0937539 59.472108,4.42187922 60.1439836,4.81250459 C61.53461,5.60938035 60.4564839,5.3437551 62.5346109,4.48437928 C63.4408618,4.10937892 64.4721128,3.96875378 65.6127388,4.07812889 C66.7689899,4.18750399 67.6127407,4.64062943 68.1283662,5.4531302 C68.5346166,6.10938083 68.7689919,6.75000644 68.8158669,7.39063205 C68.8627419,8.03125766 68.893992,8.76563336 68.893992,9.60938416 C68.893992,11.0156355 68.893992,12.0781365 68.940867,12.8125122 C68.972117,13.5312629 68.972117,14.0468884 68.893992,14.3437637 C68.8314919,14.640639 68.6752418,14.7968891 68.4252415,14.8125141 C68.1752413,14.8281391 67.7689909,14.7968891 67.2064904,14.7812641 C66.5814898,14.7500141 65.784614,14.8125141 65.2377385,14.6093889 C65.0502383,14.1718885 64.9877382,13.5468879 65.0502383,12.7187621 C65.1283634,11.8906363 65.1596134,11.0625106 65.1752384,10.2656348 C65.1908634,9.45313402 65.0814883,8.76563336 64.8627381,8.18750781 C64.6596129,7.60938226 64.1752375,7.32813199 63.4252368,7.39063205 C62.7221111,7.43750709 62.2377356,7.76563241 61.9877354,8.31250793 C61.7533602,8.85938345 61.612735,9.50000906 61.56586,10.2500098 C61.53461,11.0000105 61.53461,11.7812612 61.581485,12.593762 C61.62836,13.4062628 61.581485,14.1093885 61.4564849,14.687514 C60.4564839,14.8906392 59.3314829,14.8437642 58.2689818,14.8437642 C57.8314814,14.7656391 57.6439812,14.2500136 57.7221063,13.3125127 C57.8002314,12.3750118 57.8471064,11.546886 57.8314814,10.8437603 C57.8158564,10.1875097 57.7533563,9.46875903 57.6127312,8.7031333 C57.4721061,7.93750757 57.0814807,7.50000715 56.4408551,7.40625706 C55.6908544,7.29688196 55.0814788,7.62500727 54.7533535,8.00000763 C54.268978,8.56250817 54.237728,9.87500942 54.237728,11.2031357 C54.253353,12.531262 54.3158531,13.9062633 54.0814778,14.5937639 Z M48.3627224,8.37500799 C48.3627224,8.25000787 48.4877225,8.01563264 48.7220977,7.68750733 C48.956473,7.343757 49.1439731,7.10938178 49.2220982,6.98438166 L50.034599,5.70313044 C50.034599,5.68750542 50.065849,5.67188041 50.1283491,5.64063038 C50.065849,6.26563098 49.9877239,6.62500632 49.9095989,6.73438142 C49.8314738,6.82813151 49.6439736,7.04688172 49.4095984,7.40625706 C49.2845983,7.57813223 49.1283481,7.82813247 48.9252229,8.14063038 C48.7220977,8.43750805 48.5502226,8.65625826 48.3783474,8.79688339 L48.3627224,8.37500799 Z M48.3783474,7.79688244 C48.3783474,7.51563217 48.3939724,7.343757 48.4252225,7.26563193 C48.4408475,7.18750685 48.5189725,7.06250674 48.6439727,6.85938154 C48.8158478,6.6093813 49.0814731,6.25000596 49.3783474,5.7656305 C49.6595986,5.28125504 49.8939739,4.96875474 50.097099,4.81250459 C50.081474,5.25000501 49.8627238,5.79688053 49.4252234,6.43750614 C49.003348,7.07813175 48.6283476,7.53125718 48.3783474,7.79688244 Z M54.6752284,10.9062604 C54.9721037,11.1718857 55.0346038,11.484386 55.0971038,11.9843864 C55.1596039,12.3750118 55.1908539,12.8281372 55.1908539,13.1875126 C55.2221039,14.3125136 55.1908539,15.2031395 55.1283538,15.8593901 C55.0658538,16.4687657 55.0971038,16.9531412 55.2221039,17.2812665 C55.3471041,17.6093918 55.6439793,17.812517 56.0971048,17.859392 C56.5502302,17.9218921 57.3158559,17.9218921 58.3783569,17.828142 C58.9877325,17.781267 59.3627329,17.7031419 59.472108,17.6250168 C59.5971081,17.5468917 59.8158583,17.3125165 60.1439836,16.9062661 C60.518984,16.4218907 60.9721094,15.9218902 61.3158597,15.4687648 C61.4564849,15.2812646 61.4564849,15.1875145 61.56586,15.0468893 C61.8002352,14.7343891 61.9096103,14.5312639 61.9252353,14.4531388 C61.9408603,14.3593887 61.9564854,14.0156384 62.0033604,13.4218878 C62.0502354,12.609387 62.0346104,11.6875111 62.0502354,10.8125103 C62.1283605,10.9218854 62.1127355,10.8750104 62.2377356,11.0156355 C62.2533606,11.0468855 62.2846107,11.0937606 62.3158607,11.1562606 C62.4564858,11.484386 62.5189859,12.0312615 62.5189859,12.7812622 L62.5189859,14.4218888 C62.5189859,15.5000148 62.4721108,16.1093904 62.4096108,16.3750156 C62.3471107,16.6406409 62.5189859,17.0781413 62.9096113,17.7187669 C63.3471117,17.7187669 63.9877373,17.7500169 64.8314881,17.812517 C65.6752389,17.8906421 66.2689895,17.875017 66.6283648,17.781267 C66.86274,17.7187669 67.0502402,17.5937668 67.1752403,17.3906416 C67.3002405,17.1875164 67.4408656,17.0156412 67.6127407,16.8750161 C67.831491,16.6562659 68.1439913,16.2812655 68.5346166,15.7968901 C68.940867,15.2500145 69.1752422,14.9062642 69.2377423,14.7500141 C69.3002424,14.5937639 69.3314924,14.3125136 69.3158674,13.9062633 C69.3002424,13.5000129 69.3002424,13.1875126 69.3002424,12.9687624 C69.3002424,11.3281358 69.4252425,9.34375891 69.2064923,7.6562573 C68.9877421,5.96875569 68.4252415,4.54687934 67.0033652,4.00000381 C66.0189892,3.62500346 64.706488,3.46875331 63.5814869,3.71875355 C62.9721113,3.84375367 62.5033609,4.03125384 62.1596105,4.23437904 C61.8158602,4.43750423 61.4096098,4.64062943 60.9564844,4.81250459 C59.7533583,4.17187898 58.7377323,3.78125361 57.8783565,3.64062847 C57.0346057,3.50000334 55.9252296,3.71875355 54.5658533,4.31250411 C54.1596029,4.03125384 53.8627276,3.90625373 53.6908525,3.92187874 C53.5189773,3.93750376 53.143977,3.93750376 52.5502264,3.93750376 C51.7377256,3.93750376 50.9564749,3.92187874 50.1908491,3.90625373 L48.5033475,6.28125599 C48.0658471,6.89063157 47.8783469,7.43750709 47.925222,7.89063253 C47.972097,8.34375796 47.972097,8.98438357 47.925222,9.82813437 C47.8627219,11.1406356 47.8783469,12.6562621 47.8783469,13.9687633 C47.8783469,15.2031395 47.8783469,15.5937649 47.8939719,15.9062652 C47.909597,16.2812655 47.972097,16.6250159 48.1127222,17.7500169 C48.6752227,17.7500169 49.2064732,17.781267 49.6752236,17.843767 C50.1908491,17.9062671 50.7689747,17.8906421 51.4096003,17.781267 C51.7377256,17.7187669 51.9564758,17.6406418 52.0346009,17.5625167 C52.128351,17.4843917 52.2533511,17.3125165 52.4252263,17.0312662 L53.9564777,15.1406394 C54.206478,14.9687643 54.3627281,14.8593892 54.4408532,14.8281391 C54.5189783,14.7812641 54.5658533,14.5468889 54.6127284,14.1093885 C54.6439784,13.6875131 54.6596034,13.1718876 54.6596034,12.562512 C54.6596034,11.9531364 54.6596034,11.3906359 54.6752284,10.9062604 Z" id="Shape" fill="#000000" fill-rule="nonzero"></path>
            <path d="M79.231482,16.6562659 L80.5596082,15.0781394 C80.6064833,15.0312643 80.7002334,14.9687643 80.8408585,14.9062642 C81.0439837,14.8281391 81.1377338,14.8125141 81.1221088,14.8437642 C81.1064837,14.8750142 81.1064837,14.9062642 81.1533588,14.9218892 C81.1533588,14.9531393 80.9189836,15.2187645 80.4502331,15.70314 C79.9971077,16.1406404 79.5908573,16.4843907 79.231482,16.6562659 Z M71.5752247,16.8593911 C71.6533497,16.6250159 71.8408499,16.3125156 72.1846002,15.9062652 C72.5127256,15.5468898 72.7783508,15.2500145 72.934601,15.0625144 C73.1221011,14.8125141 73.2471013,14.7812641 73.4502264,14.4843888 L73.8721018,14.640639 C73.7783518,14.8281391 73.4346014,15.2343895 72.8408509,15.8593901 C72.2471003,16.4531407 71.8252249,16.796891 71.5752247,16.8593911 Z M72.7627258,14.0156384 L73.1064761,14.2031385 C73.028351,14.3906387 72.8721009,14.6250139 72.6533507,14.8906392 C72.4502255,15.1562645 72.2783503,15.3593896 72.1377252,15.5156384 C71.5752247,16.0937653 71.3408494,16.6406409 71.0127241,16.4687657 C70.7158488,16.2968905 72.4658505,14.2187636 72.7627258,14.0156384 Z M70.1377233,15.5625148 C70.2627234,15.5000148 70.3877235,15.3437646 70.5752237,15.0937644 C70.7627239,14.8281391 70.903349,14.640639 71.0127241,14.5000138 C71.3252244,14.0781384 71.6064747,13.671888 71.981475,13.2968877 L72.4033504,13.640638 C72.2158503,14.1406385 71.8095999,14.5000138 71.5127246,14.8906392 C71.2002243,15.3281396 70.887724,15.8437651 70.5127236,16.0468903 L70.1377233,15.5625148 Z M70.1377233,15.5625148 C69.9970982,15.4375147 69.9189731,15.3750147 69.9033481,15.3593896 C69.887723,15.3437646 69.825223,15.2500145 69.7470979,15.0781394 C69.887723,14.7968891 70.1845983,14.4218888 70.5595987,13.9687633 C70.9814741,13.5000129 71.2939744,13.0625125 71.4970996,12.6718871 L71.90335,13.0781375 C71.7470979,13.2656377 71.4189745,13.6875131 70.903349,14.3281387 C70.3877235,14.9687643 70.1689733,15.3750147 70.1377233,15.5625148 Z M69.7314729,14.7968891 C69.4033476,14.5312639 69.3564725,14.2187636 69.2783475,13.7187631 C69.5439727,13.625013 69.856473,13.3281377 70.1689733,12.8125122 C70.4658486,12.2968867 70.7627239,11.8906363 71.0908492,11.562511 L71.4814746,12.4218868 C71.1064742,12.9687624 70.7783475,13.4062628 70.5127236,13.7187631 C70.2627234,14.0156384 70.0283482,14.3750137 69.7314729,14.7968891 Z M69.2002224,13.625013 C69.1689724,13.3593877 69.1220973,12.9531374 69.0752223,12.4062618 C69.0283472,11.8593863 69.0283472,11.4531359 69.0908473,11.1718857 C69.1377223,10.9843855 69.4189726,10.5468851 69.887723,9.87500942 C70.3408485,9.18750876 70.6533488,8.75000834 70.8095989,8.56250817 C70.918974,9.1250087 70.840849,9.73438428 70.903349,10.2968848 C70.934599,10.6718852 70.9658491,10.9218854 71.0127241,11.0312605 C71.0595992,11.1406356 71.0127241,11.3437608 70.8095989,11.5937611 L69.2002224,13.625013 Z M83.6689862,9.51563407 C83.465861,11.6718861 82.8408604,13.1406375 81.7627344,13.9375133 C80.6846083,14.718764 79.1377319,15.0468893 77.1221049,14.9062642 C75.1689781,14.7812641 73.6533516,14.2812636 72.6064756,13.3906378 C71.5595996,12.5000119 71.1064742,10.9843855 71.2158493,8.84375843 C71.3095994,7.10938178 71.8095999,5.85938059 72.7471008,5.06250483 C73.6846017,4.26562907 74.7627277,3.78125361 75.9658538,3.62500346 C77.16898,3.45312829 78.3721061,3.54687838 79.5439823,3.8750037 C80.7158584,4.20312901 81.6064842,4.62500441 82.1846098,5.1406299 C82.6064852,5.53125528 82.9658605,6.17188089 83.2939858,7.06250674 C83.6064861,7.93750757 83.7471113,8.75000834 83.6689862,9.51563407 Z M69.6845979,8.96875855 C69.7470979,8.79688339 69.793973,8.71875831 69.809598,8.7031333 C69.825223,8.68750829 69.887723,8.64063324 70.0127232,8.56250817 L69.6845979,8.96875855 Z M69.2002224,10.484385 C69.2627225,10.0156346 69.5439727,9.46875903 70.0127232,8.85938345 C70.4658486,8.23438285 70.7783489,7.8593825 70.9658491,7.71875736 C70.903349,8.03125766 70.6845988,8.43750805 70.3408485,8.93750852 C70.0283482,9.437509 69.7627229,9.84375939 69.5283477,10.1406347 L69.2002224,10.484385 Z M83.9971115,10.6406351 C84.2158617,9.53125909 84.2002367,8.25000787 83.8096113,7.20313187 C83.6377362,6.75000644 83.450236,6.25000596 83.2471108,5.85938059 C82.6689852,4.76562954 81.7002343,4.01562883 80.356483,3.62500346 C79.0283568,3.23437808 77.7471055,3.09375295 76.5283544,3.20312805 C75.4033533,3.31250316 74.3721023,3.51562835 73.4971015,4.00000381 C72.8877259,4.32812913 72.2627253,4.90625468 71.5908497,5.73438047 C70.918974,6.56250626 70.3564735,7.31250697 69.872098,7.90625754 C68.1377214,10.0156346 68.3877216,14.5625139 70.2627234,16.3437656 C70.9502241,17.0000162 71.7939749,17.4375166 72.8096008,17.6250168 C73.8408518,17.828142 74.9814779,17.9218921 76.2314791,17.9218921 C77.6689805,17.9218921 78.7002315,17.6718919 79.309607,17.1562664 C79.9189826,16.6562659 80.5908583,16.0937653 81.2627339,15.4531397 C81.9033595,14.8437642 82.418985,14.0468884 82.9189855,13.2968877 C83.434611,12.546887 83.8096113,11.6562611 83.9971115,10.6406351 Z M76.5127294,10.484385 C76.6846045,10.7500103 76.7627296,11.0156355 76.7471046,11.2656357 C76.4971043,11.0937606 76.2939792,10.9218854 76.153354,10.7500103 C76.0127289,10.5781351 75.9189788,10.2812598 75.8564787,9.84375939 C76.2471041,10.0312596 76.2783541,10.1250097 76.5127294,10.484385 Z M77.2471051,11.4062609 C77.2783551,11.1406356 77.3096051,11.0312605 77.3252301,11.0625106 C77.3564802,11.0937606 77.4502303,11.0156355 77.6221054,10.8125103 L78.1221059,10.1875097 C78.215856,10.0781346 78.3564811,9.8593844 78.5596063,9.56250912 C78.7627315,9.25000882 78.9502317,9.06250864 79.0908568,8.98438357 C79.0908568,9.67188422 78.9658567,10.2656348 78.7158565,10.7656353 C78.4658562,11.2500107 77.9814808,11.4687609 77.2471051,11.4062609 Z M77.2783551,11.0156355 C77.2783551,11.0156355 77.215855,10.9843855 77.0908549,10.9375104 C76.9814798,10.8750104 77.1221049,10.6562602 77.4189802,10.2500098 L78.9189817,8.23438285 L79.0439818,8.73438285 L77.6846055,10.4218849 L77.4189802,10.6875102 C77.4033552,10.7031352 77.3564802,10.8125103 77.2783551,11.0156355 Z M76.9189798,10.2031347 C76.8877297,10.1562597 76.8564797,10.1250097 76.8252297,10.1406347 C76.8096046,10.1406347 76.8721047,10.0468846 77.0127298,9.87500942 C77.13773,9.70313425 77.13773,9.7500093 77.2627301,9.5468841 L78.3252311,7.82813247 C78.4502312,7.67188232 78.4814812,7.60938226 78.4346062,7.64063229 C78.3877312,7.67188232 78.4658562,7.6562573 78.6846064,7.60938226 C78.6377314,8.06250769 77.0752299,10.2343848 76.9189798,10.2031347 Z M77.0439799,6.8125065 C76.3408542,6.95313163 75.8564787,7.32813199 75.5752285,7.92188255 C75.3096032,8.51563312 75.2002281,9.1250087 75.3096032,9.76563431 C75.4033533,10.3906349 75.6846036,10.9375104 76.122104,11.3906359 C76.5596044,11.8437613 77.153355,11.9843864 77.8877307,11.8437613 C78.4346062,11.7343862 78.8564816,11.3750108 79.1377319,10.7812603 C79.4346072,10.1875097 79.5439823,9.5468841 79.4658572,8.84375843 C79.293982,7.40625706 78.5596063,6.5000062 77.0439799,6.8125065 Z" id="Shape" fill="#000000" fill-rule="nonzero"></path>
            <path d="M83.8502226,16.7187659 C83.8502226,16.3437656 83.8345975,15.70314 83.8189725,14.687514 C83.7877225,13.671888 83.8189725,13.0312624 83.8970976,12.7968872 C84.0377227,12.609387 85.381474,10.5781351 85.5689742,10.3906349 C85.6158492,11.8750113 85.5533492,13.3906349 85.6939743,14.7812641 C85.6002242,14.8593892 85.4439741,15.0156393 85.2408489,15.2500145 C85.0377237,15.4843898 84.8814735,15.6562649 84.7877234,15.7812651 C84.5845983,16.0312653 84.287723,16.4687657 83.8502226,16.7187659 Z M89.553353,14.5937639 C89.0064775,14.640639 88.3814769,14.671889 87.6627262,14.671889 C86.9439755,14.671889 86.3971,14.5468889 86.0220996,14.2968886 C86.0064746,13.656263 85.9752246,12.7031371 85.9752246,11.4375109 L85.9752246,7.50000715 C85.9752246,6.12500584 86.0064746,4.8281296 86.0220996,3.59375343 C86.0377246,2.35937725 86.0689747,1.45312639 86.1158497,0.85937582 C86.4752246,0.703125671 87.0377256,0.609375581 87.8189763,0.593750566 C88.6158521,0.578125551 89.2252277,0.640625611 89.6783531,0.781250745 C89.8189782,1.75000167 89.8814783,2.89062776 89.8502283,4.20312901 C89.8346033,5.50000525 89.8189782,6.67188136 89.8189782,7.70313235 C89.8189782,8.03125766 89.8189782,8.53125814 89.8346033,9.23438381 C89.8502283,9.92188446 89.8658533,10.6406351 89.8658533,11.3750108 C89.8658533,12.1093865 89.8502283,12.7968872 89.8033532,13.4218878 C89.7564782,14.0312634 89.6783531,14.4218888 89.553353,14.5937639 Z M84.0533477,10.2656348 C84.318973,10.0156346 84.5533482,9.53125909 84.7408484,9.21875879 C84.8658485,9.03125861 84.9283486,8.95313354 85.1002237,8.7031333 C85.1627238,8.5937582 85.2095989,8.54688315 85.2877239,8.43750805 L85.5689742,8.10938273 C85.5689742,8.82813342 85.5689742,9.3281339 85.5845992,9.59375915 C85.6002242,9.8593844 85.5845992,10.0625096 85.5377242,10.1718847 C85.5064741,10.2812598 85.4283491,10.4062599 85.3033489,10.515635 C85.1783488,10.6250101 84.9908486,10.9062604 84.7408484,11.2968858 C84.4908482,11.6875111 84.2252229,12.2031366 83.8502226,12.4375119 C83.8502226,10.7656353 83.7564725,11.546886 84.0533477,10.2656348 Z M84.0533477,10.2656348 C83.8658476,10.3125055 83.8033475,10.3437599 83.8502226,10.3281348 C83.8970976,10.3125055 83.8970976,10.2500098 83.8502226,10.1718847 C83.8502226,9.67188422 83.8502226,9.25000882 83.8345975,8.90625849 C83.8189725,8.56250817 83.9127226,8.21875784 84.1314728,7.89063253 C84.287723,7.67188232 84.4908482,7.39063205 84.7095984,7.06250674 C84.9127236,6.73438142 85.0377237,6.45313115 85.1002237,6.23438095 C85.2252239,6.14063086 85.2877239,6.0781308 85.3033489,6.03125575 C85.318974,5.98438071 85.412724,5.92188065 85.5845992,5.81250554 L85.5689742,7.70313235 C85.4595991,8.04688267 85.1783488,8.45313306 84.7408484,8.93750852 C84.318973,9.42188399 84.0845978,9.8593844 84.0533477,10.2656348 Z M85.1002237,6.23438095 C84.8345985,6.39063109 84.6627233,6.65625635 84.5064732,7.03125671 C84.334598,7.40625706 84.1158478,7.67188232 83.8502226,7.82813247 C83.8658476,7.10938178 83.8814726,6.68750638 83.9127226,6.57813127 C83.9283476,6.45313115 84.1002228,6.17188089 84.4127231,5.71875545 C84.5845983,5.48438023 84.7408484,5.23437999 84.9439736,4.96875474 C85.1002237,4.78125456 85.1939738,4.65625444 85.2252239,4.59375438 C85.2564739,4.51562931 85.381474,4.4062542 85.6158492,4.25000405 C85.5689742,5.0312548 85.5533492,5.4531302 85.5377242,5.51563026 C85.5377242,5.5625053 85.397099,5.81250554 85.1002237,6.23438095 Z M85.4439741,2.87500274 C85.5689742,2.92187779 85.6314743,2.9375028 85.6314743,2.90625277 C85.6470993,2.87500274 85.6470993,3.01562788 85.6627243,3.32812817 C85.6783493,3.71875355 85.5533492,4.03125384 85.2877239,4.28125408 C85.0377237,4.53125432 84.7564734,4.90625468 84.4439731,5.40625516 C84.272098,5.65625539 84.1939729,5.90625563 83.8970976,5.96875569 C83.8814726,5.15625492 84.0845978,4.59375438 84.4752232,4.28125408 C84.8189735,3.96875378 85.1627238,3.50000334 85.4439741,2.87500274 Z M85.4439741,2.87500274 C85.1939738,3.01562788 84.9595986,3.28125313 84.7252234,3.70312853 C84.4752232,4.10937892 84.2095979,4.43750423 83.9595977,4.67187946 C83.9439726,4.34375414 84.1783479,3.90625373 84.6158483,3.34375319 C85.0377237,2.76562764 85.381474,2.37500226 85.6314743,2.15625206 C85.6470993,2.42187731 85.6470993,2.56250244 85.6314743,2.57812746 C85.6158492,2.59375247 85.5533492,2.70312758 85.4439741,2.87500274 Z M85.1158488,2.34375224 C85.0377237,2.50000238 84.8658485,2.76562764 84.6002233,3.15625301 C84.318973,3.54687838 84.0689728,3.78125361 83.9127226,3.8750037 C83.9595977,3.51562835 84.2095979,3.18750304 84.4439731,2.95312782 C84.6158483,2.81250268 84.6627233,2.75000262 84.7408484,2.6250025 C84.7564734,2.60937749 84.9127226,2.46875235 84.9127226,2.46875235 C85.0533487,2.34375224 84.9439736,2.42187731 85.1158488,2.34375224 Z M85.1158488,2.34375224 C85.2095989,2.01562692 85.397099,1.75000167 85.6783493,1.54687648 C85.6314743,1.75000167 85.6158492,1.84375176 85.6158492,1.84375176 L85.4752241,2.03125194 L85.1158488,2.34375224 Z M89.4283529,15.4843898 C89.584603,15.2812646 89.8346033,14.9687643 89.9596034,14.7812641 C90.1939786,14.3906387 90.3033537,13.640638 90.2721037,12.546887 C90.2408536,11.4375109 90.2252286,10.6093851 90.2252286,10.0468846 C90.2252286,9.48438405 90.2252286,8.75000834 90.2408536,7.82813247 C90.2564787,6.90625659 90.2721037,5.96875569 90.2721037,5.01562978 C90.2721037,4.04687886 90.2564787,3.140628 90.2096036,2.28125218 C90.1627286,1.42187636 90.0846035,0.76562573 89.9596034,0.312500298 C88.9596024,0.312500298 88.2252267,0.281250268 87.7408513,0.218750209 C87.2564758,0.156250149 86.8814754,0.156250149 86.5846002,0.203125194 C86.3033499,0.250000238 86.0377246,0.406250387 85.8033494,0.671875641 C85.5689742,0.921875879 85.2095989,1.3593763 84.7252234,2.00000191 C84.1158478,2.78125265 83.7564725,3.21875307 83.6783474,3.29687814 C83.6002223,3.37500322 83.5220972,3.71875355 83.5064722,4.34375414 C83.4752222,5.51563026 83.4439722,6.73438142 83.4439722,7.81250745 L83.4439722,14.9843893 C83.4439722,15.5625148 83.4439722,16.0937653 83.4283472,16.6406409 C83.4127221,17.1875164 83.7095974,17.5000167 84.303348,17.5625167 C84.7408484,17.6093918 85.318974,17.6406418 86.0220996,17.6562668 C86.7252253,17.6875169 87.3189759,17.6718919 87.8189763,17.6093918 L89.4283529,15.4843898 Z" id="Shape" fill="#000000" fill-rule="nonzero"></path>
            <path d="M99.4064819,17.0937663 C99.484607,16.9062661 99.7814823,16.5156408 100.343983,15.9062652 C100.890858,15.3437646 101.297109,15.0312643 101.547109,15.0000143 C101.062733,16.0000143 100.422108,16.5781408 99.4064819,17.0937663 Z M91.9220998,17.0781413 L92.9846008,15.76564 L93.2971011,15.4531397 C93.3127261,15.4218897 93.3908512,15.2968896 93.5471013,15.0937644 C93.7814765,14.7812641 93.9064767,14.703139 94.297102,14.8750142 C94.203352,15.0625144 93.9689767,15.3750147 93.5471013,15.8125151 C93.1408509,16.2031405 92.8439757,16.5156408 92.6408505,16.7031409 C92.4689753,16.8437661 92.3752252,16.9375162 92.3439752,17.0156412 C92.3127251,17.0937663 92.1721,17.1093913 91.9220998,17.0781413 Z M91.5158494,16.765641 L91.2033491,16.6093908 L93.156476,14.2500136 L93.5627263,14.5000138 C93.5002263,14.6250139 93.4846013,14.671889 93.5002263,14.656264 C93.5158513,14.640639 93.5002263,14.687514 93.3752262,14.8125141 L92.5314754,15.6562649 C92.3283502,15.8593901 92.2189751,15.9531402 92.0158499,16.1875154 C91.7814746,16.4375157 91.8283497,16.5156408 91.5158494,16.765641 Z M90.7658487,16.2187655 C90.6564736,16.0468903 90.6408486,15.9062652 90.7033486,15.8593901 C90.7814737,15.76564 91.0470989,15.4687648 91.5158494,14.9687643 C91.8908497,14.5468889 92.2346001,13.9375133 92.6721005,13.7500131 C92.8596007,13.8750132 92.7658506,14.1562635 92.3752252,14.5781389 C91.9845998,15.0000143 91.6564745,15.3750147 91.3908493,15.73439 C91.2658491,15.8593901 91.2658491,15.8437651 91.125224,15.9687652 C90.9845989,16.0937653 90.9220988,16.1562654 90.9377238,16.1406404 C90.9533489,16.1406404 90.9064738,16.1718904 90.7658487,16.2187655 Z M90.4377234,15.8593901 C90.4533484,15.3750147 90.8127237,15.0000143 91.2502241,14.4843888 C91.4533493,14.2343886 91.5783494,14.1406385 91.7658496,13.8750132 C92.0002248,13.5781379 92.0158499,13.593763 92.2658501,13.3437627 C92.4377234,13.5625129 92.3439752,13.8437627 92.0002248,14.1718885 C91.6720995,14.5000138 91.3439742,14.8750142 91.0470989,15.2812646 C90.8595988,15.5312648 90.7502237,15.718765 90.4377234,15.8593901 Z M91.125224,8.98438357 C91.1720991,9.78125933 91.2502241,10.4062599 91.3595973,10.8437603 C91.4689743,11.2656357 91.6095995,11.8281363 91.7970997,12.5156369 C91.7502246,12.562512 91.7345996,12.578137 91.7345996,12.593762 L90.8439737,13.625013 C90.7189736,13.7343881 90.5783485,13.9218883 90.4064733,14.1875135 C90.2189732,14.4531388 90.062723,14.671889 90.0002229,14.8593892 C90.4845984,14.6250139 90.6095985,14.2500136 90.9220988,13.8125132 C91.0158489,13.6875131 91.1720991,13.5000129 91.4064743,13.2343876 C91.6408495,12.9687624 91.8283497,12.7968872 91.9689748,12.7187621 C92.0470999,13.0000124 92.0627249,13.2031376 92.0158499,13.3125127 C91.9689748,13.4218878 91.7189746,13.7031381 91.2970992,14.1875135 C91.140849,14.3593887 90.9533489,14.5937639 90.7502237,14.8906392 C90.5470985,15.1718895 90.4064733,15.3437646 90.2345982,15.4218897 C89.9533479,15.0468893 89.7345977,14.5000138 89.5939726,13.7812631 C89.4377224,13.0468874 89.3595973,12.4062618 89.3595973,11.8437613 C89.3595973,11.4062609 89.5470975,10.9687605 89.8908478,10.5468851 C90.2502232,10.1093846 90.4845984,9.71875927 90.7345986,9.37500894 C90.8127237,9.26563384 90.8595973,9.20313378 90.8908488,9.18750876 C91.0158489,9.04688363 90.9377238,9.10938369 91.125224,8.98438357 Z M91.6095995,1.21875116 L92.0470999,0.750000715 C92.4846003,0.781250745 93.1408509,0.781250745 94.0002268,0.76562573 C94.8596026,0.750000715 95.4533531,0.781250745 95.7502284,0.890625849 C95.8596035,1.34375128 95.8908536,2.03125194 95.8752285,2.95312782 C95.8596035,3.85937868 95.8439785,4.81250459 95.8127285,5.79688053 C95.7971035,6.78125647 95.7814785,7.68750733 95.7971035,8.54688315 C95.8127285,9.40625897 95.9064786,10.0000095 96.0627287,10.3281348 C96.390854,11.0156355 97.0783547,11.578136 98.1252307,11.562511 C99.0783566,11.546886 99.6721072,11.0312605 99.9221074,9.98438452 C100.187733,8.93750852 100.297108,7.76563241 100.281483,6.5000062 C100.265858,5.21875498 100.234608,4.01562883 100.156483,2.89062776 C100.093983,1.76562668 100.218983,1.10937606 100.531483,0.937500894 C101.734609,0.7343757 103.031485,0.781250745 104.265862,0.906250864 C104.422112,1.20312615 104.515862,1.81250173 104.562737,2.71875259 C104.609612,3.60937844 104.609612,4.59375438 104.578362,5.64063038 C104.562737,6.68750638 104.515862,7.68750733 104.437737,8.65625826 C104.375237,9.60938416 104.312737,10.2968848 104.265862,10.7187602 C104.078361,12.2500117 103.437736,13.3750128 102.32836,14.0781384 C101.234609,14.7812641 99.8752324,15.1250144 98.2346058,15.1250144 C96.5002291,15.1250144 95.0783528,14.8593892 93.9846017,14.3125136 C92.8908507,13.7656381 92.156475,12.7500122 91.7970997,11.2343857 C91.2189741,8.84375843 91.6095995,3.92187874 91.6095995,1.21875116 Z M89.3595973,10.8437603 C89.3595973,10.0781346 89.3908474,9.68750924 89.4377224,9.64063419 C89.4845975,9.59375915 89.6877226,9.3281339 90.031473,8.84375843 C90.2345982,8.57813318 90.3595973,8.31250793 90.5314734,8.04688267 L90.9533489,7.43750709 L91.093974,8.75000834 C90.7814737,8.95313354 90.5002234,9.31250888 90.2502232,9.82813437 C89.9845979,10.3437599 89.6720976,10.6718852 89.3595973,10.8437603 Z M99.6877322,5.35938011 C99.7658573,5.43750519 99.7971073,5.46875522 99.7971073,5.43750519 C99.7971073,5.39063014 99.8127323,5.48438023 99.8439823,5.68750542 L99.8283573,6.93750662 C99.5627321,7.10938178 99.3752319,7.28125694 99.2971068,7.42188208 C99.2189817,7.56250721 99.0783566,7.71875736 98.8908564,7.90625754 C98.6877312,8.14063276 98.5314811,8.29688291 98.437731,8.40625802 C98.3439809,8.51563312 98.2346058,8.7031333 98.0939807,8.96875855 C98.3439809,8.79688339 98.500231,8.65625826 98.5783561,8.53125814 C98.6564812,8.40625802 98.7814813,8.25000787 98.9533565,8.0781327 C99.2033567,7.82813247 99.1877317,7.87500751 99.3752319,7.60938226 C99.515857,7.40625706 99.5627321,7.31250697 99.547107,7.32813199 C99.531482,7.343757 99.6252321,7.29688196 99.8439823,7.20313187 C99.8439823,8.0781327 99.7814823,8.95313354 99.6408571,9.81250936 C99.500232,10.6718852 98.9689815,11.1093856 98.0158556,11.1406356 C97.9221055,10.5781351 97.9221055,7.85938011 98.1252307,7.48438214 C98.2658558,7.2343819 98.5158561,6.89063157 98.9064814,6.46875617 C99.2971068,6.04688077 99.5627321,5.67188041 99.6877322,5.35938011 Z M89.3595973,9.28125885 C89.3595973,8.53125814 89.3752223,8.10938273 89.4220974,8.00000763 C89.4533474,7.89063253 89.6564726,7.60938226 90.015848,7.14063181 C90.1877231,6.95313163 90.3752233,6.68750638 90.5470985,6.35938106 C90.7345986,6.01563074 90.9689739,5.78125551 91.1720991,5.65625539 C91.1720991,6.40625611 91.140849,6.84375653 91.093974,6.95313163 C91.0470989,7.06250674 90.8283487,7.32813199 90.4845984,7.78125742 C90.3752233,7.98438261 90.2033481,8.25000787 89.9845979,8.60938321 C89.7658477,8.96875855 89.5627225,9.18750876 89.3595973,9.28125885 Z M89.4064724,7.50000715 C89.4064724,7.06250674 89.4689724,6.76563145 89.6095976,6.6093813 C89.7345977,6.45313115 89.9533479,6.20313092 90.2033481,5.85938059 C90.5002234,5.43750519 90.7658487,4.93750471 91.2033491,4.64062943 C91.156474,5.20312996 91.078349,5.51563026 90.9689739,5.59375533 C90.8752238,5.65625539 90.7033486,5.8750056 90.4689734,6.25000596 C90.1564731,6.70313139 89.8595978,7.20313187 89.4064724,7.50000715 Z M99.6877322,5.35938011 C99.4221069,5.4531302 99.1721067,5.70313044 98.9689815,6.10938083 C98.7658563,6.51563121 98.437731,6.90625659 98.0158556,7.26563193 L98.0314806,6.20313092 C98.1096057,6.12500584 98.2346058,5.96875378 98.437731,5.70313044 C98.6408562,5.43750519 98.7971063,5.23437999 98.8908564,5.10937987 L99.8283573,3.96875378 C99.8439823,4.59375438 99.7971073,5.06250483 99.6877322,5.35938011 Z M90.9689739,3.34375319 C91.093974,3.37500322 91.140849,3.37500322 91.109599,3.3593782 C91.078349,3.32812817 91.093974,3.3593782 91.1720991,3.45312829 C91.2189741,4.00000381 91.156474,4.34375319 91.0158489,4.48437928 C90.8752238,4.62500441 90.7033486,4.8281296 90.5002234,5.10937987 L89.7814727,6.12500584 C89.6564726,6.29688101 89.5939726,6.37500608 89.6095976,6.35938106 C89.6095976,6.34375319 89.5470975,6.35938106 89.4064724,6.42188112 C89.4220974,5.8750056 89.4689724,5.54688029 89.5783475,5.40625516 C89.6877226,5.26563002 89.8595978,5.01562978 90.1252231,4.67187946 C90.4377234,4.2968791 90.7814737,3.78125361 90.9689739,3.34375319 Z M98.0471056,5.8750056 C98.0002306,5.48438023 98.0471056,5.20312996 98.2189808,5.01562978 C98.3908559,4.8281296 98.5471061,4.60937797 98.7189813,4.37500417 L99.6877322,3.10937797 C99.7346072,3.17187802 99.9221074,3.3593782 99.8752324,3.5625034 L98.0471056,5.8750056 Z M98.0783556,3.95312877 C98.1252307,3.81250364 98.2502308,3.65625349 98.468981,3.45312829 C98.2971059,3.70312853 98.2033558,3.78125361 98.0783556,3.95312877 Z M90.9689739,3.34375319 C90.5939735,3.54687838 90.5002234,3.85937868 90.2345982,4.23437904 C90.062723,4.46875426 89.9845979,4.59375438 89.8439728,4.73437952 L89.4533474,5.15625492 C89.4533474,4.89062966 89.4689724,4.7187545 89.5002225,4.64062943 C89.5314725,4.56250435 89.6095976,4.43750185 89.7345977,4.28125408 L90.5627235,3.15625301 C90.7033486,3.01562788 90.7814737,2.93750185 90.8127237,2.92187779 C90.8439737,2.89062776 90.9064738,2.76562764 90.9845989,2.56250244 C90.6877236,2.70312758 90.4845984,2.96875283 90.2502232,3.39062823 C90.015848,3.79687862 89.7345977,4.0937539 89.4377224,4.26562907 C89.5002225,4.03125384 89.8127228,3.59375343 90.3127232,2.96875283 C90.7970987,2.34375224 91.093974,2.00000191 91.2033491,1.93750185 C90.9064738,3.28125313 91.5314744,2.14062704 90.9689739,3.34375319 Z M98.0471056,4.87500465 C98.0158556,4.46875426 98.1096057,4.15625396 98.3127309,3.95312877 C98.5314811,3.73437856 98.7346063,3.50000334 98.9377315,3.2500031 C100.031483,1.85937677 99.2346067,2.71875259 99.5939821,2.12500203 C99.6096071,2.07812698 99.7033572,1.98437689 99.8752324,1.84375176 C99.7502322,2.06250197 99.7033572,2.12500203 99.7189822,2.04687695 C99.7502322,1.95312686 99.7971073,2.04687695 99.8596073,2.34375176 C99.8752324,2.39062728 99.8752324,2.50000238 99.8752324,2.67187755 C99.5783571,2.96875283 99.2814818,3.34375176 98.9689815,3.79687862 C98.6721062,4.25000405 98.3596059,4.6093794 98.0471056,4.87500465 Z M90.109598,16.5156408 C90.8752238,16.0781403 90.3595983,17.1250163 92.9377257,17.7343919 C94.3596021,18.0781422 95.8596035,18.1562673 97.4220969,18.0156422 C99.0002315,17.875017 100.281483,17.2187664 101.328359,16.0937653 C101.687734,15.70314 101.843984,15.4062647 102.26586,14.9687643 C102.48461,14.7500141 102.812735,14.3437637 103.265861,13.7656381 C103.718986,13.1875126 104.015861,12.7500122 104.140861,12.4843869 C104.453362,11.8437613 104.609612,11.2500107 104.609612,10.7343852 C104.625237,10.2187597 104.687737,9.60938416 104.828362,8.92188351 C104.875237,8.64063324 104.890862,8.09375772 104.906487,7.29688196 C104.922112,6.5000062 104.922112,5.64063038 104.906487,4.73437952 C104.890862,3.82812865 104.843987,2.96875283 104.797112,2.17187707 C104.750237,1.37500131 104.703362,0.82812579 104.640862,0.531250507 C103.953361,0.515625492 103.203361,0.468750447 102.375235,0.406250387 C101.547109,0.328125313 100.828358,0.390625373 100.203358,0.593750566 C99.9689824,0.85937582 99.7346072,1.25000119 99.484607,1.56250149 C98.0002306,3.42187826 97.6877303,3.03125289 97.6877303,4.68750447 C97.6877303,6.8125065 97.6096052,8.92188351 97.6096052,11.0625106 C96.6721043,10.8750104 96.2033539,10.2500098 96.2189789,9.18750876 C96.2346039,8.10938273 96.2346039,7.09375677 96.2346039,6.14063086 C96.2346039,4.45312925 96.2502289,3.20312805 96.2658539,2.40625229 C96.2971039,1.59375152 96.2189789,1.046876 96.0314787,0.750000715 C95.8596035,0.453125432 95.5158532,0.312500298 95.0002277,0.359375343 C94.4846022,0.390625373 93.7033515,0.406250387 92.6408505,0.390625373 C91.8752247,0.390625373 91.3439742,0.640625611 91.0158489,1.14062609 C90.7033486,1.64062656 90.2033481,2.32812722 89.4220969,3.18750304 C89.2189722,3.40625325 89.1095971,3.5625034 89.0783471,3.6718785 C89.047097,3.76562859 89.031472,3.9843788 89.031472,4.34375414 C89.047097,5.4531302 89.015847,6.76563145 88.968972,8.2812579 C88.9064719,9.79688434 88.9064719,10.9843855 88.968972,11.8437613 C89.062722,12.9218873 89.1877222,13.7343881 89.3595973,14.2656386 C89.5158475,14.7812641 89.6720976,15.1718895 89.8127228,15.4375147 C89.9533479,15.70314 90.062723,15.8593901 90.1408481,15.9531402 C90.2189732,16.0625153 90.2033481,16.2500155 90.109598,16.5156408 Z" id="Shape" fill="#000000" fill-rule="nonzero"></path>
            <path d="M104.759598,16.8750161 C104.618973,16.0468903 104.665848,15.4375147 104.665848,14.5625139 C104.665848,14.1562635 104.837723,13.7500131 105.181473,13.3437627 C105.509598,12.9375123 105.775224,12.4843869 106.056474,12.0000114 L106.384599,11.6093861 C106.384599,12.593762 106.259599,13.7343881 106.525224,14.5625139 C106.228349,15.0156393 105.993974,15.3437646 105.665849,15.750015 L104.759598,16.8750161 Z M104.697098,13.7343881 C104.618973,12.7812622 104.697098,12.1875116 104.915848,11.9218864 C105.118973,11.6562611 105.493973,11.0625106 106.118974,10.2656348 L106.384599,9.93750948 L106.384599,11.0468855 C106.384599,11.2812608 106.275224,11.515636 106.040849,11.7656362 C105.853349,11.9687614 105.697099,12.1718866 105.572098,12.4062618 C105.353348,12.8281372 105.025223,13.3593877 104.697098,13.7343881 Z M104.665848,11.8750113 C104.665848,11.2812608 104.681473,10.8750104 104.728348,10.6718852 C104.759598,10.46876 105.025223,10.1250097 105.431473,9.62500918 C105.728349,9.26563384 105.978349,8.79688339 106.368974,8.40625802 C106.384599,8.85938345 106.400224,9.18750876 106.384599,9.39063396 C106.384599,9.59375915 106.290849,9.79688434 106.087724,10.0156346 C105.884599,10.2500098 105.650223,10.5937601 105.400223,11.0156355 C105.118973,11.4375109 104.868973,11.7343862 104.665848,11.8750113 Z M111.009604,11.3437608 C111.040854,11.0156355 111.134604,10.7812603 111.306479,10.6250101 C111.478354,10.453135 111.697104,10.1250097 112.02523,9.68750924 L112.415855,9.15625873 C112.46273,9.35938393 112.49398,9.48438405 112.478355,9.53125909 C112.46273,9.57813413 112.30648,9.82813437 111.96273,10.2968848 C111.806479,10.515635 111.650229,10.6875102 111.572104,10.7968853 C111.509604,10.8593854 111.462729,10.9375104 111.384604,11.0468855 L111.009604,11.3437608 Z M111.009604,10.2656348 C111.025229,10.0000095 111.212729,9.64063419 111.540854,9.17188375 C111.884604,8.68750829 112.103355,8.40625802 112.197105,8.31250793 C112.36898,8.75000834 112.05648,9.00000858 111.822104,9.37500894 C111.618979,9.68750924 111.337729,10.2187597 111.009604,10.2656348 Z M104.665848,10.2187597 C104.665848,9.57813413 104.775223,9.15625873 104.978348,8.95313354 C105.181473,8.75000834 105.462723,8.35938297 105.837724,7.75000739 C105.993974,7.51563217 106.118974,7.32813199 106.353349,7.09375677 C106.415849,7.6562573 106.400224,8.01563264 106.306474,8.15625778 C106.212724,8.29688291 105.947099,8.60938321 105.556473,9.1250087 C105.337723,9.42188399 104.931473,10.0468846 104.665848,10.2187597 Z M110.603353,9.40625897 L110.603353,13.8906382 C110.603353,14.3281387 110.478353,14.4531388 110.290853,14.656264 L107.1346,14.656264 C106.962725,14.3437637 106.806475,14.2812636 106.806475,13.7812631 L106.806475,4.93750471 C106.806475,4.45312925 106.962725,4.21875402 107.29085,4.23437904 C107.618975,4.25000405 108.509601,4.25000405 109.962728,4.25000405 C110.384603,4.25000405 110.259603,4.2968791 110.509603,4.6093794 L110.634603,4.76562954 C111.322104,4.54687934 111.99398,4.2968791 112.65023,4.03125384 C113.322106,3.75000358 114.072107,3.81250364 114.915857,4.21875402 C115.697108,4.6093794 116.150234,5.28125504 116.275234,6.23438095 C116.400234,7.18750685 116.447109,8.0781327 116.400234,8.92188351 C116.056483,9.20313378 115.509608,9.3281339 114.743982,9.29688387 C113.978356,9.25000882 113.368981,9.21875879 112.90023,9.18750876 C112.728355,8.78125837 112.58773,8.37500799 112.478355,7.95313258 C112.384605,7.53125718 112.072105,7.343757 111.540854,7.40625706 C111.025229,7.46875712 110.743978,7.75000739 110.681478,8.26563288 C110.634603,8.78125837 110.603353,9.15625873 110.603353,9.40625897 Z M104.697098,9.03125861 L104.665848,8.17188279 C105.025223,7.90625754 105.228348,7.57813223 105.525223,7.15625682 C105.728349,6.82813151 106.072099,6.20313092 106.384599,6.01563074 C106.368974,6.64063133 106.150224,7.15625682 105.806474,7.56250721 C105.478348,7.9687576 105.103348,8.45313306 104.697098,9.03125861 Z M105.431473,6.17188089 C105.243973,6.6093813 105.056473,6.71875641 104.790848,7.03125671 C104.822098,6.82813151 104.837723,6.75000644 104.853348,6.76563145 C104.868973,6.78125647 104.915848,6.70313139 105.025223,6.54688124 C105.165848,6.34375605 105.228348,6.26563098 105.181473,6.28125599 C105.134598,6.29688101 105.212723,6.25000596 105.431473,6.17188089 Z M106.259599,5.28125504 C106.447099,5.53125528 106.384599,5.82813056 106.072099,6.17188089 C105.775224,6.5000062 105.509598,6.87500656 105.197098,7.28125504 C104.947098,7.59375724 104.978348,7.68750733 104.665848,7.87500751 C104.665848,7.42188208 104.681473,7.20313187 104.728348,7.25000691 C104.759598,7.28125504 104.900223,7.15625682 105.150223,6.89063157 L106.259599,5.28125504 Z M105.431473,6.17188089 L105.806474,5.60938035 C105.712724,5.81250554 105.650223,5.92188065 105.618973,5.96875569 C105.493973,6.21875593 105.556473,6.09375581 105.431473,6.17188089 Z M105.806474,5.60938035 L106.337724,4.87500465 C106.322099,5.00000477 106.306474,5.1406299 106.259599,5.28125504 C106.150224,5.3437551 106.118974,5.37500513 106.134599,5.35938011 C106.150224,5.3437551 106.118974,5.37500513 106.009599,5.4531302 C105.931474,5.53125528 105.884599,5.57813032 105.884599,5.5625053 C105.884599,5.57813032 105.853349,5.59375533 105.806474,5.60938035 Z M111.025229,12.3750118 C111.259597,12.3281368 111.681479,12.3125117 112.27523,12.3125117 C112.884605,12.3125117 113.337731,12.2968867 113.650231,12.2812617 C114.290857,12.2656367 114.790857,11.9218864 115.165858,11.2812608 C115.556483,10.6406351 115.947108,10.0937596 116.353359,9.64063419 C116.509609,9.46875903 116.618984,9.37500894 116.681484,9.3281339 C116.743984,9.28125885 116.790859,9.09375867 116.822109,8.75000834 C116.900234,7.90625754 116.822109,6.98438166 116.603359,5.96875569 C116.384609,4.95312972 115.900233,4.25000405 115.165858,3.8750037 C114.353357,3.46875331 113.603356,3.3593782 112.93148,3.5625034 C112.259597,3.76562859 111.572104,3.96875378 110.853353,4.20312901 L110.431478,3.84375367 L106.931475,3.84375367 C106.353349,4.03125384 106.181474,4.35937916 105.931474,4.7187545 C104.556472,6.67188136 104.259597,6.10938083 104.259597,8.29688291 L104.259597,15.5625148 C104.259597,16.2187655 104.290847,16.765641 104.353347,17.1406413 C104.415847,17.5156417 104.837723,17.7031419 105.587723,17.7031419 C108.306476,17.7031419 108.072101,18.0625172 109.134602,16.6875159 C109.728352,15.9218902 110.134603,15.4531397 110.384603,15.2187645 C110.634603,14.9843893 110.790853,14.7968891 110.868978,14.656264 C110.947104,14.5156388 110.962729,14.2968886 110.947104,14.0312634 C110.931479,13.7656381 110.962729,13.2031376 111.025229,12.3750118 Z" id="Shape" fill="#000000" fill-rule="nonzero"></path>
            <path d="M116.503348,16.7187659 C116.503348,16.3437656 116.487723,15.70314 116.472098,14.687514 C116.440847,13.671888 116.472098,13.0312624 116.550223,12.7968872 C116.690848,12.609387 118.034599,10.5781351 118.222099,10.3906349 C118.268974,11.8750113 118.206474,13.3906349 118.347099,14.7812641 C118.253349,14.8593892 118.097099,15.0156393 117.893974,15.2500145 C117.690849,15.4843898 117.534599,15.6562649 117.440848,15.7812651 C117.237723,16.0312653 116.940848,16.4687657 116.503348,16.7187659 Z M122.206478,14.5937639 C121.659602,14.640639 121.034602,14.671889 120.315851,14.671889 C119.597101,14.671889 119.050225,14.5468889 118.675225,14.2968886 C118.6596,13.656263 118.62835,12.7031371 118.62835,11.4375109 L118.62835,7.50000715 C118.62835,6.12500584 118.6596,4.8281296 118.675225,3.59375343 C118.69085,2.35937725 118.7221,1.45312639 118.768975,0.85937582 C119.12835,0.703125671 119.690851,0.609375581 120.472101,0.593750566 C121.268977,0.578125551 121.878353,0.640625611 122.331478,0.781250745 C122.472103,1.75000167 122.534603,2.89062776 122.503353,4.20312901 C122.487728,5.50000525 122.472103,6.67188136 122.472103,7.70313235 C122.472103,8.03125766 122.472103,8.53125814 122.487728,9.23438381 C122.503353,9.92188446 122.518978,10.6406351 122.518978,11.3750108 C122.518978,12.1093865 122.503353,12.7968872 122.456478,13.4218878 C122.409603,14.0312634 122.331478,14.4218888 122.206478,14.5937639 Z M116.706473,10.2656348 C116.972098,10.0156346 117.206473,9.53125909 117.393973,9.21875879 C117.518974,9.03125861 117.581474,8.95313354 117.753349,8.7031333 C117.815849,8.5937582 117.862724,8.54688315 117.940849,8.43750805 L118.222099,8.10938273 C118.222099,8.82813342 118.222099,9.3281339 118.237724,9.59375915 C118.253349,9.8593844 118.237724,10.0625096 118.190849,10.1718847 C118.159599,10.2812598 118.081474,10.4062599 117.956474,10.515635 C117.831474,10.6250101 117.643974,10.9062604 117.393973,11.2968858 C117.143973,11.6875111 116.878348,12.2031366 116.503348,12.4375119 C116.503348,10.7656353 116.409597,11.546886 116.706473,10.2656348 Z M116.706473,10.2656348 C116.518973,10.3125055 116.456473,10.3437599 116.503348,10.3281348 C116.550223,10.3125055 116.550223,10.2500098 116.503348,10.1718847 C116.503348,9.67188422 116.503348,9.25000882 116.487723,8.90625849 C116.472098,8.56250817 116.565848,8.21875784 116.784598,7.89063253 C116.940848,7.67188232 117.143973,7.39063205 117.362723,7.06250674 C117.565849,6.73438142 117.690849,6.45313115 117.753349,6.23438095 C117.878349,6.14063086 117.940849,6.0781308 117.956474,6.03125575 C117.972099,5.98438071 118.065849,5.92188065 118.237724,5.81250554 L118.222099,7.70313235 C118.112724,8.04688267 117.831474,8.45313306 117.393973,8.93750852 C116.972098,9.42188399 116.737723,9.8593844 116.706473,10.2656348 Z M117.753349,6.23438095 C117.487723,6.39063109 117.315848,6.65625635 117.159598,7.03125671 C116.987723,7.40625706 116.768973,7.67188232 116.503348,7.82813247 C116.518973,7.10938178 116.534598,6.68750638 116.565848,6.57813127 C116.581473,6.45313115 116.753348,6.17188089 117.065848,5.71875545 C117.237723,5.48438023 117.393973,5.23437999 117.597099,4.96875474 C117.753349,4.78125456 117.847099,4.65625444 117.878349,4.59375438 C117.909599,4.51562931 118.034599,4.4062542 118.268974,4.25000405 C118.222099,5.0312548 118.206474,5.4531302 118.190849,5.51563026 C118.190849,5.5625053 118.050224,5.81250554 117.753349,6.23438095 Z M118.097099,2.87500274 C118.222099,2.92187779 118.284599,2.9375028 118.284599,2.90625277 C118.300224,2.87500274 118.300224,3.01562788 118.315849,3.32812817 C118.331474,3.71875355 118.206474,4.03125384 117.940849,4.28125408 C117.690849,4.53125432 117.409598,4.90625468 117.097098,5.40625516 C116.925223,5.65625539 116.847098,5.90625563 116.550223,5.96875569 C116.534598,5.15625492 116.737723,4.59375438 117.128348,4.28125408 C117.472098,3.96875378 117.815849,3.50000334 118.097099,2.87500274 Z M118.097099,2.87500274 C117.847099,3.01562788 117.612724,3.28125313 117.378348,3.70312853 C117.128348,4.10937892 116.862723,4.43750423 116.612723,4.67187946 C116.597098,4.34375414 116.831473,3.90625373 117.268973,3.34375319 C117.690849,2.76562764 118.034599,2.37500226 118.284599,2.15625206 C118.300224,2.42187731 118.300224,2.56250244 118.284599,2.57812746 C118.268974,2.59375247 118.206474,2.70312758 118.097099,2.87500274 Z M117.768974,2.34375224 C117.690849,2.50000238 117.518974,2.76562764 117.253348,3.15625301 C116.972098,3.54687838 116.722098,3.78125361 116.565848,3.8750037 C116.612723,3.51562835 116.862723,3.18750304 117.097098,2.95312782 C117.268973,2.81250268 117.315848,2.75000262 117.393973,2.6250025 C117.409598,2.60937749 117.565848,2.46875235 117.565848,2.46875235 C117.706474,2.34375224 117.597099,2.42187731 117.768974,2.34375224 Z M117.768974,2.34375224 C117.862724,2.01562692 118.050224,1.75000167 118.331474,1.54687648 C118.284599,1.75000167 118.268974,1.84375176 118.268974,1.84375176 L118.128349,2.03125194 L117.768974,2.34375224 Z M122.081478,15.4843898 C122.237728,15.2812646 122.487728,14.9687643 122.612728,14.7812641 C122.847104,14.3906387 122.956479,13.640638 122.925229,12.546887 C122.893979,11.4375109 122.878354,10.6093851 122.878354,10.0468846 C122.878354,9.48438405 122.878354,8.75000834 122.893979,7.82813247 C122.909604,6.90625659 122.925229,5.96875569 122.925229,5.01562978 C122.925229,4.04687886 122.909604,3.140628 122.862729,2.28125218 C122.815854,1.42187636 122.737729,0.76562573 122.612728,0.312500298 C121.612727,0.312500298 120.878352,0.281250268 120.393976,0.218750209 C119.909601,0.156250149 119.5346,0.156250149 119.237725,0.203125194 C118.956475,0.250000238 118.69085,0.406250387 118.456474,0.671875641 C118.222099,0.921875879 117.862724,1.3593763 117.378348,2.00000191 C116.768973,2.78125265 116.409597,3.21875307 116.331472,3.29687814 C116.253347,3.37500322 116.175222,3.71875355 116.159597,4.34375414 C116.128347,5.51563026 116.097097,6.73438142 116.097097,7.81250745 L116.097097,14.9843893 C116.097097,15.5625148 116.097097,16.0937653 116.081472,16.6406409 C116.065847,17.1875164 116.362722,17.5000167 116.956473,17.5625167 C117.393973,17.6093918 117.972099,17.6406418 118.675225,17.6562668 C119.37835,17.6875169 119.972101,17.6718919 120.472101,17.6093918 L122.081478,15.4843898 Z" id="Shape" fill="#000000" fill-rule="nonzero"></path>
        </g>
    </g>
</svg>