<svg width="92px" height="19px" viewBox="0 0 92 19" version="1.1" xmlns="http://www.w3.org/2000/svg" xmlns:xlink="http://www.w3.org/1999/xlink">
    <g id="Page-1" stroke="none" stroke-width="1" fill="none" fill-rule="evenodd">
        <g id="MySmolUrl" transform="translate(0.718973, 0.184531)">
            <path d="M15.0341642,6.42483516 C15.2841644,5.98733474 15.86229,5.51858429 16.0497902,5.08108388 C16.3310404,4.45608328 16.1591653,3.83108269 15.89354,3.23733212 C14.2841635,-0.372046323 9.00290845,-0.418921368 5.89353048,0.502954512 C5.19040481,0.706079705 4.64352929,0.971704959 4.25290392,1.26858024 C3.86227855,1.54983051 3.44040314,1.86233081 3.0810278,2.29983123 L1.14352595,4.75295856 C0.393525239,5.69045946 0.0341498962,6.92483564 0.0497749111,8.34671199 C0.065399926,9.76858835 0.581025418,10.7529643 1.6122764,11.2998398 C1.56540136,11.4404649 1.39352619,11.7060902 1.12790094,12.0967156 C0.846650671,12.4873409 0.659150492,12.7060911 0.549775388,12.7842162 C0.409150254,12.9092163 0.284150135,12.9873414 0.20602506,13.0185914 C0.112274971,13.0498415 0.0497749111,13.2060916 0.00289986637,13.4873419 C-0.0127251485,13.7842172 0.0341498962,14.0967175 0.159150015,14.4404678 C1.67477646,18.5342217 6.69040624,18.4404716 10.3622847,17.5810958 C11.659161,17.2842205 12.5185368,16.8779701 12.9091622,16.4092197 C13.2997875,15.9560942 13.815413,15.3623437 14.4404136,14.5342179 C14.799789,14.0810925 15.2372894,13.8467172 15.5966647,13.3467168 C16.1591653,12.565466 16.4560406,11.6592152 16.5497906,10.6123392 C16.6435407,9.56546315 16.4872906,8.61233725 16.0654152,7.75296143 C15.9404151,7.5185862 15.7997899,7.25296095 15.5810397,7.01858573 L15.0341642,6.42483516 Z" id="Path" fill="#FDE047"></path>
            <path d="M22.5747817,10.8623394 C22.871657,11.1279646 22.934157,11.4404649 22.9966571,11.9404654 C23.0591572,12.3310908 23.0904072,12.7842162 23.0904072,13.1435916 C23.1216572,14.2685926 23.0904072,15.1592185 23.0279071,15.8154691 C22.9654071,16.4248447 22.9966571,16.9092202 23.1216572,17.2373455 C23.2466573,17.5654708 23.5435326,17.768596 23.996658,17.815471 C24.4497835,17.8779711 25.2154092,17.8779711 26.2779102,17.784221 C26.8872858,17.7373459 27.2622862,17.6592209 27.3716613,17.5810958 C27.4966614,17.5029707 27.7154116,17.2685955 28.0435369,16.8623451 C28.4185373,16.3779697 28.8716627,15.8779692 29.215413,15.4248437 C29.3560382,15.2373436 29.3560382,15.1435935 29.4654133,15.0029683 C29.6997885,14.690468 29.8091636,14.4873428 29.8247886,14.4092178 C29.8404136,14.3154677 29.8560386,13.9717174 29.9029137,13.3779668 C29.9497887,12.565466 29.9341637,11.6435901 29.9497887,10.7685893 C30.0279138,10.8779644 30.0122888,10.8310894 30.1372889,10.9717145 C30.1529139,11.0029645 30.1841639,11.0498396 30.215414,11.1123396 C30.3560391,11.4404649 30.4185392,11.9873405 30.4185392,12.7373412 L30.4185392,14.3779677 C30.4185392,15.4560938 30.3716641,16.0654694 30.3091641,16.3310946 C30.246664,16.5967199 30.4185392,17.0342203 30.8091645,17.6748459 C31.246665,17.6748459 31.8872906,17.7060959 32.7310414,17.768596 C33.5747922,17.8467211 34.1685427,17.831096 34.5279181,17.7373459 C34.7622933,17.6748459 34.9497935,17.5498458 35.0747936,17.3467206 C35.1997937,17.1435954 35.3404189,16.9717202 35.512294,16.8310951 C35.7310442,16.6123449 36.0435445,16.2373445 36.4341699,15.7529691 C36.8404203,15.2060935 37.0747955,14.8623432 37.1372956,14.7060931 C37.1997956,14.5498429 37.2310457,14.2685926 37.2154207,13.8623423 C37.1997956,13.4560919 37.1997956,13.1435916 37.1997956,12.9248414 C37.1997956,11.2842148 37.3247958,9.2998379 37.1060455,7.61233629 C36.8872953,5.92483468 36.3247948,4.50295833 34.9029184,3.9560828 C33.9185425,3.58108245 32.6060413,3.4248323 31.4810402,3.67483254 C30.8716646,3.79983266 30.4029142,3.98733283 30.0591638,4.19045803 C29.7154135,4.39358322 29.3091631,4.59670842 28.8560377,4.76858358 C27.6529115,4.12795797 26.6372856,3.7373326 25.7779097,3.59670746 C24.9341589,3.45608233 23.8247829,3.67483254 22.4654066,4.2685831 C22.0591562,3.98733283 21.7622809,3.86233272 21.5904058,3.87795773 C21.4185306,3.89358275 21.0435302,3.89358275 20.4497797,3.89358275 C19.6372789,3.89358275 18.8560281,3.87795773 18.0904024,3.86233272 L16.4029008,6.23733498 C15.9654004,6.84671056 15.7779002,7.39358608 15.8247753,7.84671152 C15.8716503,8.29983695 15.8716503,8.94046256 15.8247753,9.78421336 C15.7622752,11.0967146 15.7779002,12.6123411 15.7779002,13.9248423 C15.7779002,15.1592185 15.7779002,15.5498439 15.7935252,15.8623442 C15.8091502,16.2373445 15.8716503,16.5810948 16.0122754,17.7060959 C16.574776,17.7060959 17.1060265,17.7373459 17.5747769,17.799846 C18.0904024,17.8623461 18.668528,17.8467211 19.3091536,17.7373459 C19.6372789,17.6748459 19.8560291,17.5967208 19.9341542,17.5185957 C20.0279043,17.4404707 20.1529044,17.2685955 20.3247795,16.9873452 L21.856031,15.0967184 C22.1060312,14.9248433 22.2622814,14.8154682 22.3404065,14.7842181 C22.4185315,14.7373431 22.4654066,14.5029679 22.5122816,14.0654674 C22.5435317,13.643592 22.5591567,13.1279666 22.5591567,12.518591 C22.5591567,11.9092154 22.5591567,11.3467149 22.5747817,10.8623394 Z" id="Path" fill="#FDE047"></path>
            <path d="M51.8966648,10.5967141 C52.115415,9.48733808 52.09979,8.20608686 51.7091646,7.15921086 C51.5372894,6.70608543 51.3497893,6.20608495 51.1466641,5.81545958 C50.5685385,4.72170853 49.5997876,3.97170782 48.2560363,3.58108245 C46.92791,3.19045707 45.6466588,3.04983194 44.4279077,3.15920704 C43.3029066,3.26858215 42.2716556,3.47170734 41.3966548,3.9560828 C40.7872792,4.28420812 40.1622786,4.86233367 39.490403,5.69045946 C38.8185273,6.51858525 38.2560268,7.26858596 37.7716513,7.86233653 C36.0372747,9.97171354 36.2872749,14.5185929 38.1622767,16.2998446 C38.8497773,16.9560952 39.6935281,17.3935956 40.7091541,17.5810958 C41.7404051,17.784221 42.8810312,17.8779711 44.1310324,17.8779711 C45.5685337,17.8779711 46.5997847,17.6279708 47.2091603,17.1123454 C47.8185359,16.6123449 48.4904115,16.0498443 49.1622872,15.4092187 C49.8029128,14.7998431 50.3185383,14.0029674 50.8185388,13.2529667 C51.3341642,12.502966 51.7091646,11.6123401 51.8966648,10.5967141 Z" id="Path" fill="#FDE047"></path>
            <path d="M57.3279062,15.4404688 C57.4841563,15.2373436 57.7341565,14.9248433 57.8591567,14.7373431 C58.0935319,14.3467177 58.202907,13.596717 58.171657,12.502966 C58.1404069,11.3935899 58.1247819,10.5654641 58.1247819,10.0029636 C58.1247819,9.44046304 58.1247819,8.70608733 58.1404069,7.78421146 C58.1560319,6.86233558 58.171657,5.92483468 58.171657,4.97170877 C58.171657,4.00295785 58.1560319,3.09670699 58.1091569,2.23733117 C58.0622819,1.37795535 57.9841568,0.72170472 57.8591567,0.268579288 C56.8591557,0.268579288 56.12478,0.237329258 55.6404045,0.174829199 C55.1560291,0.112329139 54.7810287,0.112329139 54.4841534,0.159204184 C54.2029032,0.206079228 53.9372779,0.362329377 53.7029027,0.627954631 C53.4685275,0.877954869 53.1091521,1.31545529 52.6247767,1.9560809 C52.0154011,2.73733164 51.6560257,3.17483206 51.5779007,3.25295713 C51.4997756,3.33108221 51.4216505,3.67483254 51.4060255,4.29983313 C51.3747755,5.47170925 51.3435254,6.69046041 51.3435254,7.76858644 L51.3435254,14.9404683 C51.3435254,15.5185938 51.3435254,16.0498443 51.3279004,16.5967199 C51.3122754,17.1435954 51.6091507,17.4560957 52.2029013,17.5185957 C52.6404017,17.5654708 53.2185272,17.5967208 53.9216529,17.6123458 C54.6247786,17.6435959 55.2185291,17.6279708 55.7185296,17.5654708 L57.3279062,15.4404688 Z" id="Path" fill="#FDE047"></path>
            <path d="M58.0091513,16.4717197 C58.7747771,16.0342193 58.2591516,17.0810953 60.837279,17.6904709 C62.2591554,18.0342212 63.7591568,18.1123463 65.3216502,17.9717212 C66.8997848,17.831096 68.181036,17.1748454 69.227912,16.0498443 C69.5872874,15.659219 69.7435375,15.3623437 70.1654129,14.9248433 C70.3841631,14.7060931 70.7122884,14.2998427 71.1654139,13.7217171 C71.6185393,13.1435916 71.9154146,12.7060911 72.0404147,12.4404659 C72.352915,11.7998403 72.5091652,11.2060897 72.5091652,10.6904642 C72.5247902,10.1748387 72.5872902,9.56546315 72.7279154,8.8779625 C72.7747904,8.59671223 72.7904154,8.04983671 72.8060404,7.25296095 C72.8216655,6.45608519 72.8216655,5.59670937 72.8060404,4.69045851 C72.7904154,3.78420764 72.7435404,2.92483182 72.6966653,2.12795606 C72.6497903,1.3310803 72.6029152,0.78420478 72.5404152,0.487329497 C71.8529145,0.471704482 71.1029138,0.424829437 70.274788,0.362329377 C69.4466622,0.284204303 68.7279115,0.346704363 68.102911,0.549829556 C67.8685357,0.81545481 67.6341605,1.20608018 67.3841603,1.51858048 C65.8997839,3.37795725 65.5872836,2.98733188 65.5872836,4.64358346 C65.5872836,6.76858549 65.5091585,8.8779625 65.5091585,11.0185895 C64.5716576,10.8310894 64.1029071,10.2060888 64.1185322,9.14358775 C64.1341572,8.06546172 64.1341572,7.04983576 64.1341572,6.09670985 C64.1341572,4.40920824 64.1497822,3.15920704 64.1654072,2.36233128 C64.1966572,1.54983051 64.1185322,1.00295499 63.931032,0.706079705 C63.7591568,0.409204422 63.4154065,0.268579288 62.899781,0.315454333 C62.3841555,0.346704363 61.6029048,0.362329377 60.5404037,0.346704363 C59.774778,0.346704363 59.2435275,0.596704601 58.9154022,1.09670508 C58.6029019,1.59670555 58.1029014,2.28420621 57.3216502,3.14358203 C57.1185255,3.36233224 57.0091504,3.51858239 56.9779003,3.62795749 C56.9466503,3.72170758 56.9310253,3.94045779 56.9310253,4.29983313 C56.9466503,5.40920919 56.9154003,6.72171044 56.8685252,8.23733689 C56.8060252,9.75296333 56.8060252,10.9404645 56.8685252,11.7998403 C56.9622753,12.8779663 57.0872754,13.6904671 57.2591506,14.2217176 C57.4154008,14.7373431 57.5716509,15.1279685 57.712276,15.3935937 C57.8529012,15.659219 57.9622763,15.8154691 58.0404014,15.9092192 C58.1185264,16.0185943 58.1029014,16.2060945 58.0091513,16.4717197 Z" id="Path" fill="#FDE047"></path>
            <path d="M78.9247819,12.3310908 C79.1591504,12.2842157 79.5810325,12.2685907 80.1747831,12.2685907 C80.7841587,12.2685907 81.2372841,12.2529657 81.5497844,12.2373407 C82.19041,12.2217157 82.6904105,11.8779654 83.0654108,11.2373397 C83.4560362,10.5967141 83.8466616,10.0498386 84.252912,9.59671318 C84.4091621,9.42483802 84.5185372,9.33108793 84.5810373,9.28421289 C84.6435374,9.23733784 84.6904124,9.04983766 84.7216624,8.70608733 C84.7997875,7.86233653 84.7216624,6.94046065 84.5029122,5.92483468 C84.284162,4.90920871 83.7997865,4.20608304 83.0654108,3.83108269 C82.2529101,3.4248323 81.5029094,3.31545719 80.8310337,3.51858239 C80.1591504,3.72170758 79.4716574,3.92483277 78.7529067,4.159208 L78.3310313,3.79983266 L74.831028,3.79983266 C74.2529024,3.98733283 74.0810273,4.31545815 73.831027,4.67483349 C72.4560257,6.62796035 72.1591504,6.06545982 72.1591504,8.2529619 L72.1591504,15.5185938 C72.1591504,16.1748445 72.1904005,16.72172 72.2529005,17.0967203 C72.3154006,17.4717207 72.737276,17.6592209 73.4872767,17.6592209 C76.2060293,17.6592209 75.9716541,18.0185962 77.0341551,16.6435949 C77.6279057,15.8779692 78.0341561,15.4092187 78.2841563,15.1748435 C78.5341565,14.9404683 78.6904067,14.7529681 78.7685318,14.612343 C78.8466568,14.4717178 78.8622818,14.2529676 78.8466568,13.9873424 C78.8310318,13.7217171 78.8622818,13.1592166 78.9247819,12.3310908 Z" id="Path" fill="#FDE047"></path>
            <path d="M89.9810312,15.4404688 C90.1372813,15.2373436 90.3872815,14.9248433 90.5122817,14.7373431 C90.7466569,14.3467177 90.856032,13.596717 90.824782,12.502966 C90.7935319,11.3935899 90.7779069,10.5654641 90.7779069,10.0029636 C90.7779069,9.44046304 90.7779069,8.70608733 90.7935319,7.78421146 C90.8091569,6.86233558 90.824782,5.92483468 90.824782,4.97170877 C90.824782,4.00295785 90.8091569,3.09670699 90.7622819,2.23733117 C90.7154069,1.37795535 90.6372818,0.72170472 90.5122817,0.268579288 C89.5122807,0.268579288 88.777905,0.237329258 88.2935295,0.174829199 C87.8091541,0.112329139 87.4341537,0.112329139 87.1372784,0.159204184 C86.8560282,0.206079228 86.5904029,0.362329377 86.3560277,0.627954631 C86.1216525,0.877954869 85.7622771,1.31545529 85.2779017,1.9560809 C84.6685261,2.73733164 84.3091507,3.17483206 84.2310257,3.25295713 C84.1529006,3.33108221 84.0747755,3.67483254 84.0591505,4.29983313 C84.0279005,5.47170925 83.9966504,6.69046041 83.9966504,7.76858644 L83.9966504,14.9404683 C83.9966504,15.5185938 83.9966504,16.0498443 83.9810254,16.5967199 C83.9654004,17.1435954 84.2622757,17.4560957 84.8560263,17.5185957 C85.2935267,17.5654708 85.8716522,17.5967208 86.5747779,17.6123458 C87.2779036,17.6435959 87.8716541,17.6279708 88.3716546,17.5654708 L89.9810312,15.4404688 Z" id="Path" fill="#FDE047"></path>
            <path d="M3.34665306,17.1748454 L4.83102947,15.4404688 C5.00290463,15.2373436 5.08102971,15.1123434 5.11227974,15.0498434 C5.14352977,14.9717183 5.2841549,14.9404683 5.51853013,14.9560933 C5.50290511,15.1435935 5.37790499,15.3779687 5.12790475,15.643594 C4.89352953,15.8623442 4.72165437,16.0498443 4.59665425,16.1592194 C4.08102876,16.6123449 3.8154035,16.9092202 3.78415347,17.0342203 C3.75290344,17.1748454 3.61227831,17.2217205 3.34665306,17.1748454 Z M2.84665258,16.9873452 L2.5497773,16.8467201 C2.59665234,16.6748449 2.78415252,16.3779697 3.19040291,15.9248442 C3.58102828,15.5185938 3.89352858,15.1748435 4.09665377,14.9404683 C4.2372789,14.7685931 4.33102899,14.659218 4.39352905,14.612343 C4.45602911,14.5498429 4.61227926,14.5810929 4.8622795,14.690468 C4.76852941,14.8935932 4.4404041,15.2998436 3.89352858,15.8935942 C3.34665306,16.5342198 3.00290273,16.8935951 2.84665258,16.9873452 Z M12.0341613,16.5654698 C12.1591615,16.2060945 12.5966619,15.8154691 12.8466621,15.5185938 C13.0185373,15.3154686 13.1435374,15.1123434 13.2529125,14.9404683 C13.3622876,14.7529681 13.5966628,14.627968 13.9560382,14.5810929 C13.5654128,15.3779687 12.7841621,16.1904695 12.0341613,16.5654698 Z M3.76852846,14.0654674 L4.11227879,14.2217176 C4.03415371,14.4248428 3.79977849,14.7529681 3.40915311,15.1748435 C3.01852774,15.5967189 2.75290249,15.8623442 2.58102733,16.0498443 C2.31540207,16.3467196 2.37790213,16.4404697 2.00290177,16.4873448 C1.97165174,16.1904695 2.237277,15.8154691 2.78415252,15.3467187 C3.34665306,14.8467182 3.65915335,14.4092178 3.76852846,14.0654674 Z M3.76852846,14.0654674 C3.48727819,14.2060926 3.14352786,14.5654679 2.72165246,15.1748435 C2.31540207,15.7842191 1.95602673,16.0810944 1.69040148,16.1904695 C1.51852631,15.7998441 1.90915168,15.4404688 2.3466521,14.8779682 C2.48727724,14.7060931 2.67477741,14.4717178 2.90915264,14.2060926 C3.14352786,13.9404673 3.36227807,13.7529671 3.56540326,13.6592171 C3.62790332,13.7529671 3.69040338,13.8935923 3.76852846,14.0654674 Z M2.75290249,12.9092163 L2.98727771,12.9092163 C3.04977777,13.2373417 3.11227783,13.2842167 3.284153,13.4717169 C3.17477789,13.6592171 1.62790142,15.706094 1.31540112,15.8154691 C1.190401,15.5810939 1.06540088,15.4248437 0.94040076,15.1592185 C1.190401,14.7842181 1.53415133,14.3779677 1.94040076,13.9560923 C2.39352715,13.5185919 2.67477741,13.1748416 2.75290249,12.9092163 Z M2.75290249,12.9092163 C2.56540231,12.9873414 2.25290201,13.3154667 1.83102661,13.8623423 C1.37790118,14.4092178 1.01852583,14.7529681 0.799775626,14.8935932 C0.299775149,14.0810925 0.20602506,13.6592171 0.784150611,13.0342165 C0.956025775,12.8623413 1.22165103,12.581091 1.54977634,12.2060907 C1.87790165,11.8310903 2.06540183,11.6123401 2.22165198,11.54984 C2.40915216,12.0029655 2.70602744,12.3935909 2.75290249,12.9092163 Z M2.83102756,10.1279637 C3.00290273,9.76858835 3.03415276,9.73733736 3.26852798,9.40921301 L3.75290344,8.73733736 L4.20602887,8.97171259 L3.65915335,9.69046327 C3.5029032,9.89358847 3.40915311,10.0185886 3.36227807,10.0654636 C3.31540303,10.1123387 3.14352786,10.1279637 2.83102756,10.1279637 Z M1.54977634,10.8154643 C1.47165127,10.5654641 1.53415133,10.5654641 1.81540159,10.1279637 C1.97165174,9.87796345 2.0341518,9.78421336 2.22165198,9.48733808 C2.31540207,9.36233796 2.47165222,9.14358775 2.67477741,8.83108745 C2.87790261,8.51858716 3.04977777,8.31546196 3.19040291,8.23733689 L3.42477813,8.44046208 C3.36227807,8.59671223 3.22165294,8.81546244 3.00290273,9.11233772 C2.78415252,9.40921301 2.62790237,9.62796321 2.51852727,9.78421336 C2.01852679,10.502964 1.81540159,10.8779644 1.79977658,10.8935894 C1.78415157,10.9092144 1.70602649,10.8935894 1.54977634,10.8154643 Z M1.12790094,10.3623389 C0.877900701,9.98733856 1.20602601,9.69046327 1.78415157,8.9873376 C2.0341518,8.6748373 2.37790213,7.9404616 2.86227759,7.73733641 C2.84665258,7.95608662 2.62790237,8.34671199 2.25290201,8.89358751 C1.89352667,9.44046304 1.62790142,9.84671342 1.42477622,10.0810886 L1.12790094,10.3623389 Z M0.752900582,9.89358847 C0.674775507,9.65921324 0.659150492,9.53421312 0.674775507,9.48733808 C0.690400522,9.44046304 0.784150611,9.33108793 0.956025775,9.15921277 C1.20602601,8.92483754 1.25290106,8.78421241 1.45602625,8.54983719 L2.51852727,7.31546101 C2.62790237,7.53421122 2.51852727,7.81546101 2.20602697,8.1435868 C1.90915168,8.47171211 1.65915145,8.84671247 1.36227616,9.23733784 C1.12790094,9.54983814 1.08102589,9.69046327 0.752900582,9.89358847 Z M0.440400284,8.65921229 C0.596650433,8.48733713 0.909150731,8.08108674 1.36227616,7.42483611 C1.81540159,6.76858549 2.06540183,6.39358513 2.22165198,6.28421003 L2.39352715,7.0967108 C2.14352691,7.33108602 1.87790165,7.7217114 1.51852631,8.2529619 C1.14352595,8.78421003 0.799775626,9.12796274 0.502900343,9.26858787 L0.440400284,8.65921229 Z M2.08102685,4.31545815 C1.90915168,4.75295856 1.69040148,5.03420883 1.44040124,5.39358418 C1.22165103,5.7373345 0.862275686,6.14358489 0.737275567,6.37796011 C0.784150611,5.98733474 0.987275805,5.58108435 1.31540112,5.17483397 C1.64352643,4.75295856 1.90915168,4.4717083 2.08102685,4.31545815 Z M2.08102685,4.31545815 C2.14352691,4.159208 2.17477694,4.08108292 2.15915192,4.09670794 L2.3466521,3.90920776 C2.3466521,4.20608304 2.25290201,4.72170853 2.237277,5.11233391 C2.22165198,5.56545934 2.19040195,5.83108459 2.20602697,5.90920776 C2.22165198,5.98733474 2.11227688,6.14358489 1.90915168,6.42483516 L0.487275328,8.26858692 C0.377900224,7.76858644 0.409150254,7.36233605 0.612275448,7.06546077 C0.815400641,6.75296047 0.987275805,6.45608519 1.190401,6.15920991 C1.59665139,5.54983432 1.90915168,4.8935837 2.3466521,4.45608328 C2.25290201,4.34670818 2.25290201,4.28420812 2.33102709,4.25295809 C2.40915216,4.22170806 2.33102709,4.23733307 2.08102685,4.31545815 Z M8.2216577,10.5967141 C8.40915788,10.7685893 8.56540803,10.9248395 8.69040815,11.0967146 C8.83103329,11.2529648 9.08103352,11.3310898 9.45603388,11.3779649 C9.90915931,11.4248399 10.2372846,11.4404649 10.4247848,11.3935899 C10.612285,11.3310898 10.8466602,11.1748397 11.1279105,10.9404645 C11.1904105,10.3779639 11.0341604,10.0498386 10.674785,9.97171354 C10.3154097,9.89358847 9.90915931,9.83108841 9.45603388,9.78421336 C6.47165604,9.50296309 2.42477718,9.12796274 2.59665234,5.42483421 C2.62790237,4.54983337 2.75290249,3.78420764 3.11227783,3.09670699 C3.58102828,2.22170615 4.34665401,1.56545552 5.45603007,1.11233009 C6.56540612,0.659204661 7.75290726,0.424829437 9.00290845,0.409204422 C10.2529096,0.377954392 11.4560358,0.549829556 12.5966619,0.940454929 C13.737288,1.31545529 14.5810388,1.89358084 15.1122893,2.67483158 C15.9560401,3.92483277 16.1279152,4.61233343 15.6279148,4.72170853 C15.1279143,4.83108364 14.3154135,4.86233367 13.1904124,4.79983361 C12.9560372,4.78420859 12.4872868,4.78420859 11.7841611,4.76858358 C11.0810354,4.75295856 10.674785,4.72170853 10.5497849,4.65920848 C10.2060346,4.53420836 9.94040934,4.36233319 9.76853418,4.12795797 C9.59665902,3.89358275 9.19040863,3.79983266 8.54978302,3.8467077 C8.04978254,3.89358275 7.73728224,4.08108292 7.59665711,4.40920824 C7.47165699,4.73733355 7.61228212,4.98733379 8.01853251,5.17483397 C8.20603269,5.26858406 8.56540803,5.36233415 9.11228355,5.45608424 C9.65915908,5.53420931 10.0810345,5.58108435 10.3466597,5.6279594 C11.0966604,5.7373345 11.8935362,5.87795964 12.737287,6.01858477 C13.5810378,6.14358489 14.2529135,6.39358513 14.7685389,6.81546053 C15.846665,7.69046137 16.3622905,9.25296286 16.1904153,10.7373393 C16.1122902,11.471715 15.877915,12.1748406 15.4716646,12.8154663 C15.0810392,13.4560919 14.5185387,13.9248423 13.784163,14.2217176 C12.6435369,14.7060931 10.7685351,15.0342184 8.9560334,15.0498434 C8.04978254,15.0654684 7.19040672,14.9873433 6.36228093,14.8310932 C5.53415514,14.674843 4.89352953,14.3935928 4.42477908,14.0185924 C3.86227855,13.565467 3.34665306,12.9560914 2.87790261,12.1279656 C2.40915216,11.2998398 2.37790213,10.7998393 2.78415252,10.6123392 C2.81540255,10.5967141 3.0810278,10.5967141 3.59665329,10.5967141 C4.11227879,10.5810891 4.67477932,10.5810891 5.31540493,10.5810891 C5.95603054,10.5810891 6.54978111,10.5967141 7.12790666,10.5967141 L8.2216577,10.5967141 Z M15.0341642,6.42483516 C15.2841644,5.98733474 15.86229,5.51858429 16.0497902,5.08108388 C16.3310404,4.45608328 16.1591653,3.83108269 15.89354,3.23733212 C14.2841635,-0.372046323 9.00290845,-0.418921368 5.89353048,0.502954512 C5.19040481,0.706079705 4.64352929,0.971704959 4.25290392,1.26858024 C3.86227855,1.54983051 3.44040314,1.86233081 3.0810278,2.29983123 L1.14352595,4.75295856 C0.393525239,5.69045946 0.0341498962,6.92483564 0.0497749111,8.34671199 C0.065399926,9.76858835 0.581025418,10.7529643 1.6122764,11.2998398 C1.56540136,11.4404649 1.39352619,11.7060902 1.12790094,12.0967156 C0.846650671,12.4873409 0.659150492,12.7060911 0.549775388,12.7842162 C0.409150254,12.9092163 0.284150135,12.9873414 0.20602506,13.0185914 C0.112274971,13.0498415 0.0497749111,13.2060916 0.00289986637,13.4873419 C-0.0127251485,13.7842172 0.0341498962,14.0967175 0.159150015,14.4404678 C1.67477646,18.5342217 6.69040624,18.4404716 10.3622847,17.5810958 C11.659161,17.2842205 12.5185368,16.8779701 12.9091622,16.4092197 C13.2997875,15.9560942 13.815413,15.3623437 14.4404136,14.5342179 C14.799789,14.0810925 15.2372894,13.8467172 15.5966647,13.3467168 C16.1591653,12.565466 16.4560406,11.6592152 16.5497906,10.6123392 C16.6435407,9.56546315 16.4872906,8.61233725 16.0654152,7.75296143 C15.9404151,7.5185862 15.7997899,7.25296095 15.5810397,7.01858573 L15.0341642,6.42483516 Z" id="Shape" fill="#000000" fill-rule="nonzero"></path>
            <path d="M23.4341575,16.9404702 C23.4185325,16.5185948 23.4185325,16.1748445 23.4029075,15.9404692 C23.4029075,15.7529691 23.4966576,15.5185938 23.6997828,15.2685936 C23.934158,14.9873433 24.1997832,14.5810929 24.5279086,14.0654674 C24.8560339,13.549842 25.0904091,13.2217166 25.2466592,13.1123415 L25.2154092,13.8154672 C25.1685342,14.7685931 25.8091598,14.3623427 23.996658,16.3935947 C23.8560329,16.5654698 23.7466578,16.6435949 23.7310328,16.6904699 C23.7154078,16.737345 23.6216577,16.8310951 23.4341575,16.9404702 Z M30.7935395,16.8467201 C30.6841644,15.721719 30.7154145,15.0029683 30.9185396,14.7529681 C31.1216648,14.4873428 31.4654152,13.9873424 31.9654156,13.2373417 C32.1060408,13.0185914 32.1997909,12.8623413 32.2466659,12.7842162 C32.293541,12.6904661 32.4185411,12.565466 32.6060413,12.4092159 C32.4810411,14.7217181 32.7935414,14.2842177 31.9185406,15.5342188 C31.5435402,16.0342193 31.277915,16.4560947 30.7935395,16.8467201 Z M25.1529091,11.2529648 C25.2622843,11.3467149 25.3091593,11.54984 25.3091593,11.8623403 C25.3091593,12.1748406 25.2935343,12.4092159 25.2622843,12.565466 C25.2310342,12.6592161 24.981034,13.0810915 24.5122835,13.8154672 C24.0435331,14.5498429 23.6997828,15.0185934 23.4654075,15.2060935 C23.4185325,12.8310913 24.4029084,13.0810915 25.1529091,11.2529648 Z M32.5435412,11.0029645 C32.7622914,11.3935899 32.7154164,11.8154653 32.4029161,12.2842157 C32.1060408,12.7529662 31.7935405,13.2060916 31.4810402,13.643592 C31.3560401,13.8310922 31.32479,13.9092173 31.1997899,14.0342174 L30.8404146,14.4248428 C30.8247896,13.4248418 31.0279148,12.7842162 31.4654152,12.5029645 C31.9029156,12.2060907 32.2622909,11.7060902 32.5435412,11.0029645 Z M17.668527,12.4717159 L17.8091521,12.3623408 L17.9029022,12.3154658 C17.9029022,13.2060916 17.8247772,13.9404673 18.0747774,14.7060931 C18.0435274,14.7373431 18.0279024,14.7529681 18.0279024,14.7685931 C18.0279024,14.7529681 18.0122773,14.7685931 17.9654023,14.8154682 L16.2779007,16.7998451 C16.2779007,16.7998451 16.2466507,16.78422 16.2310256,16.78422 C16.1216505,16.2998446 16.1685256,15.6123439 16.1841506,15.0498434 C16.1997756,14.5342179 16.637276,14.1279637 16.8247762,13.7060921 C16.7779012,13.7529671 16.7466511,13.7685922 16.7622761,13.7529671 L16.559151,14.0029674 C16.4497758,14.1123425 16.3247757,14.1904676 16.1841506,14.2685926 C16.1841506,13.596717 16.1841506,13.1592166 16.1997756,12.9404664 C16.1997756,12.7217162 16.3560258,12.3779658 16.6997761,11.9092154 C16.8247762,11.7373402 17.0591514,11.45609 17.3247767,11.0498396 C17.5747769,10.6279637 17.7310271,10.3310889 17.7779021,10.1279637 L17.9654023,10.1904638 C17.9497773,10.6279637 17.9497773,11.0342146 17.9341523,11.4092149 C17.9185273,11.8154653 17.8716522,12.0342155 17.8247772,12.0498405 C17.7935271,12.0654655 17.7466521,12.2060907 17.668527,12.4717159 Z M25.1529091,11.2529648 C24.9029089,11.3935899 24.6216586,11.7373402 24.3247834,12.2685907 C24.0279081,12.7998412 23.7622828,13.2060916 23.5122826,13.4717169 C23.4966576,13.0654665 23.5591576,12.7529662 23.7310328,12.518591 C23.902908,12.2842157 24.0904081,12.0029655 24.2779083,11.7060902 C24.5904086,11.2060897 24.8872839,10.5967141 25.2622843,10.1123387 C25.2779093,10.6748392 25.3404093,10.8154643 25.1529091,11.2529648 Z M32.5435412,11.0029645 C32.1841659,11.1279646 32.0591657,11.4404649 31.6841654,11.9560904 C31.5122902,12.1904657 31.4341651,12.2842157 31.309165,12.4717159 C31.1372899,12.7060911 31.0591648,12.8310913 31.0747898,12.8154663 C31.0904148,12.7998412 31.0122897,12.8623413 30.8247896,12.9717164 C30.8247896,12.549841 30.8404146,12.3310908 30.8716646,12.2842157 C30.9029146,12.2373407 31.1529149,11.9092154 31.6060403,11.3154648 C31.7935405,11.0654646 31.8872906,10.9717145 32.0904158,10.6748392 C32.340416,10.2998389 32.4341661,10.1279637 32.387291,10.1435887 C32.340416,10.1592137 32.4341661,10.0967137 32.6529163,9.98733856 L32.5435412,11.0029645 Z M23.5279076,12.534216 C23.4029075,12.0810906 23.4029075,11.7685903 23.5279076,11.5654651 C23.6529077,11.3623399 23.8247829,11.0967146 24.0435331,10.7998393 C24.4029084,10.2998389 24.7466588,9.58108817 25.1997842,9.20608781 C25.2779093,9.58108817 25.2622843,9.81546339 25.1685342,9.90921348 C25.0904091,10.0029636 24.8716589,10.3467139 24.5279086,10.9404645 C24.2154083,11.502965 23.902908,12.0498405 23.5279076,12.534216 Z M30.7935395,11.9092154 C30.7935395,11.3310898 31.26229,10.9404645 31.5747903,10.502964 C31.7779155,10.2060888 31.8091655,10.1123387 32.0279157,9.83108841 L32.5435412,9.1904628 C32.6841663,9.56546315 32.5904162,9.90921348 32.2779159,10.2060888 C31.9810407,10.502964 31.6529153,10.8935894 31.32479,11.3623399 C31.1997899,11.54984 31.2310399,11.534215 31.0904148,11.7060902 C30.9497897,11.8623403 30.9029146,11.9248404 30.9341647,11.8935904 C30.9810397,11.8467153 30.9341647,11.8623403 30.7935395,11.9092154 Z M17.7779021,10.1279637 C17.4966518,10.2842138 17.2779016,10.5967141 17.0435264,11.0654646 C16.7935262,11.534215 16.5279009,11.8779654 16.2466507,12.1123406 C16.1685256,11.3154648 16.2466507,10.7373393 16.4497758,10.3935889 C16.652901,10.0342136 17.0591514,9.44046304 17.606027,8.61233725 L17.9810273,8.19046184 C17.9810273,8.94046256 17.9497773,9.58108817 17.7779021,10.1279637 Z M23.1060322,10.6279642 C23.5435326,10.3779639 23.8872829,9.97171354 24.1372832,9.39358799 C24.3872834,8.81546244 24.6529087,8.44046208 24.9185339,8.23733689 C25.043534,8.50296214 25.0747841,8.65921229 25.027909,8.70608733 C24.981034,8.75296238 24.9029089,8.8779625 24.7622838,9.06546268 L23.2779074,11.1904647 L23.1060322,10.6279642 Z M32.1997909,8.1435868 C32.309166,8.23733689 32.371666,8.28421193 32.371666,8.29983695 C32.371666,8.31546196 32.387291,8.39358704 32.4341661,8.54983719 C32.4029161,8.61233725 31.0279148,10.7998393 30.6216644,11.0498396 L30.4654142,10.5810891 L32.1997909,8.1435868 Z M16.2622757,10.2060888 C16.1997756,9.67483826 16.2310256,9.2998379 16.3716508,9.06546268 C16.4966509,8.83108745 16.6685261,8.54983719 16.8716513,8.26858692 L17.8091521,6.94046065 C17.8560272,6.89358561 17.8716522,6.89358561 17.8716522,6.92483564 L17.9966523,6.92483564 L17.9810273,7.92483659 C17.652902,8.22171187 17.3716517,8.59671223 17.1529015,9.04983766 C16.9029013,9.50296309 16.590401,9.89358847 16.2622757,10.2060888 Z M21.9810311,14.5498429 C21.5747807,14.7373431 21.0122802,14.8310932 20.2935295,14.8467182 C19.5904038,14.8467182 19.0122783,14.7842181 18.5747779,14.674843 C18.3404027,14.2217176 18.2466526,13.4248418 18.2779026,12.2842157 C18.3247776,11.1435897 18.3560277,10.2685888 18.3872777,9.65921324 C18.4341527,8.50296214 18.2466526,5.11233391 18.5747779,4.33108316 L21.9029061,4.29983313 L22.1372813,4.84670865 C22.5591567,4.79983361 22.9654071,4.64358346 23.3404074,4.34670818 C23.7154078,4.04983289 24.4654085,3.92483277 25.6060346,4.00295785 C26.4341604,4.04983289 27.3716613,4.37795821 28.0435369,4.76858358 C29.4341632,5.56545934 28.3560372,5.29983409 30.4341642,4.44045827 C31.3404151,4.06545791 32.371666,3.92483277 33.5122921,4.03420788 C34.6685432,4.14358298 35.512294,4.59670842 36.0279195,5.40920919 C36.4341699,6.06545982 36.6685451,6.70608543 36.7154202,7.34671104 C36.7622952,7.98733665 36.7935453,8.72171235 36.7935453,9.56546315 C36.7935453,10.9717145 36.7935453,12.0342155 36.8404203,12.7685912 C36.8716703,13.4873419 36.8716703,14.0029674 36.7935453,14.2998427 C36.7310452,14.596718 36.574795,14.7529681 36.3247948,14.7685931 C36.0747946,14.7842181 35.6685442,14.7529681 35.1060436,14.7373431 C34.481043,14.7060931 33.6841673,14.7685931 33.1372918,14.5654679 C32.9497916,14.1279675 32.8872915,13.5029669 32.9497916,12.6748411 C33.0279167,11.8467153 33.0591667,11.0185895 33.0747917,10.2217138 C33.0904167,9.40921301 32.9810416,8.72171235 32.7622914,8.1435868 C32.5591662,7.56546125 32.0747908,7.28421098 31.32479,7.34671104 C30.6216644,7.39358608 30.1372889,7.7217114 29.8872887,8.26858692 C29.6529134,8.81546244 29.5122883,9.45608805 29.4654133,10.2060888 C29.4341632,10.9560895 29.4341632,11.7373402 29.4810383,12.549841 C29.5279133,13.3623418 29.4810383,14.0654674 29.3560382,14.643593 C28.3560372,14.8467182 27.2310361,14.7998431 26.1685351,14.7998431 C25.7310347,14.7217181 25.5435345,14.2060926 25.6216596,13.2685917 C25.6997847,12.3310908 25.7466597,11.502965 25.7310347,10.7998393 C25.7154097,10.1435887 25.6529096,9.42483802 25.5122845,8.65921229 C25.3716594,7.89358656 24.981034,7.45608614 24.3404084,7.36233605 C23.5904077,7.25296095 22.9810321,7.58108626 22.6529068,7.95608662 C22.1685313,8.51858716 22.1372813,9.83108841 22.1372813,11.1592147 C22.1529063,12.4873409 22.2154063,13.8623423 21.9810311,14.5498429 Z M16.2622757,8.33108698 C16.2622757,8.20608686 16.3872758,7.97171163 16.621651,7.64358632 C16.8560262,7.29983599 17.0435264,7.06546077 17.1216515,6.94046065 L17.9341523,5.65920943 C17.9341523,5.64358441 17.9654023,5.6279594 18.0279024,5.59670937 C17.9654023,6.22170997 17.8872772,6.58108531 17.8091521,6.69046041 C17.7310271,6.7842105 17.5435269,7.00296071 17.3091517,7.36233605 C17.1841516,7.53421122 17.0279014,7.78421146 16.8247762,8.09670937 C16.621651,8.39358704 16.4497758,8.61233725 16.2779007,8.75296238 L16.2622757,8.33108698 Z M16.2779007,7.75296143 C16.2779007,7.47171116 16.2935257,7.29983599 16.3247757,7.22171092 C16.3404007,7.14358584 16.4185258,7.01858573 16.5435259,6.81546053 C16.7154011,6.56546029 16.9810264,6.20608495 17.2779007,5.72170949 C17.5591519,5.23733403 17.7935271,4.92483373 17.9966523,4.76858358 C17.9810273,5.206084 17.7622771,5.75295952 17.3247767,6.39358513 C16.9029013,7.03421074 16.5279009,7.48733617 16.2779007,7.75296143 Z M22.5747817,10.8623394 C22.871657,11.1279646 22.934157,11.4404649 22.9966571,11.9404654 C23.0591572,12.3310908 23.0904072,12.7842162 23.0904072,13.1435916 C23.1216572,14.2685926 23.0904072,15.1592185 23.0279071,15.8154691 C22.9654071,16.4248447 22.9966571,16.9092202 23.1216572,17.2373455 C23.2466573,17.5654708 23.5435326,17.768596 23.996658,17.815471 C24.4497835,17.8779711 25.2154092,17.8779711 26.2779102,17.784221 C26.8872858,17.7373459 27.2622862,17.6592209 27.3716613,17.5810958 C27.4966614,17.5029707 27.7154116,17.2685955 28.0435369,16.8623451 C28.4185373,16.3779697 28.8716627,15.8779692 29.215413,15.4248437 C29.3560382,15.2373436 29.3560382,15.1435935 29.4654133,15.0029683 C29.6997885,14.690468 29.8091636,14.4873428 29.8247886,14.4092178 C29.8404136,14.3154677 29.8560386,13.9717174 29.9029137,13.3779668 C29.9497887,12.565466 29.9341637,11.6435901 29.9497887,10.7685893 C30.0279138,10.8779644 30.0122888,10.8310894 30.1372889,10.9717145 C30.1529139,11.0029645 30.1841639,11.0498396 30.215414,11.1123396 C30.3560391,11.4404649 30.4185392,11.9873405 30.4185392,12.7373412 L30.4185392,14.3779677 C30.4185392,15.4560938 30.3716641,16.0654694 30.3091641,16.3310946 C30.246664,16.5967199 30.4185392,17.0342203 30.8091645,17.6748459 C31.246665,17.6748459 31.8872906,17.7060959 32.7310414,17.768596 C33.5747922,17.8467211 34.1685427,17.831096 34.5279181,17.7373459 C34.7622933,17.6748459 34.9497935,17.5498458 35.0747936,17.3467206 C35.1997937,17.1435954 35.3404189,16.9717202 35.512294,16.8310951 C35.7310442,16.6123449 36.0435445,16.2373445 36.4341699,15.7529691 C36.8404203,15.2060935 37.0747955,14.8623432 37.1372956,14.7060931 C37.1997956,14.5498429 37.2310457,14.2685926 37.2154207,13.8623423 C37.1997956,13.4560919 37.1997956,13.1435916 37.1997956,12.9248414 C37.1997956,11.2842148 37.3247958,9.2998379 37.1060455,7.61233629 C36.8872953,5.92483468 36.3247948,4.50295833 34.9029184,3.9560828 C33.9185425,3.58108245 32.6060413,3.4248323 31.4810402,3.67483254 C30.8716646,3.79983266 30.4029142,3.98733283 30.0591638,4.19045803 C29.7154135,4.39358322 29.3091631,4.59670842 28.8560377,4.76858358 C27.6529115,4.12795797 26.6372856,3.7373326 25.7779097,3.59670746 C24.9341589,3.45608233 23.8247829,3.67483254 22.4654066,4.2685831 C22.0591562,3.98733283 21.7622809,3.86233272 21.5904058,3.87795773 C21.4185306,3.89358275 21.0435302,3.89358275 20.4497797,3.89358275 C19.6372789,3.89358275 18.8560281,3.87795773 18.0904024,3.86233272 L16.4029008,6.23733498 C15.9654004,6.84671056 15.7779002,7.39358608 15.8247753,7.84671152 C15.8716503,8.29983695 15.8716503,8.94046256 15.8247753,9.78421336 C15.7622752,11.0967146 15.7779002,12.6123411 15.7779002,13.9248423 C15.7779002,15.1592185 15.7779002,15.5498439 15.7935252,15.8623442 C15.8091502,16.2373445 15.8716503,16.5810948 16.0122754,17.7060959 C16.574776,17.7060959 17.1060265,17.7373459 17.5747769,17.799846 C18.0904024,17.8623461 18.668528,17.8467211 19.3091536,17.7373459 C19.6372789,17.6748459 19.8560291,17.5967208 19.9341542,17.5185957 C20.0279043,17.4404707 20.1529044,17.2685955 20.3247795,16.9873452 L21.856031,15.0967184 C22.1060312,14.9248433 22.2622814,14.8154682 22.3404065,14.7842181 C22.4185315,14.7373431 22.4654066,14.5029679 22.5122816,14.0654674 C22.5435317,13.643592 22.5591567,13.1279666 22.5591567,12.518591 C22.5591567,11.9092154 22.5591567,11.3467149 22.5747817,10.8623394 Z" id="Shape" fill="#000000" fill-rule="nonzero"></path>
            <path d="M47.1310352,16.6123449 L48.4591615,15.0342184 C48.5060365,14.9873433 48.5997866,14.9248433 48.7404118,14.8623432 C48.943537,14.7842181 49.0372871,14.7685931 49.021662,14.7998431 C49.006037,14.8310932 49.006037,14.8623432 49.0529121,14.8779682 C49.0529121,14.9092183 48.8185368,15.1748435 48.3497864,15.659219 C47.896661,16.0967194 47.4904106,16.4404697 47.1310352,16.6123449 Z M39.4747779,16.8154701 C39.552903,16.5810948 39.7404032,16.2685945 40.0841535,15.8623442 C40.4122788,15.5029688 40.6779041,15.2060935 40.8341542,15.0185934 C41.0216544,14.7685931 41.1466545,14.7373431 41.3497797,14.4404678 L41.7716551,14.596718 C41.677905,14.7842181 41.3341547,15.1904685 40.7404041,15.8154691 C40.1466536,16.4092197 39.7247782,16.75297 39.4747779,16.8154701 Z M40.6622791,13.9717174 L41.0060294,14.1592175 C40.9279043,14.3467177 40.7716542,14.5810929 40.552904,14.8467182 C40.3497788,15.1123434 40.1779036,15.3154686 40.0372785,15.4717174 C39.4747779,16.0498443 39.2404027,16.5967199 38.9122774,16.4248447 C38.6154021,16.2529695 40.3654038,14.1748426 40.6622791,13.9717174 Z M38.0372766,15.5185938 C38.1622767,15.4560938 38.2872768,15.2998436 38.474777,15.0498434 C38.6622772,14.7842181 38.8029023,14.596718 38.9122774,14.4560928 C39.2247777,14.0342174 39.506028,13.627967 39.8810283,13.2529667 L40.3029037,13.596717 C40.1154035,14.0967175 39.7091532,14.4560928 39.4122779,14.8467182 C39.0997776,15.2842186 38.7872773,15.7998441 38.4122769,16.0029693 L38.0372766,15.5185938 Z M38.0372766,15.5185938 C37.8966514,15.3935937 37.8185264,15.3310937 37.8029013,15.3154686 C37.7872763,15.2998436 37.7247763,15.2060935 37.6466512,15.0342184 C37.7872763,14.7529681 38.0841516,14.3779677 38.459152,13.9248423 C38.8810274,13.4560919 39.1935277,13.0185914 39.3966529,12.6279661 L39.8029032,13.0342165 C39.6466512,13.2217166 39.3185278,13.643592 38.8029023,14.2842177 C38.2872768,14.9248433 38.0685266,15.3310937 38.0372766,15.5185938 Z M37.6310262,14.7529681 C37.3029009,14.4873428 37.2560258,14.1748426 37.1779007,13.6748421 C37.443526,13.581092 37.7560263,13.2842167 38.0685266,12.7685912 C38.3654019,12.2529657 38.6622772,11.8467153 38.9904025,11.51859 L39.3810278,12.3779658 C39.0060275,12.9248414 38.6779007,13.3623418 38.4122769,13.6748421 C38.1622767,13.9717174 37.9279015,14.3310927 37.6310262,14.7529681 Z M37.0997757,13.581092 C37.0685256,13.3154667 37.0216506,12.9092163 36.9747756,12.3623408 C36.9279005,11.8154653 36.9279005,11.4092149 36.9904006,11.1279646 C37.0372756,10.9404645 37.3185259,10.502964 37.7872763,9.83108841 C38.2404018,9.14358775 38.5529021,8.70608733 38.7091522,8.51858716 C38.8185273,9.08108769 38.7404022,9.69046327 38.8029023,10.2529638 C38.8341523,10.6279642 38.8654024,10.8779644 38.9122774,10.9873395 C38.9591524,11.0967146 38.9122774,11.2998398 38.7091522,11.54984 L37.0997757,13.581092 Z M51.5685395,9.47171306 C51.3654143,11.6279651 50.7404137,13.0967165 49.6622877,13.8935923 C48.5841616,14.674843 47.0372851,15.0029683 45.0216582,14.8623432 C43.0685314,14.7373431 41.5529049,14.2373426 40.5060289,13.3467168 C39.4591529,12.4560909 39.0060275,10.9404645 39.1154026,8.79983742 C39.2091527,7.06546077 39.7091532,5.81545958 40.6466541,5.01858382 C41.5841549,4.22170806 42.662281,3.7373326 43.8654071,3.58108245 C45.0685333,3.40920728 46.2716594,3.50295737 47.4435355,3.83108269 C48.6154117,4.159208 49.5060375,4.5810834 50.0841631,5.09670889 C50.5060385,5.48733427 50.8654138,6.12795988 51.1935391,7.01858573 C51.5060394,7.89358656 51.6466645,8.70608733 51.5685395,9.47171306 Z M37.5841511,8.92483754 C37.6466512,8.75296238 37.6935262,8.6748373 37.7091513,8.65921229 C37.7247763,8.64358728 37.7872763,8.59671223 37.9122764,8.51858716 L37.5841511,8.92483754 Z M37.0997757,10.440464 C37.1622757,9.97171354 37.443526,9.42483802 37.9122764,8.81546244 C38.3654019,8.19046184 38.6779022,7.81546149 38.8654024,7.67483635 C38.8029023,7.98733665 38.5841521,8.39358704 38.2404018,8.89358751 C37.9279015,9.39358799 37.6622762,9.79983838 37.427901,10.0967137 L37.0997757,10.440464 Z M51.8966648,10.5967141 C52.115415,9.48733808 52.09979,8.20608686 51.7091646,7.15921086 C51.5372894,6.70608543 51.3497893,6.20608495 51.1466641,5.81545958 C50.5685385,4.72170853 49.5997876,3.97170782 48.2560363,3.58108245 C46.92791,3.19045707 45.6466588,3.04983194 44.4279077,3.15920704 C43.3029066,3.26858215 42.2716556,3.47170734 41.3966548,3.9560828 C40.7872792,4.28420812 40.1622786,4.86233367 39.490403,5.69045946 C38.8185273,6.51858525 38.2560268,7.26858596 37.7716513,7.86233653 C36.0372747,9.97171354 36.2872749,14.5185929 38.1622767,16.2998446 C38.8497773,16.9560952 39.6935281,17.3935956 40.7091541,17.5810958 C41.7404051,17.784221 42.8810312,17.8779711 44.1310324,17.8779711 C45.5685337,17.8779711 46.5997847,17.6279708 47.2091603,17.1123454 C47.8185359,16.6123449 48.4904115,16.0498443 49.1622872,15.4092187 C49.8029128,14.7998431 50.3185383,14.0029674 50.8185388,13.2529667 C51.3341642,12.502966 51.7091646,11.6123401 51.8966648,10.5967141 Z M44.4122826,10.440464 C44.5841578,10.7060892 44.6622829,10.9717145 44.6466579,11.2217147 C44.3966576,11.0498396 44.1935324,10.8779644 44.0529073,10.7060892 C43.9122822,10.5342141 43.8185321,10.2373388 43.756032,9.79983838 C44.1466574,9.98733856 44.1779074,10.0810886 44.4122826,10.440464 Z M45.1466583,11.3623399 C45.1779084,11.0967146 45.2091584,10.9873395 45.2247834,11.0185895 C45.2560334,11.0498396 45.3497835,10.9717145 45.5216587,10.7685893 L46.0216592,10.1435887 C46.1154093,10.0342136 46.2560344,9.81546339 46.4591596,9.51858811 C46.6622848,9.20608781 46.849785,9.01858763 46.9904101,8.94046256 C46.9904101,9.62796321 46.86541,10.2217138 46.6154097,10.7217143 C46.3654095,11.2060897 45.881034,11.4248399 45.1466583,11.3623399 Z M45.1779084,10.9717145 C45.1779084,10.9717145 45.1154083,10.9404645 44.9904082,10.8935894 C44.8810331,10.8310894 45.0216582,10.6123392 45.3185335,10.2060888 L46.8185349,8.19046184 L46.9435351,8.69046184 L45.5841588,10.3779639 L45.3185335,10.6435892 C45.3029085,10.6592142 45.2560334,10.7685893 45.1779084,10.9717145 Z M44.818533,10.1592137 C44.787283,10.1123387 44.756033,10.0810886 44.7247829,10.0967137 C44.7091579,10.0967137 44.771658,10.0029636 44.9122831,9.83108841 C45.0372832,9.65921324 45.0372832,9.70608829 45.1622834,9.50296309 L46.2247844,7.78421146 C46.3497845,7.62796131 46.3810345,7.56546125 46.3341595,7.59671128 C46.2872844,7.62796131 46.3654095,7.61233629 46.5841597,7.56546125 C46.5372847,8.01858668 44.9747832,10.1904638 44.818533,10.1592137 Z M44.9435332,6.76858549 C44.2404075,6.90921062 43.756032,7.28421098 43.4747818,7.87796154 C43.2091565,8.47171211 43.0997814,9.08108769 43.2091565,9.7217133 C43.3029066,10.3467139 43.5841569,10.8935894 44.0216573,11.3467149 C44.4591577,11.7998403 45.0529083,11.9404654 45.787284,11.7998403 C46.3341595,11.6904652 46.7560349,11.3310898 47.0372851,10.7373393 C47.3341604,10.1435887 47.4435355,9.50296309 47.3654105,8.79983742 C47.1935353,7.36233605 46.4591596,6.45608519 44.9435332,6.76858549 Z" id="Shape" fill="#000000" fill-rule="nonzero"></path>
            <path d="M51.7497758,16.6748449 C51.7497758,16.2998446 51.7341508,15.659219 51.7185258,14.643593 C51.6872758,13.627967 51.7185258,12.9873414 51.7966509,12.7529662 C51.937276,12.565466 53.2810273,10.5342141 53.4685275,10.3467139 C53.5154025,11.8310903 53.4529025,13.3467139 53.5935276,14.7373431 C53.4997775,14.8154682 53.3435274,14.9717183 53.1404022,15.2060935 C52.937277,15.4404688 52.7810268,15.6123439 52.6872767,15.737344 C52.4841515,15.9873443 52.1872763,16.4248447 51.7497758,16.6748449 Z M57.4529063,14.5498429 C56.9060308,14.596718 56.2810302,14.627968 55.5622795,14.627968 C54.8435288,14.627968 54.2966533,14.5029679 53.9216529,14.2529676 C53.9060279,13.612342 53.8747779,12.6592161 53.8747779,11.3935899 L53.8747779,7.45608614 C53.8747779,6.08108483 53.9060279,4.78420859 53.9216529,3.54983242 C53.9372779,2.31545624 53.968528,1.40920538 54.015403,0.81545481 C54.3747779,0.659204661 54.9372789,0.565454571 55.7185296,0.549829556 C56.5154054,0.534204541 57.124781,0.596704601 57.5779064,0.737329735 C57.7185315,1.70608066 57.7810316,2.84670675 57.7497816,4.159208 C57.7341565,5.45608424 57.7185315,6.62796035 57.7185315,7.65921134 C57.7185315,7.98733665 57.7185315,8.48733713 57.7341565,9.1904628 C57.7497816,9.87796345 57.7654066,10.5967141 57.7654066,11.3310898 C57.7654066,12.0654655 57.7497816,12.7529662 57.7029065,13.3779668 C57.6560315,13.9873424 57.5779064,14.3779677 57.4529063,14.5498429 Z M51.952901,10.2217138 C52.2185263,9.97171354 52.4529015,9.48733808 52.6404017,9.17483778 C52.7654018,8.9873376 52.8279019,8.90921253 52.999777,8.65921229 C53.0622771,8.54983719 53.1091521,8.50296214 53.1872772,8.39358704 L53.4685275,8.06546172 C53.4685275,8.78421241 53.4685275,9.28421289 53.4841525,9.54983814 C53.4997775,9.81546339 53.4841525,10.0185886 53.4372774,10.1279637 C53.4060274,10.2373388 53.3279023,10.3623389 53.2029022,10.471714 C53.0779021,10.5810891 52.8904019,10.8623394 52.6404017,11.2529648 C52.3904014,11.6435901 52.1247762,12.1592156 51.7497758,12.3935909 C51.7497758,10.7217143 51.6560257,11.502965 51.952901,10.2217138 Z M51.952901,10.2217138 C51.7654008,10.2685845 51.7029008,10.2998389 51.7497758,10.2842138 C51.7966509,10.2685845 51.7966509,10.2060888 51.7497758,10.1279637 C51.7497758,9.62796321 51.7497758,9.20608781 51.7341508,8.86233748 C51.7185258,8.51858716 51.8122759,8.17483683 52.0310261,7.84671152 C52.1872763,7.62796131 52.3904014,7.34671104 52.6091517,7.01858573 C52.8122768,6.69046041 52.937277,6.40921014 52.999777,6.19045994 C53.1247771,6.09670985 53.1872772,6.03420979 53.2029022,5.98733474 C53.2185272,5.9404597 53.3122773,5.87795964 53.4841525,5.76858453 L53.4685275,7.65921134 C53.3591524,8.00296166 53.0779021,8.40921205 52.6404017,8.89358751 C52.2185263,9.37796298 51.9841511,9.81546339 51.952901,10.2217138 Z M52.999777,6.19045994 C52.7341518,6.34671008 52.5622766,6.61233534 52.4060265,6.9873357 C52.2341513,7.36233605 52.0154011,7.62796131 51.7497758,7.78421146 C51.7654008,7.06546077 51.7810259,6.64358537 51.8122759,6.53421026 C51.8279009,6.40921014 51.9997761,6.12795988 52.3122764,5.67483444 C52.4841515,5.44045922 52.6404017,5.19045898 52.8435269,4.92483373 C52.999777,4.73733355 53.0935271,4.61233343 53.1247771,4.54983337 C53.1560272,4.4717083 53.2810273,4.36233319 53.5154025,4.20608304 C53.4685275,4.98733379 53.4529025,5.40920919 53.4372774,5.47170925 C53.4372774,5.51858429 53.2966523,5.76858453 52.999777,6.19045994 Z M53.3435274,2.83108173 C53.4685275,2.87795678 53.5310275,2.89358179 53.5310275,2.86233176 C53.5466525,2.83108173 53.5466525,2.97170687 53.5622776,3.28420716 C53.5779026,3.67483254 53.4529025,3.98733283 53.1872772,4.23733307 C52.937277,4.48733331 52.6560267,4.86233367 52.3435264,5.36233415 C52.1716512,5.61233438 52.0935262,5.86233462 51.7966509,5.92483468 C51.7810259,5.11233391 51.9841511,4.54983337 52.3747764,4.23733307 C52.7185268,3.92483277 53.0622771,3.45608233 53.3435274,2.83108173 Z M53.3435274,2.83108173 C53.0935271,2.97170687 52.8591519,3.23733212 52.6247767,3.65920752 C52.3747764,4.06545791 52.1091512,4.39358322 51.8591509,4.62795845 C51.8435259,4.29983313 52.0779011,3.86233272 52.5154016,3.29983218 C52.937277,2.72170663 53.2810273,2.33108126 53.5310275,2.11233105 C53.5466525,2.3779563 53.5466525,2.51858143 53.5310275,2.53420645 C53.5154025,2.54983146 53.4529025,2.65920657 53.3435274,2.83108173 Z M53.015402,2.29983123 C52.937277,2.45608137 52.7654018,2.72170663 52.4997766,3.112332 C52.2185263,3.50295737 51.968526,3.7373326 51.8122759,3.83108269 C51.8591509,3.47170734 52.1091512,3.14358203 52.3435264,2.90920681 C52.5154016,2.76858167 52.5622766,2.70608161 52.6404017,2.58108149 C52.6560267,2.56545648 52.8122759,2.42483134 52.8122759,2.42483134 C52.952902,2.29983123 52.8435269,2.3779563 53.015402,2.29983123 Z M53.015402,2.29983123 C53.1091521,1.97170591 53.2966523,1.70608066 53.5779026,1.50295547 C53.5310275,1.70608066 53.5154025,1.79983075 53.5154025,1.79983075 L53.3747774,1.98733093 L53.015402,2.29983123 Z M57.3279062,15.4404688 C57.4841563,15.2373436 57.7341565,14.9248433 57.8591567,14.7373431 C58.0935319,14.3467177 58.202907,13.596717 58.171657,12.502966 C58.1404069,11.3935899 58.1247819,10.5654641 58.1247819,10.0029636 C58.1247819,9.44046304 58.1247819,8.70608733 58.1404069,7.78421146 C58.1560319,6.86233558 58.171657,5.92483468 58.171657,4.97170877 C58.171657,4.00295785 58.1560319,3.09670699 58.1091569,2.23733117 C58.0622819,1.37795535 57.9841568,0.72170472 57.8591567,0.268579288 C56.8591557,0.268579288 56.12478,0.237329258 55.6404045,0.174829199 C55.1560291,0.112329139 54.7810287,0.112329139 54.4841534,0.159204184 C54.2029032,0.206079228 53.9372779,0.362329377 53.7029027,0.627954631 C53.4685275,0.877954869 53.1091521,1.31545529 52.6247767,1.9560809 C52.0154011,2.73733164 51.6560257,3.17483206 51.5779007,3.25295713 C51.4997756,3.33108221 51.4216505,3.67483254 51.4060255,4.29983313 C51.3747755,5.47170925 51.3435254,6.69046041 51.3435254,7.76858644 L51.3435254,14.9404683 C51.3435254,15.5185938 51.3435254,16.0498443 51.3279004,16.5967199 C51.3122754,17.1435954 51.6091507,17.4560957 52.2029013,17.5185957 C52.6404017,17.5654708 53.2185272,17.5967208 53.9216529,17.6123458 C54.6247786,17.6435959 55.2185291,17.6279708 55.7185296,17.5654708 L57.3279062,15.4404688 Z" id="Shape" fill="#000000" fill-rule="nonzero"></path>
            <path d="M67.3060352,17.0498453 C67.3841603,16.8623451 67.6810356,16.4717197 68.2435361,15.8623442 C68.7904116,15.2998436 69.196662,14.9873433 69.4466622,14.9560933 C68.9622868,15.9560933 68.3216612,16.5342198 67.3060352,17.0498453 Z M59.8216531,17.0342203 L60.8841541,15.721719 L61.1966544,15.4092187 C61.2122794,15.3779687 61.2904045,15.2529686 61.4466546,15.0498434 C61.6810298,14.7373431 61.8060299,14.659218 62.1966553,14.8310932 C62.1029052,15.0185934 61.86853,15.3310937 61.4466546,15.7685941 C61.0404042,16.1592194 60.7435289,16.4717197 60.5404037,16.6592199 C60.3685286,16.7998451 60.2747785,16.8935951 60.2435285,16.9717202 C60.2122784,17.0498453 60.0716533,17.0654703 59.8216531,17.0342203 Z M59.4154027,16.72172 L59.1029024,16.5654698 L61.0560292,14.2060926 L61.4622796,14.4560928 C61.3997796,14.5810929 61.3841545,14.627968 61.3997796,14.612343 C61.4154046,14.596718 61.3997796,14.643593 61.2747794,14.7685931 L60.4310286,15.6123439 C60.2279034,15.8154691 60.1185283,15.9092192 59.9154031,16.1435944 C59.6810279,16.3935947 59.727903,16.4717197 59.4154027,16.72172 Z M58.665402,16.1748445 C58.5560268,16.0029693 58.5404018,15.8623442 58.6029019,15.8154691 C58.681027,15.721719 58.9466522,15.4248437 59.4154027,14.9248433 C59.790403,14.5029679 60.1341534,13.8935923 60.5716538,13.7060921 C60.7591539,13.8310922 60.6654039,14.1123425 60.2747785,14.5342179 C59.8841531,14.9560933 59.5560278,15.3310937 59.2904025,15.690469 C59.1654024,15.8154691 59.1654024,15.7998441 59.0247773,15.9248442 C58.8841522,16.0498443 58.8216521,16.1123444 58.8372771,16.0967194 C58.8529021,16.0967194 58.8060271,16.1279694 58.665402,16.1748445 Z M58.3372766,15.8154691 C58.3529017,15.3310937 58.712277,14.9560933 59.1497774,14.4404678 C59.3529026,14.1904676 59.4779027,14.0967175 59.6654029,13.8310922 C59.8997781,13.5342169 59.9154031,13.549842 60.1654034,13.2998417 C60.3372766,13.5185919 60.2435285,13.7998417 59.8997781,14.1279675 C59.5716528,14.4560928 59.2435275,14.8310932 58.9466522,15.2373436 C58.759152,15.4873438 58.6497769,15.674844 58.3372766,15.8154691 Z M59.0247773,8.94046256 C59.0716523,9.73733832 59.1497774,10.3623389 59.2591506,10.7998393 C59.3685276,11.2217147 59.5091528,11.7842153 59.6966529,12.4717159 C59.6497779,12.518591 59.6341529,12.534216 59.6341529,12.549841 L58.743527,13.581092 C58.6185269,13.6904671 58.4779018,13.8779673 58.3060266,14.1435925 C58.1185264,14.4092178 57.9622763,14.627968 57.8997762,14.8154682 C58.3841517,14.5810929 58.5091518,14.2060926 58.8216521,13.7685922 C58.9154022,13.643592 59.0716523,13.4560919 59.3060276,13.1904666 C59.5404028,12.9248414 59.727903,12.7529662 59.8685281,12.6748411 C59.9466532,12.9560914 59.9622782,13.1592166 59.9154031,13.2685917 C59.8685281,13.3779668 59.6185279,13.6592171 59.1966525,14.1435925 C59.0404023,14.3154677 58.8529021,14.5498429 58.6497769,14.8467182 C58.4466517,15.1279685 58.3060266,15.2998436 58.1341514,15.3779687 C57.8529012,15.0029683 57.634151,14.4560928 57.4935258,13.7373421 C57.3372757,13.0029664 57.2591506,12.3623408 57.2591506,11.7998403 C57.2591506,11.3623399 57.4466508,10.9248395 57.7904011,10.502964 C58.1497765,10.0654636 58.3841517,9.67483826 58.6341519,9.33108793 C58.712277,9.22171283 58.7591506,9.15921277 58.7904021,9.14358775 C58.9154022,9.00296262 58.8372771,9.06546268 59.0247773,8.94046256 Z M59.5091528,1.17483015 L59.9466532,0.706079705 C60.3841536,0.737329735 61.0404042,0.737329735 61.89978,0.72170472 C62.7591559,0.706079705 63.3529064,0.737329735 63.6497817,0.846704839 C63.7591568,1.29983027 63.7904068,1.98733093 63.7747818,2.90920681 C63.7591568,3.81545767 63.7435318,4.76858358 63.7122818,5.75295952 C63.6966568,6.73733546 63.6810317,7.64358632 63.6966568,8.50296214 C63.7122818,9.36233796 63.8060319,9.95608853 63.962282,10.2842138 C64.2904073,10.9717145 64.977908,11.534215 66.024784,11.51859 C66.9779099,11.502965 67.5716604,10.9873395 67.8216607,9.94046351 C68.0872859,8.89358751 68.196661,7.7217114 68.181036,6.45608519 C68.165411,5.17483397 68.134161,3.97170782 68.0560359,2.84670675 C67.9935358,1.72170567 68.118536,1.06545505 68.4310363,0.893579884 C69.6341624,0.69045469 70.9310386,0.737329735 72.1654148,0.862329854 C72.321665,1.15920514 72.4154151,1.76858072 72.4622901,2.67483158 C72.5091652,3.56545743 72.5091652,4.54983337 72.4779151,5.59670937 C72.4622901,6.64358537 72.4154151,7.64358632 72.33729,8.61233725 C72.2747899,9.56546315 72.2122899,10.2529638 72.1654148,10.6748392 C71.9779146,12.2060907 71.337289,13.3310917 70.227913,14.0342174 C69.1341619,14.7373431 67.7747856,15.0810934 66.1341591,15.0810934 C64.3997824,15.0810934 62.9779061,14.8154682 61.884155,14.2685926 C60.790404,13.7217171 60.0560283,12.7060911 59.6966529,11.1904647 C59.1185274,8.79983742 59.5091528,3.87795773 59.5091528,1.17483015 Z M57.2591506,10.7998393 C57.2591506,10.0342136 57.2904006,9.64358823 57.3372757,9.59671318 C57.3841507,9.54983814 57.5872759,9.28421289 57.9310263,8.79983742 C58.1341514,8.53421217 58.2591506,8.26858692 58.4310267,8.00296166 L58.8529021,7.39358608 L58.9935273,8.70608733 C58.681027,8.90921253 58.3997767,9.26858787 58.1497765,9.78421336 C57.8841512,10.2998389 57.5716509,10.6279642 57.2591506,10.7998393 Z M67.5872855,5.3154591 C67.6654105,5.39358418 67.6966606,5.42483421 67.6966606,5.39358418 C67.6966606,5.34670913 67.7122856,5.44045922 67.7435356,5.64358441 L67.7279106,6.89358561 C67.4622853,7.06546077 67.2747852,7.23733593 67.1966601,7.37796107 C67.118535,7.5185862 66.9779099,7.67483635 66.7904097,7.86233653 C66.5872845,8.09671175 66.4310344,8.2529619 66.3372843,8.36233701 C66.2435342,8.47171211 66.1341591,8.65921229 65.9935339,8.92483754 C66.2435342,8.75296238 66.3997843,8.61233725 66.4779094,8.48733713 C66.5560345,8.36233701 66.6810346,8.20608686 66.8529098,8.03421169 C67.10291,7.78421146 67.087285,7.8310865 67.2747852,7.56546125 C67.4154103,7.36233605 67.4622853,7.26858596 67.4466603,7.28421098 C67.4310353,7.29983599 67.5247854,7.25296095 67.7435356,7.15921086 C67.7435356,8.03421169 67.6810356,8.90921253 67.5404104,9.76858835 C67.3997853,10.6279642 66.8685348,11.0654646 65.9154089,11.0967146 C65.8216588,10.5342141 65.8216588,7.8154591 66.024784,7.44046113 C66.1654091,7.19046089 66.4154093,6.84671056 66.8060347,6.42483516 C67.1966601,6.00295976 67.4622853,5.6279594 67.5872855,5.3154591 Z M57.2591506,9.23733784 C57.2591506,8.48733713 57.2747756,8.06546172 57.3216507,7.95608662 C57.3529007,7.84671152 57.5560259,7.56546125 57.9154012,7.0967108 C58.0872764,6.90921062 58.2747766,6.64358537 58.4466517,6.31546005 C58.6341519,5.97170973 58.8685271,5.7373345 59.0716523,5.61233438 C59.0716523,6.3623351 59.0404023,6.79983552 58.9935273,6.90921062 C58.9466522,7.01858573 58.727902,7.28421098 58.3841517,7.73733641 C58.2747766,7.9404616 58.1029014,8.20608686 57.8841512,8.5654622 C57.665401,8.92483754 57.4622758,9.14358775 57.2591506,9.23733784 Z M57.3060257,7.45608614 C57.3060257,7.01858573 57.3685257,6.72171044 57.5091508,6.56546029 C57.634151,6.40921014 57.8529012,6.15920991 58.1029014,5.81545958 C58.3997767,5.39358418 58.665402,4.8935837 59.1029024,4.59670842 C59.0560273,5.15920895 58.9779023,5.47170925 58.8685271,5.54983432 C58.7747771,5.61233438 58.6029019,5.83108459 58.3685267,6.20608495 C58.0560264,6.65921038 57.7591511,7.15921086 57.3060257,7.45608614 Z M67.5872855,5.3154591 C67.3216602,5.40920919 67.07166,5.65920943 66.8685348,6.06545982 C66.6654096,6.4717102 66.3372843,6.86233558 65.9154089,7.22171092 L65.9310339,6.15920991 C66.009159,6.08108483 66.1341591,5.92483277 66.3372843,5.65920943 C66.5404095,5.39358418 66.6966596,5.19045898 66.7904097,5.06545886 L67.7279106,3.92483277 C67.7435356,4.54983337 67.6966606,5.01858382 67.5872855,5.3154591 Z M58.8685271,3.29983218 C58.9935273,3.33108221 59.0404023,3.33108221 59.0091523,3.31545719 C58.9779023,3.28420716 58.9935273,3.31545719 59.0716523,3.40920728 C59.1185274,3.9560828 59.0560273,4.29983218 58.9154022,4.44045827 C58.7747771,4.5810834 58.6029019,4.78420859 58.3997767,5.06545886 L57.681026,6.08108483 C57.5560259,6.25296 57.4935258,6.33108507 57.5091508,6.31546005 C57.5091508,6.29983218 57.4466508,6.31546005 57.3060257,6.37796011 C57.3216507,5.83108459 57.3685257,5.50295928 57.4779008,5.36233415 C57.5872759,5.22170901 57.7591511,4.97170877 58.0247763,4.62795845 C58.3372766,4.25295809 58.681027,3.7373326 58.8685271,3.29983218 Z M65.9466589,5.83108459 C65.8997839,5.44045922 65.9466589,5.15920895 66.1185341,4.97170877 C66.2904092,4.78420859 66.4466594,4.56545696 66.6185345,4.33108316 L67.5872855,3.06545696 C67.6341605,3.12795701 67.8216607,3.31545719 67.7747856,3.51858239 L65.9466589,5.83108459 Z M65.9779089,3.90920776 C66.024784,3.76858263 66.1497841,3.61233248 66.3685343,3.40920728 C66.1966591,3.65920752 66.102909,3.7373326 65.9779089,3.90920776 Z M58.8685271,3.29983218 C58.4935268,3.50295737 58.3997767,3.81545767 58.1341514,4.19045803 C57.9622763,4.42483325 57.8841512,4.54983337 57.7435261,4.69045851 L57.3529007,5.11233391 C57.3529007,4.84670865 57.3685257,4.67483349 57.3997757,4.59670842 C57.4310258,4.51858334 57.5091508,4.39358084 57.634151,4.23733307 L58.4622768,3.112332 C58.6029019,2.97170687 58.681027,2.89358084 58.712277,2.87795678 C58.743527,2.84670675 58.8060271,2.72170663 58.8841522,2.51858143 C58.5872769,2.65920657 58.3841517,2.92483182 58.1497765,3.34670722 C57.9154012,3.75295761 57.634151,4.04983289 57.3372757,4.22170806 C57.3997757,3.98733283 57.712276,3.54983242 58.2122765,2.92483182 C58.696652,2.29983123 58.9935273,1.9560809 59.1029024,1.89358084 C58.8060271,3.23733212 59.4310277,2.09670603 58.8685271,3.29983218 Z M65.9466589,4.83108364 C65.9154089,4.42483325 66.009159,4.11233295 66.2122841,3.90920776 C66.4310344,3.69045755 66.6341596,3.45608233 66.8372847,3.20608209 C67.9310358,1.81545576 67.13416,2.67483158 67.4935354,2.08108102 C67.5091604,2.03420597 67.6029105,1.94045588 67.7747856,1.79983075 C67.6497855,2.01858096 67.6029105,2.08108102 67.6185355,2.00295594 C67.6497855,1.90920585 67.6966606,2.00295594 67.7591606,2.29983075 C67.7747856,2.34670627 67.7747856,2.45608137 67.7747856,2.62795654 C67.4779104,2.92483182 67.1810351,3.29983075 66.8685348,3.75295761 C66.5716595,4.20608304 66.2591592,4.56545839 65.9466589,4.83108364 Z M58.0091513,16.4717197 C58.7747771,16.0342193 58.2591516,17.0810953 60.837279,17.6904709 C62.2591554,18.0342212 63.7591568,18.1123463 65.3216502,17.9717212 C66.8997848,17.831096 68.181036,17.1748454 69.227912,16.0498443 C69.5872874,15.659219 69.7435375,15.3623437 70.1654129,14.9248433 C70.3841631,14.7060931 70.7122884,14.2998427 71.1654139,13.7217171 C71.6185393,13.1435916 71.9154146,12.7060911 72.0404147,12.4404659 C72.352915,11.7998403 72.5091652,11.2060897 72.5091652,10.6904642 C72.5247902,10.1748387 72.5872902,9.56546315 72.7279154,8.8779625 C72.7747904,8.59671223 72.7904154,8.04983671 72.8060404,7.25296095 C72.8216655,6.45608519 72.8216655,5.59670937 72.8060404,4.69045851 C72.7904154,3.78420764 72.7435404,2.92483182 72.6966653,2.12795606 C72.6497903,1.3310803 72.6029152,0.78420478 72.5404152,0.487329497 C71.8529145,0.471704482 71.1029138,0.424829437 70.274788,0.362329377 C69.4466622,0.284204303 68.7279115,0.346704363 68.102911,0.549829556 C67.8685357,0.81545481 67.6341605,1.20608018 67.3841603,1.51858048 C65.8997839,3.37795725 65.5872836,2.98733188 65.5872836,4.64358346 C65.5872836,6.76858549 65.5091585,8.8779625 65.5091585,11.0185895 C64.5716576,10.8310894 64.1029071,10.2060888 64.1185322,9.14358775 C64.1341572,8.06546172 64.1341572,7.04983576 64.1341572,6.09670985 C64.1341572,4.40920824 64.1497822,3.15920704 64.1654072,2.36233128 C64.1966572,1.54983051 64.1185322,1.00295499 63.931032,0.706079705 C63.7591568,0.409204422 63.4154065,0.268579288 62.899781,0.315454333 C62.3841555,0.346704363 61.6029048,0.362329377 60.5404037,0.346704363 C59.774778,0.346704363 59.2435275,0.596704601 58.9154022,1.09670508 C58.6029019,1.59670555 58.1029014,2.28420621 57.3216502,3.14358203 C57.1185255,3.36233224 57.0091504,3.51858239 56.9779003,3.62795749 C56.9466503,3.72170758 56.9310253,3.94045779 56.9310253,4.29983313 C56.9466503,5.40920919 56.9154003,6.72171044 56.8685252,8.23733689 C56.8060252,9.75296333 56.8060252,10.9404645 56.8685252,11.7998403 C56.9622753,12.8779663 57.0872754,13.6904671 57.2591506,14.2217176 C57.4154008,14.7373431 57.5716509,15.1279685 57.712276,15.3935937 C57.8529012,15.659219 57.9622763,15.8154691 58.0404014,15.9092192 C58.1185264,16.0185943 58.1029014,16.2060945 58.0091513,16.4717197 Z" id="Shape" fill="#000000" fill-rule="nonzero"></path>
            <path d="M72.6591509,16.8310951 C72.5185258,16.0029693 72.5654008,15.3935937 72.5654008,14.5185929 C72.5654008,14.1123425 72.737276,13.7060921 73.0810263,13.2998417 C73.4091516,12.8935913 73.6747769,12.4404659 73.9560272,11.9560904 L74.2841525,11.5654651 C74.2841525,12.549841 74.1591524,13.6904671 74.4247776,14.5185929 C74.1279023,14.9717183 73.8935271,15.2998436 73.5654018,15.706094 L72.6591509,16.8310951 Z M72.5966509,13.6904671 C72.5185258,12.7373412 72.5966509,12.1435906 72.8154011,11.8779654 C73.0185263,11.6123401 73.3935266,11.0185895 74.0185272,10.2217138 L74.2841525,9.89358847 L74.2841525,11.0029645 C74.2841525,11.2373397 74.1747774,11.471715 73.9404021,11.7217152 C73.752902,11.9248404 73.5966518,12.1279656 73.4716517,12.3623408 C73.2529015,12.7842162 72.9247762,13.3154667 72.5966509,13.6904671 Z M72.5654008,11.8310903 C72.5654008,11.2373397 72.5810258,10.8310894 72.6279009,10.6279642 C72.6591509,10.424839 72.9247762,10.0810886 73.3310266,9.58108817 C73.6279018,9.22171283 73.8779021,8.75296238 74.2685275,8.36233701 C74.2841525,8.81546244 74.2997775,9.14358775 74.2841525,9.34671295 C74.2841525,9.54983814 74.1904024,9.75296333 73.9872772,9.97171354 C73.784152,10.2060888 73.5497768,10.5498391 73.2997765,10.9717145 C73.0185263,11.3935899 72.768526,11.6904652 72.5654008,11.8310903 Z M78.9091569,11.2998398 C78.9404069,10.9717145 79.034157,10.7373393 79.2060322,10.5810891 C79.3779073,10.409214 79.5966575,10.0810886 79.9247829,9.64358823 L80.3154082,9.11233772 C80.3622833,9.31546292 80.3935333,9.44046304 80.3779083,9.48733808 C80.3622833,9.53421312 80.2060331,9.78421336 79.8622828,10.2529638 C79.7060326,10.471714 79.5497825,10.6435892 79.4716574,10.7529643 C79.4091569,10.8154643 79.3622823,10.8935894 79.2841572,11.0029645 L78.9091569,11.2998398 Z M78.9091569,10.2217138 C78.9247819,9.95608853 79.1122821,9.59671318 79.4404074,9.12796274 C79.7841577,8.64358728 80.0029079,8.36233701 80.096658,8.26858692 C80.2685332,8.70608733 79.9560329,8.95608757 79.7216577,9.33108793 C79.5185325,9.64358823 79.2372822,10.1748387 78.9091569,10.2217138 Z M72.5654008,10.1748387 C72.5654008,9.53421312 72.6747759,9.11233772 72.8779011,8.90921253 C73.0810263,8.70608733 73.3622766,8.31546196 73.737277,7.70608638 C73.8935271,7.47171116 74.0185272,7.28421098 74.2529024,7.04983576 C74.3154025,7.61233629 74.2997775,7.97171163 74.2060274,8.11233677 C74.1122773,8.2529619 73.8466521,8.5654622 73.4560267,9.08108769 C73.2372765,9.37796298 72.8310261,10.0029636 72.5654008,10.1748387 Z M78.5029065,9.36233796 L78.5029065,13.8467172 C78.5029065,14.2842177 78.3779064,14.4092178 78.1904062,14.612343 L75.0341532,14.612343 C74.862278,14.2998427 74.7060279,14.2373426 74.7060279,13.7373421 L74.7060279,4.8935837 C74.7060279,4.40920824 74.862278,4.17483301 75.1904033,4.19045803 C75.5185287,4.20608304 76.4091545,4.20608304 77.8622809,4.20608304 C78.2841563,4.20608304 78.1591562,4.25295809 78.4091564,4.56545839 L78.5341565,4.72170853 C79.2216572,4.50295833 79.8935328,4.25295809 80.5497834,3.98733283 C81.2216591,3.70608257 81.9716598,3.76858263 82.8154106,4.17483301 C83.5966614,4.56545839 84.0497868,5.23733403 84.1747869,6.19045994 C84.299787,7.14358584 84.3466621,8.03421169 84.299787,8.8779625 C83.9560367,9.15921277 83.4091612,9.28421289 82.6435354,9.25296286 C81.8779097,9.20608781 81.2685341,9.17483778 80.7997837,9.14358775 C80.6279085,8.73733736 80.4872834,8.33108698 80.3779083,7.90921157 C80.2841582,7.48733617 79.9716579,7.29983599 79.4404074,7.36233605 C78.9247819,7.42483611 78.6435316,7.70608638 78.5810316,8.22171187 C78.5341565,8.73733736 78.5029065,9.11233772 78.5029065,9.36233796 Z M72.5966509,8.9873376 L72.5654008,8.12796178 C72.9247762,7.86233653 73.1279014,7.53421122 73.4247767,7.11233581 C73.6279018,6.7842105 73.9716522,6.15920991 74.2841525,5.97170973 C74.2685275,6.59671032 74.0497773,7.11233581 73.7060269,7.5185862 C73.3779016,7.92483659 73.0029013,8.40921205 72.5966509,8.9873376 Z M73.3310266,6.12795988 C73.1435264,6.56546029 72.9560262,6.6748354 72.690401,6.9873357 C72.721651,6.7842105 72.737276,6.70608543 72.752901,6.72171044 C72.768526,6.73733546 72.8154011,6.65921038 72.9247762,6.50296023 C73.0654013,6.29983504 73.1279014,6.22170997 73.0810263,6.23733498 C73.0341513,6.25296 73.1122764,6.20608495 73.3310266,6.12795988 Z M74.1591524,5.23733403 C74.3466525,5.48733427 74.2841525,5.78420955 73.9716522,6.12795988 C73.6747769,6.45608519 73.4091516,6.83108555 73.0966513,7.23733403 C72.8466511,7.54983623 72.8779011,7.64358632 72.5654008,7.8310865 C72.5654008,7.37796107 72.5810258,7.15921086 72.6279009,7.2060859 C72.6591509,7.23733403 72.7997761,7.11233581 73.0497763,6.84671056 L74.1591524,5.23733403 Z M73.3310266,6.12795988 L73.7060269,5.56545934 C73.6122768,5.76858453 73.5497768,5.87795964 73.5185267,5.92483468 C73.3935266,6.17483492 73.4560267,6.0498348 73.3310266,6.12795988 Z M73.7060269,5.56545934 L74.2372774,4.83108364 C74.2216524,4.95608376 74.2060274,5.09670889 74.1591524,5.23733403 C74.0497773,5.29983409 74.0185272,5.33108412 74.0341522,5.3154591 C74.0497773,5.29983409 74.0185272,5.33108412 73.9091521,5.40920919 C73.831027,5.48733427 73.784152,5.53420931 73.784152,5.51858429 C73.784152,5.53420931 73.752902,5.54983432 73.7060269,5.56545934 Z M78.9247819,12.3310908 C79.1591504,12.2842157 79.5810325,12.2685907 80.1747831,12.2685907 C80.7841587,12.2685907 81.2372841,12.2529657 81.5497844,12.2373407 C82.19041,12.2217157 82.6904105,11.8779654 83.0654108,11.2373397 C83.4560362,10.5967141 83.8466616,10.0498386 84.252912,9.59671318 C84.4091621,9.42483802 84.5185372,9.33108793 84.5810373,9.28421289 C84.6435374,9.23733784 84.6904124,9.04983766 84.7216624,8.70608733 C84.7997875,7.86233653 84.7216624,6.94046065 84.5029122,5.92483468 C84.284162,4.90920871 83.7997865,4.20608304 83.0654108,3.83108269 C82.2529101,3.4248323 81.5029094,3.31545719 80.8310337,3.51858239 C80.1591504,3.72170758 79.4716574,3.92483277 78.7529067,4.159208 L78.3310313,3.79983266 L74.831028,3.79983266 C74.2529024,3.98733283 74.0810273,4.31545815 73.831027,4.67483349 C72.4560257,6.62796035 72.1591504,6.06545982 72.1591504,8.2529619 L72.1591504,15.5185938 C72.1591504,16.1748445 72.1904005,16.72172 72.2529005,17.0967203 C72.3154006,17.4717207 72.737276,17.6592209 73.4872767,17.6592209 C76.2060293,17.6592209 75.9716541,18.0185962 77.0341551,16.6435949 C77.6279057,15.8779692 78.0341561,15.4092187 78.2841563,15.1748435 C78.5341565,14.9404683 78.6904067,14.7529681 78.7685318,14.612343 C78.8466568,14.4717178 78.8622818,14.2529676 78.8466568,13.9873424 C78.8310318,13.7217171 78.8622818,13.1592166 78.9247819,12.3310908 Z" id="Shape" fill="#000000" fill-rule="nonzero"></path>
            <path d="M84.4029008,16.6748449 C84.4029008,16.2998446 84.3872758,15.659219 84.3716508,14.643593 C84.3404008,13.627967 84.3716508,12.9873414 84.4497759,12.7529662 C84.590401,12.565466 85.9341523,10.5342141 86.1216525,10.3467139 C86.1685275,11.8310903 86.1060275,13.3467139 86.2466526,14.7373431 C86.1529025,14.8154682 85.9966524,14.9717183 85.7935272,15.2060935 C85.590402,15.4404688 85.4341518,15.6123439 85.3404017,15.737344 C85.1372765,15.9873443 84.8404013,16.4248447 84.4029008,16.6748449 Z M90.1060313,14.5498429 C89.5591558,14.596718 88.9341552,14.627968 88.2154045,14.627968 C87.4966538,14.627968 86.9497783,14.5029679 86.5747779,14.2529676 C86.5591529,13.612342 86.5279029,12.6592161 86.5279029,11.3935899 L86.5279029,7.45608614 C86.5279029,6.08108483 86.5591529,4.78420859 86.5747779,3.54983242 C86.5904029,2.31545624 86.621653,1.40920538 86.668528,0.81545481 C87.0279029,0.659204661 87.5904039,0.565454571 88.3716546,0.549829556 C89.1685304,0.534204541 89.777906,0.596704601 90.2310314,0.737329735 C90.3716565,1.70608066 90.4341566,2.84670675 90.4029066,4.159208 C90.3872815,5.45608424 90.3716565,6.62796035 90.3716565,7.65921134 C90.3716565,7.98733665 90.3716565,8.48733713 90.3872815,9.1904628 C90.4029066,9.87796345 90.4185316,10.5967141 90.4185316,11.3310898 C90.4185316,12.0654655 90.4029066,12.7529662 90.3560315,13.3779668 C90.3091565,13.9873424 90.2310314,14.3779677 90.1060313,14.5498429 Z M84.606026,10.2217138 C84.8716513,9.97171354 85.1060265,9.48733808 85.2935267,9.17483778 C85.4185268,8.9873376 85.4810269,8.90921253 85.652902,8.65921229 C85.7154021,8.54983719 85.7622771,8.50296214 85.8404022,8.39358704 L86.1216525,8.06546172 C86.1216525,8.78421241 86.1216525,9.28421289 86.1372775,9.54983814 C86.1529025,9.81546339 86.1372775,10.0185886 86.0904024,10.1279637 C86.0591524,10.2373388 85.9810273,10.3623389 85.8560272,10.471714 C85.7310271,10.5810891 85.5435269,10.8623394 85.2935267,11.2529648 C85.0435264,11.6435901 84.7779012,12.1592156 84.4029008,12.3935909 C84.4029008,10.7217143 84.3091507,11.502965 84.606026,10.2217138 Z M84.606026,10.2217138 C84.4185258,10.2685845 84.3560258,10.2998389 84.4029008,10.2842138 C84.4497759,10.2685845 84.4497759,10.2060888 84.4029008,10.1279637 C84.4029008,9.62796321 84.4029008,9.20608781 84.3872758,8.86233748 C84.3716508,8.51858716 84.4654009,8.17483683 84.6841511,7.84671152 C84.8404013,7.62796131 85.0435264,7.34671104 85.2622767,7.01858573 C85.4654018,6.69046041 85.590402,6.40921014 85.652902,6.19045994 C85.7779021,6.09670985 85.8404022,6.03420979 85.8560272,5.98733474 C85.8716522,5.9404597 85.9654023,5.87795964 86.1372775,5.76858453 L86.1216525,7.65921134 C86.0122774,8.00296166 85.7310271,8.40921205 85.2935267,8.89358751 C84.8716513,9.37796298 84.6372761,9.81546339 84.606026,10.2217138 Z M85.652902,6.19045994 C85.3872768,6.34671008 85.2154016,6.61233534 85.0591515,6.9873357 C84.8872763,7.36233605 84.6685261,7.62796131 84.4029008,7.78421146 C84.4185258,7.06546077 84.4341509,6.64358537 84.4654009,6.53421026 C84.4810259,6.40921014 84.6529011,6.12795988 84.9654014,5.67483444 C85.1372765,5.44045922 85.2935267,5.19045898 85.4966519,4.92483373 C85.652902,4.73733355 85.7466521,4.61233343 85.7779021,4.54983337 C85.8091522,4.4717083 85.9341523,4.36233319 86.1685275,4.20608304 C86.1216525,4.98733379 86.1060275,5.40920919 86.0904024,5.47170925 C86.0904024,5.51858429 85.9497773,5.76858453 85.652902,6.19045994 Z M85.9966524,2.83108173 C86.1216525,2.87795678 86.1841525,2.89358179 86.1841525,2.86233176 C86.1997775,2.83108173 86.1997775,2.97170687 86.2154026,3.28420716 C86.2310276,3.67483254 86.1060275,3.98733283 85.8404022,4.23733307 C85.590402,4.48733331 85.3091517,4.86233367 84.9966514,5.36233415 C84.8247762,5.61233438 84.7466512,5.86233462 84.4497759,5.92483468 C84.4341509,5.11233391 84.6372761,4.54983337 85.0279014,4.23733307 C85.3716518,3.92483277 85.7154021,3.45608233 85.9966524,2.83108173 Z M85.9966524,2.83108173 C85.7466521,2.97170687 85.5122769,3.23733212 85.2779017,3.65920752 C85.0279014,4.06545791 84.7622762,4.39358322 84.5122759,4.62795845 C84.4966509,4.29983313 84.7310261,3.86233272 85.1685266,3.29983218 C85.590402,2.72170663 85.9341523,2.33108126 86.1841525,2.11233105 C86.1997775,2.3779563 86.1997775,2.51858143 86.1841525,2.53420645 C86.1685275,2.54983146 86.1060275,2.65920657 85.9966524,2.83108173 Z M85.668527,2.29983123 C85.590402,2.45608137 85.4185268,2.72170663 85.1529016,3.112332 C84.8716513,3.50295737 84.621651,3.7373326 84.4654009,3.83108269 C84.5122759,3.47170734 84.7622762,3.14358203 84.9966514,2.90920681 C85.1685266,2.76858167 85.2154016,2.70608161 85.2935267,2.58108149 C85.3091517,2.56545648 85.4654009,2.42483134 85.4654009,2.42483134 C85.606027,2.29983123 85.4966519,2.3779563 85.668527,2.29983123 Z M85.668527,2.29983123 C85.7622771,1.97170591 85.9497773,1.70608066 86.2310276,1.50295547 C86.1841525,1.70608066 86.1685275,1.79983075 86.1685275,1.79983075 L86.0279024,1.98733093 L85.668527,2.29983123 Z M89.9810312,15.4404688 C90.1372813,15.2373436 90.3872815,14.9248433 90.5122817,14.7373431 C90.7466569,14.3467177 90.856032,13.596717 90.824782,12.502966 C90.7935319,11.3935899 90.7779069,10.5654641 90.7779069,10.0029636 C90.7779069,9.44046304 90.7779069,8.70608733 90.7935319,7.78421146 C90.8091569,6.86233558 90.824782,5.92483468 90.824782,4.97170877 C90.824782,4.00295785 90.8091569,3.09670699 90.7622819,2.23733117 C90.7154069,1.37795535 90.6372818,0.72170472 90.5122817,0.268579288 C89.5122807,0.268579288 88.777905,0.237329258 88.2935295,0.174829199 C87.8091541,0.112329139 87.4341537,0.112329139 87.1372784,0.159204184 C86.8560282,0.206079228 86.5904029,0.362329377 86.3560277,0.627954631 C86.1216525,0.877954869 85.7622771,1.31545529 85.2779017,1.9560809 C84.6685261,2.73733164 84.3091507,3.17483206 84.2310257,3.25295713 C84.1529006,3.33108221 84.0747755,3.67483254 84.0591505,4.29983313 C84.0279005,5.47170925 83.9966504,6.69046041 83.9966504,7.76858644 L83.9966504,14.9404683 C83.9966504,15.5185938 83.9966504,16.0498443 83.9810254,16.5967199 C83.9654004,17.1435954 84.2622757,17.4560957 84.8560263,17.5185957 C85.2935267,17.5654708 85.8716522,17.5967208 86.5747779,17.6123458 C87.2779036,17.6435959 87.8716541,17.6279708 88.3716546,17.5654708 L89.9810312,15.4404688 Z" id="Shape" fill="#000000" fill-rule="nonzero"></path>
        </g>
    </g>
</svg>