<?xml version="1.0" standalone="no"?>
<!DOCTYPE svg PUBLIC "-//W3C//DTD SVG 20010904//EN"
 "http://www.w3.org/TR/2001/REC-SVG-20010904/DTD/svg10.dtd">
<svg version="1.0" xmlns="http://www.w3.org/2000/svg"
 width="640.000000pt" height="640.000000pt" viewBox="0 0 640.000000 640.000000"
 preserveAspectRatio="xMidYMid meet">
<metadata>
Created by potrace 1.14, written by Peter Selinger 2001-2017
</metadata>
<g transform="translate(0.000000,640.000000) scale(0.100000,-0.100000)"
fill="#000000" stroke="none">
<path d="M2126 6073 c-5 -5 -340 -13 -726 -19 -212 -3 -396 -8 -410 -11 -14
-3 -30 -7 -36 -8 -60 -13 -115 -60 -230 -200 -36 -44 -83 -100 -104 -125 -22
-25 -73 -85 -115 -135 -42 -49 -84 -99 -94 -110 -9 -11 -66 -78 -126 -150 -60
-71 -112 -132 -115 -135 -3 -3 -30 -34 -60 -69 -52 -61 -55 -68 -60 -130 -7
-72 -3 -797 4 -901 25 -368 25 -815 1 -1065 -12 -128 -15 -154 -20 -190 -4
-22 -8 -51 -11 -65 -10 -56 -18 -554 -18 -1190 -1 -747 6 -917 37 -975 27 -51
98 -83 242 -110 73 -14 381 -20 510 -10 28 2 86 7 130 10 44 3 96 8 116 10 20
2 67 7 105 10 38 3 81 7 94 10 14 3 57 7 96 11 39 3 80 7 90 9 11 2 28 4 38 4
11 1 17 4 13 7 -7 7 42 76 98 138 6 6 39 44 75 85 103 117 240 251 293 286 32
20 27 24 72 -50 34 -57 53 -116 59 -183 7 -74 19 -114 48 -154 60 -86 131
-122 278 -143 8 -1 35 -5 60 -9 121 -19 598 -29 691 -15 30 4 70 10 90 12 20
2 60 12 90 22 49 16 73 37 258 224 112 113 211 217 220 231 40 63 169 190 191
190 6 0 10 5 10 10 0 6 6 10 13 10 10 0 13 -37 14 -167 1 -204 11 -334 26
-349 4 -4 7 -14 7 -23 0 -28 44 -80 88 -101 61 -31 127 -37 350 -33 108 2 357
5 552 7 316 3 360 5 400 21 61 25 104 58 180 139 36 38 88 93 115 122 155 163
222 241 276 319 32 48 59 91 59 95 0 5 3 10 8 12 4 1 33 37 64 78 32 41 75 94
97 117 40 44 48 72 57 213 1 25 3 45 4 45 1 0 4 223 5 495 5 649 15 1132 40
1795 14 392 18 628 19 1075 1 623 -7 734 -56 850 -48 112 -102 145 -253 157
-121 10 -832 9 -1110 -1 -110 -3 -303 -9 -430 -12 -404 -8 -458 -17 -531 -92
-25 -25 -67 -76 -92 -112 -26 -36 -51 -70 -57 -76 -5 -6 -17 -21 -25 -34 -15
-22 -145 -198 -174 -235 -9 -11 -48 -63 -88 -115 -67 -86 -188 -220 -201 -220
-15 0 -73 145 -126 315 -16 51 -40 143 -46 180 -2 11 -9 45 -15 75 -6 30 -13
66 -16 79 -9 42 -45 105 -83 142 -46 44 -125 75 -217 84 -38 4 -77 9 -86 10
-70 14 -641 29 -652 18z"/>
</g>
</svg>
